M48
; DRILL file {KiCad (6.0.5)} date Sun Jun 12 16:22:00 2022
; FORMAT={-:-/ absolute / inch / decimal}
; #@! TF.CreationDate,2022-06-12T16:22:00+02:00
; #@! TF.GenerationSoftware,Kicad,Pcbnew,(6.0.5)
; #@! TF.FileFunction,Plated,1,2,PTH
FMAT,2
INCH
; #@! TA.AperFunction,Plated,PTH,ViaDrill
T1C0.0157
; #@! TA.AperFunction,Plated,PTH,ComponentDrill
T2C0.0315
; #@! TA.AperFunction,Plated,PTH,ComponentDrill
T3C0.0394
; #@! TA.AperFunction,Plated,PTH,ComponentDrill
T4C0.0512
; #@! TA.AperFunction,Plated,PTH,ComponentDrill
T5C0.1260
%
G90
G05
T1
X2.19Y-2.42
X3.13Y-2.48
X3.18Y-2.03
X3.37Y-2.61
X3.43Y-2.99
X3.58Y-2.26
X3.79Y-2.94
X3.96Y-2.55
X4.02Y-2.45
X4.08Y-2.29
X4.18Y-2.48
X4.26Y-2.99
X4.26Y-3.63
X5.2Y-2.4
X5.24Y-2.36
T2
X2.6709Y-1.9953
X2.6709Y-2.1953
X2.6709Y-2.3953
X2.6709Y-2.5953
X2.6709Y-2.7953
X3.0709Y-1.9953
X3.0709Y-2.1953
X3.0709Y-2.3953
X3.0709Y-2.5953
X3.0709Y-2.7953
X3.3816Y-1.875
X3.5784Y-1.875
T3
X1.9906Y-2.9268
X2.0906Y-2.9268
X2.1906Y-2.9268
X2.67Y-1.4972
X2.67Y-1.7924
X3.3839Y-2.0996
X3.3839Y-2.6996
X3.4839Y-2.0996
X3.4839Y-2.6996
X3.5839Y-2.0996
X3.5839Y-2.6996
X3.6839Y-2.0996
X3.6839Y-2.6996
X3.7839Y-2.0996
X3.7839Y-2.6996
X3.8839Y-2.0996
X3.8839Y-2.6996
X3.9839Y-2.0996
X3.9839Y-2.6996
X4.0839Y-2.0996
X4.0839Y-2.6996
X4.1839Y-2.0996
X4.1839Y-2.6996
X4.2839Y-2.0996
X4.2839Y-2.6996
X4.3839Y-2.0996
X4.3839Y-2.6996
X4.4839Y-2.0996
X4.4839Y-2.6996
X4.5839Y-2.0996
X4.5839Y-2.6996
X4.6839Y-2.0996
X4.6839Y-2.6996
X4.7839Y-2.0996
X4.7839Y-2.6996
X5.32Y-4.0
X5.32Y-4.1
X5.32Y-4.2
X5.32Y-4.3
T4
X1.9Y-1.82
X1.9Y-2.0169
X1.9Y-2.27
X1.9Y-2.4669
X3.1175Y-4.152
X3.3143Y-4.152
X3.5112Y-4.152
X3.7939Y-4.152
X3.9907Y-4.152
X4.1876Y-4.152
X4.4631Y-4.152
X4.66Y-4.152
X4.8569Y-4.152
T5
X1.85Y-1.5354
X3.15Y-3.3071
X3.5752Y-3.3071
X4.0004Y-3.3071
X4.4256Y-3.3071
X5.0555Y-3.3071
X5.2461Y-1.5354
X5.2461Y-5.0787
T0
M30
