%TF.GenerationSoftware,KiCad,Pcbnew,(6.0.5)*%
%TF.CreationDate,2022-06-12T16:25:32+02:00*%
%TF.ProjectId,dewpoint-pcb,64657770-6f69-46e7-942d-7063622e6b69,1.0*%
%TF.SameCoordinates,Original*%
%TF.FileFunction,Copper,L2,Bot*%
%TF.FilePolarity,Positive*%
%FSLAX46Y46*%
G04 Gerber Fmt 4.6, Leading zero omitted, Abs format (unit mm)*
G04 Created by KiCad (PCBNEW (6.0.5)) date 2022-06-12 16:25:32*
%MOMM*%
%LPD*%
G01*
G04 APERTURE LIST*
%TA.AperFunction,ComponentPad*%
%ADD10C,1.600000*%
%TD*%
%TA.AperFunction,ComponentPad*%
%ADD11O,1.600000X1.600000*%
%TD*%
%TA.AperFunction,ComponentPad*%
%ADD12C,5.600000*%
%TD*%
%TA.AperFunction,ComponentPad*%
%ADD13R,1.700000X1.700000*%
%TD*%
%TA.AperFunction,ComponentPad*%
%ADD14O,1.700000X1.700000*%
%TD*%
%TA.AperFunction,ComponentPad*%
%ADD15R,2.000000X2.000000*%
%TD*%
%TA.AperFunction,ComponentPad*%
%ADD16C,2.000000*%
%TD*%
%TA.AperFunction,ComponentPad*%
%ADD17R,2.600000X2.600000*%
%TD*%
%TA.AperFunction,ComponentPad*%
%ADD18C,2.600000*%
%TD*%
%TA.AperFunction,ComponentPad*%
%ADD19R,1.600000X1.600000*%
%TD*%
%TA.AperFunction,ViaPad*%
%ADD20C,0.800000*%
%TD*%
%TA.AperFunction,Conductor*%
%ADD21C,0.600000*%
%TD*%
%TA.AperFunction,Conductor*%
%ADD22C,1.000000*%
%TD*%
G04 APERTURE END LIST*
D10*
%TO.P,R2,1*%
%TO.N,+5V*%
X67840000Y-55760000D03*
D11*
%TO.P,R2,2*%
%TO.N,DHT Inside*%
X78000000Y-55760000D03*
%TD*%
D12*
%TO.P,,1*%
%TO.N,N/C*%
X133250000Y-129000000D03*
%TD*%
D10*
%TO.P,R5,1*%
%TO.N,Net-(J7-Pad2)*%
X67840000Y-60840000D03*
D11*
%TO.P,R5,2*%
%TO.N,Relais*%
X78000000Y-60840000D03*
%TD*%
D12*
%TO.P,,1*%
%TO.N,N/C*%
X101610000Y-84000000D03*
%TD*%
%TO.P,,1*%
%TO.N,N/C*%
X128410000Y-84000000D03*
%TD*%
D13*
%TO.P,J5,1,Pin_1*%
%TO.N,GND*%
X135128000Y-101600000D03*
D14*
%TO.P,J5,2,Pin_2*%
%TO.N,+5V*%
X135128000Y-104140000D03*
%TO.P,J5,3,Pin_3*%
%TO.N,SDA*%
X135128000Y-106680000D03*
%TO.P,J5,4,Pin_4*%
%TO.N,SCL*%
X135128000Y-109220000D03*
%TD*%
D15*
%TO.P,C1,1*%
%TO.N,+5V*%
X67818000Y-45527677D03*
D16*
%TO.P,C1,2*%
%TO.N,GND*%
X67818000Y-38027677D03*
%TD*%
D12*
%TO.P,,1*%
%TO.N,N/C*%
X46990000Y-39000000D03*
%TD*%
%TO.P,,1*%
%TO.N,N/C*%
X133250000Y-39000000D03*
%TD*%
%TO.P,,1*%
%TO.N,N/C*%
X112410000Y-84000000D03*
%TD*%
D17*
%TO.P,J7,1,Pin_1*%
%TO.N,GND*%
X79184000Y-105461000D03*
D18*
%TO.P,J7,2,Pin_2*%
%TO.N,Net-(J7-Pad2)*%
X84184000Y-105461000D03*
%TO.P,J7,3,Pin_3*%
%TO.N,+5V*%
X89184000Y-105461000D03*
%TD*%
D19*
%TO.P,A1,1,D1/TX*%
%TO.N,unconnected-(A1-Pad1)*%
X85950000Y-68570000D03*
D11*
%TO.P,A1,2,D0/RX*%
%TO.N,unconnected-(A1-Pad2)*%
X88490000Y-68570000D03*
%TO.P,A1,3,~{RESET}*%
%TO.N,unconnected-(A1-Pad3)*%
X91030000Y-68570000D03*
%TO.P,A1,4,GND*%
%TO.N,GND*%
X93570000Y-68570000D03*
%TO.P,A1,5,D2*%
%TO.N,unconnected-(A1-Pad5)*%
X96110000Y-68570000D03*
%TO.P,A1,6,D3*%
%TO.N,unconnected-(A1-Pad6)*%
X98650000Y-68570000D03*
%TO.P,A1,7,D4*%
%TO.N,DHT Outside*%
X101190000Y-68570000D03*
%TO.P,A1,8,D5*%
%TO.N,DHT Inside*%
X103730000Y-68570000D03*
%TO.P,A1,9,D6*%
%TO.N,Relais*%
X106270000Y-68570000D03*
%TO.P,A1,10,D7*%
%TO.N,unconnected-(A1-Pad10)*%
X108810000Y-68570000D03*
%TO.P,A1,11,D8*%
%TO.N,unconnected-(A1-Pad11)*%
X111350000Y-68570000D03*
%TO.P,A1,12,D9*%
%TO.N,unconnected-(A1-Pad12)*%
X113890000Y-68570000D03*
%TO.P,A1,13,D10*%
%TO.N,unconnected-(A1-Pad13)*%
X116430000Y-68570000D03*
%TO.P,A1,14,D11*%
%TO.N,unconnected-(A1-Pad14)*%
X118970000Y-68570000D03*
%TO.P,A1,15,D12*%
%TO.N,unconnected-(A1-Pad15)*%
X121510000Y-68570000D03*
%TO.P,A1,16,D13*%
%TO.N,unconnected-(A1-Pad16)*%
X121510000Y-53330000D03*
%TO.P,A1,17,3V3*%
%TO.N,unconnected-(A1-Pad17)*%
X118970000Y-53330000D03*
%TO.P,A1,18,AREF*%
%TO.N,unconnected-(A1-Pad18)*%
X116430000Y-53330000D03*
%TO.P,A1,19,A0*%
%TO.N,unconnected-(A1-Pad19)*%
X113890000Y-53330000D03*
%TO.P,A1,20,A1*%
%TO.N,unconnected-(A1-Pad20)*%
X111350000Y-53330000D03*
%TO.P,A1,21,A2*%
%TO.N,unconnected-(A1-Pad21)*%
X108810000Y-53330000D03*
%TO.P,A1,22,A3*%
%TO.N,unconnected-(A1-Pad22)*%
X106270000Y-53330000D03*
%TO.P,A1,23,A4*%
%TO.N,SDA*%
X103730000Y-53330000D03*
%TO.P,A1,24,A5*%
%TO.N,SCL*%
X101190000Y-53330000D03*
%TO.P,A1,25,A6*%
%TO.N,unconnected-(A1-Pad25)*%
X98650000Y-53330000D03*
%TO.P,A1,26,A7*%
%TO.N,unconnected-(A1-Pad26)*%
X96110000Y-53330000D03*
%TO.P,A1,27,+5V*%
%TO.N,unconnected-(A1-Pad27)*%
X93570000Y-53330000D03*
%TO.P,A1,28,~{RESET}*%
%TO.N,Reset*%
X91030000Y-53330000D03*
%TO.P,A1,29,GND*%
%TO.N,GND*%
X88490000Y-53330000D03*
%TO.P,A1,30,VIN*%
%TO.N,+5V*%
X85950000Y-53330000D03*
%TD*%
D17*
%TO.P,J3,1,Pin_1*%
%TO.N,DHT Outside*%
X96364000Y-105461000D03*
D18*
%TO.P,J3,2,Pin_2*%
%TO.N,GND*%
X101364000Y-105461000D03*
%TO.P,J3,3,Pin_3*%
%TO.N,+5V*%
X106364000Y-105461000D03*
%TD*%
D13*
%TO.P,J2,1,Pin_1*%
%TO.N,GND*%
X50561000Y-74340000D03*
D14*
%TO.P,J2,2,Pin_2*%
%TO.N,+5V*%
X53101000Y-74340000D03*
%TO.P,J2,3,Pin_3*%
%TO.N,Relais*%
X55641000Y-74340000D03*
%TD*%
D10*
%TO.P,R3,1*%
%TO.N,+5V*%
X67840000Y-65920000D03*
D11*
%TO.P,R3,2*%
%TO.N,SDA*%
X78000000Y-65920000D03*
%TD*%
D12*
%TO.P,REF\u002A\u002A,1*%
%TO.N,N/C*%
X90810000Y-84000000D03*
%TD*%
%TO.P,REF\u002A\u002A,1*%
%TO.N,N/C*%
X80010000Y-84000000D03*
%TD*%
D17*
%TO.P,J1,1,Pin_1*%
%TO.N,GND*%
X48260000Y-46228000D03*
D18*
%TO.P,J1,2,Pin_2*%
%TO.N,+5V*%
X48260000Y-51228000D03*
%TD*%
D17*
%TO.P,J4,1,Pin_1*%
%TO.N,DHT Inside*%
X113364000Y-105461000D03*
D18*
%TO.P,J4,2,Pin_2*%
%TO.N,GND*%
X118364000Y-105461000D03*
%TO.P,J4,3,Pin_3*%
%TO.N,+5V*%
X123364000Y-105461000D03*
%TD*%
D10*
%TO.P,R4,1*%
%TO.N,SCL*%
X78000000Y-71000000D03*
D11*
%TO.P,R4,2*%
%TO.N,+5V*%
X67840000Y-71000000D03*
%TD*%
D10*
%TO.P,C2,1*%
%TO.N,GND*%
X90892000Y-47625000D03*
%TO.P,C2,2*%
%TO.N,+5V*%
X85892000Y-47625000D03*
%TD*%
D17*
%TO.P,J6,1,Pin_1*%
%TO.N,GND*%
X48260000Y-58714000D03*
D18*
%TO.P,J6,2,Pin_2*%
%TO.N,Reset*%
X48260000Y-63714000D03*
%TD*%
D10*
%TO.P,R1,1*%
%TO.N,+5V*%
X67840000Y-50680000D03*
D11*
%TO.P,R1,2*%
%TO.N,DHT Outside*%
X78000000Y-50680000D03*
%TD*%
D20*
%TO.N,DHT Outside*%
X96266000Y-74676000D03*
X85598000Y-66294000D03*
X80772000Y-51562000D03*
%TO.N,DHT Inside*%
X108204000Y-92202000D03*
X103632000Y-58166000D03*
X108204000Y-75946000D03*
%TO.N,Relais*%
X55626000Y-61468000D03*
X106172000Y-62992000D03*
%TO.N,SDA*%
X102108000Y-62230000D03*
X133096000Y-59944000D03*
%TO.N,SCL*%
X132080000Y-60960000D03*
X100584000Y-64770000D03*
%TO.N,Reset*%
X90932000Y-57404000D03*
%TO.N,+5V*%
X87122000Y-75946000D03*
%TO.N,Net-(J7-Pad2)*%
X79502000Y-62992000D03*
%TD*%
D21*
%TO.N,DHT Outside*%
X96266000Y-74676000D02*
X96364000Y-74774000D01*
X80772000Y-51562000D02*
X80772000Y-61468000D01*
X96364000Y-74774000D02*
X96364000Y-105461000D01*
X80772000Y-61468000D02*
X85598000Y-66294000D01*
%TO.N,DHT Inside*%
X103632000Y-58166000D02*
X103730000Y-58264000D01*
X108204000Y-75946000D02*
X108204000Y-92202000D01*
X103730000Y-58264000D02*
X103730000Y-68570000D01*
%TO.N,Relais*%
X55626000Y-61468000D02*
X55641000Y-61483000D01*
X106172000Y-68472000D02*
X106270000Y-68570000D01*
X55641000Y-61483000D02*
X55641000Y-74340000D01*
X106172000Y-62992000D02*
X106172000Y-68472000D01*
%TO.N,SDA*%
X102108000Y-54952000D02*
X103730000Y-53330000D01*
X102108000Y-62230000D02*
X102108000Y-54952000D01*
X133096000Y-59944000D02*
X133096000Y-105410000D01*
X134366000Y-106680000D02*
X135128000Y-106680000D01*
X133096000Y-105410000D02*
X134366000Y-106680000D01*
%TO.N,SCL*%
X132080000Y-106172000D02*
X135128000Y-109220000D01*
X100584000Y-64770000D02*
X101190000Y-64164000D01*
X132080000Y-60960000D02*
X132080000Y-106172000D01*
X101190000Y-64164000D02*
X101190000Y-53330000D01*
%TO.N,Reset*%
X90932000Y-53428000D02*
X91030000Y-53330000D01*
X90932000Y-57404000D02*
X90932000Y-53428000D01*
D22*
%TO.N,+5V*%
X67840000Y-65920000D02*
X67840000Y-71000000D01*
X67840000Y-55760000D02*
X65786000Y-57814000D01*
X65786000Y-57814000D02*
X65786000Y-63866000D01*
X67818000Y-50658000D02*
X67840000Y-50680000D01*
X87122000Y-75946000D02*
X87122000Y-103399000D01*
X67840000Y-50680000D02*
X67840000Y-55760000D01*
X65786000Y-63866000D02*
X67840000Y-65920000D01*
X87122000Y-103399000D02*
X89184000Y-105461000D01*
X67818000Y-45527677D02*
X67818000Y-50658000D01*
D21*
%TO.N,Net-(J7-Pad2)*%
X84184000Y-67674000D02*
X84184000Y-105461000D01*
X79502000Y-62992000D02*
X84184000Y-67674000D01*
%TD*%
%TA.AperFunction,Conductor*%
%TO.N,GND*%
G36*
X132631534Y-35528502D02*
G01*
X132678027Y-35582158D01*
X132688131Y-35652432D01*
X132658637Y-35717012D01*
X132598911Y-35755396D01*
X132590257Y-35757608D01*
X132370117Y-35805606D01*
X132030271Y-35919317D01*
X132027178Y-35920739D01*
X132027177Y-35920740D01*
X132020974Y-35923593D01*
X131704694Y-36069066D01*
X131397193Y-36253101D01*
X131394467Y-36255163D01*
X131394465Y-36255164D01*
X131388620Y-36259585D01*
X131111367Y-36469270D01*
X130850559Y-36715043D01*
X130617819Y-36987546D01*
X130615900Y-36990358D01*
X130615897Y-36990363D01*
X130522624Y-37127097D01*
X130415871Y-37283591D01*
X130247077Y-37599714D01*
X130113411Y-37932218D01*
X130112491Y-37935492D01*
X130112489Y-37935497D01*
X130021451Y-38259376D01*
X130016437Y-38277213D01*
X129957290Y-38630663D01*
X129936661Y-38988434D01*
X129954792Y-39346340D01*
X129955329Y-39349695D01*
X129955330Y-39349701D01*
X129960316Y-39380828D01*
X130011470Y-39700195D01*
X130106033Y-40045859D01*
X130237374Y-40379288D01*
X130403957Y-40696582D01*
X130405858Y-40699411D01*
X130405864Y-40699421D01*
X130589569Y-40972800D01*
X130603834Y-40994029D01*
X130834665Y-41268150D01*
X131093751Y-41515738D01*
X131378061Y-41733897D01*
X131410056Y-41753350D01*
X131681355Y-41918303D01*
X131681360Y-41918306D01*
X131684270Y-41920075D01*
X131687358Y-41921521D01*
X131687357Y-41921521D01*
X132005710Y-42070649D01*
X132005720Y-42070653D01*
X132008794Y-42072093D01*
X132012012Y-42073195D01*
X132012015Y-42073196D01*
X132344615Y-42187071D01*
X132344623Y-42187073D01*
X132347838Y-42188174D01*
X132697435Y-42266959D01*
X132749728Y-42272917D01*
X133050114Y-42307142D01*
X133050122Y-42307142D01*
X133053497Y-42307527D01*
X133056901Y-42307545D01*
X133056904Y-42307545D01*
X133251227Y-42308562D01*
X133411857Y-42309403D01*
X133415243Y-42309053D01*
X133415245Y-42309053D01*
X133764932Y-42272917D01*
X133764941Y-42272916D01*
X133768324Y-42272566D01*
X133771657Y-42271852D01*
X133771660Y-42271851D01*
X133944186Y-42234864D01*
X134118727Y-42197446D01*
X134458968Y-42084922D01*
X134785066Y-41936311D01*
X134879052Y-41880506D01*
X135090262Y-41755099D01*
X135090267Y-41755096D01*
X135093207Y-41753350D01*
X135379786Y-41538180D01*
X135641451Y-41293319D01*
X135875140Y-41021630D01*
X135981750Y-40866512D01*
X136076190Y-40729101D01*
X136076195Y-40729094D01*
X136078120Y-40726292D01*
X136079732Y-40723298D01*
X136079737Y-40723290D01*
X136203894Y-40492705D01*
X136248017Y-40410760D01*
X136249303Y-40407593D01*
X136250753Y-40404512D01*
X136251857Y-40405032D01*
X136292926Y-40353342D01*
X136360133Y-40330456D01*
X136429044Y-40347539D01*
X136477780Y-40399166D01*
X136491500Y-40456342D01*
X136491500Y-100248071D01*
X136471498Y-100316192D01*
X136417842Y-100362685D01*
X136347568Y-100372789D01*
X136289935Y-100348897D01*
X136231649Y-100305214D01*
X136216054Y-100296676D01*
X136095606Y-100251522D01*
X136080351Y-100247895D01*
X136029486Y-100242369D01*
X136022672Y-100242000D01*
X135400115Y-100242000D01*
X135384876Y-100246475D01*
X135383671Y-100247865D01*
X135382000Y-100255548D01*
X135382000Y-101728000D01*
X135361998Y-101796121D01*
X135308342Y-101842614D01*
X135256000Y-101854000D01*
X135000000Y-101854000D01*
X134931879Y-101833998D01*
X134885386Y-101780342D01*
X134874000Y-101728000D01*
X134874000Y-100260116D01*
X134869525Y-100244877D01*
X134868135Y-100243672D01*
X134860452Y-100242001D01*
X134233331Y-100242001D01*
X134226510Y-100242371D01*
X134175648Y-100247895D01*
X134160396Y-100251521D01*
X134074730Y-100283636D01*
X134003923Y-100288819D01*
X133941554Y-100254898D01*
X133907424Y-100192643D01*
X133904500Y-100165654D01*
X133904500Y-60394397D01*
X133921380Y-60331398D01*
X133930527Y-60315556D01*
X133989542Y-60133928D01*
X133991390Y-60116351D01*
X134008814Y-59950565D01*
X134009504Y-59944000D01*
X133999290Y-59846819D01*
X133990232Y-59760635D01*
X133990232Y-59760633D01*
X133989542Y-59754072D01*
X133930527Y-59572444D01*
X133835040Y-59407056D01*
X133707253Y-59265134D01*
X133552752Y-59152882D01*
X133546724Y-59150198D01*
X133546722Y-59150197D01*
X133384319Y-59077891D01*
X133384318Y-59077891D01*
X133378288Y-59075206D01*
X133284888Y-59055353D01*
X133197944Y-59036872D01*
X133197939Y-59036872D01*
X133191487Y-59035500D01*
X133000513Y-59035500D01*
X132994061Y-59036872D01*
X132994056Y-59036872D01*
X132907112Y-59055353D01*
X132813712Y-59075206D01*
X132807682Y-59077891D01*
X132807681Y-59077891D01*
X132645278Y-59150197D01*
X132645276Y-59150198D01*
X132639248Y-59152882D01*
X132484747Y-59265134D01*
X132356960Y-59407056D01*
X132261473Y-59572444D01*
X132202458Y-59754072D01*
X132201769Y-59760631D01*
X132201768Y-59760634D01*
X132183056Y-59938671D01*
X132156043Y-60004327D01*
X132097821Y-60044957D01*
X132057746Y-60051500D01*
X131984513Y-60051500D01*
X131978061Y-60052872D01*
X131978056Y-60052872D01*
X131891112Y-60071353D01*
X131797712Y-60091206D01*
X131791682Y-60093891D01*
X131791681Y-60093891D01*
X131629278Y-60166197D01*
X131629276Y-60166198D01*
X131623248Y-60168882D01*
X131617907Y-60172762D01*
X131617906Y-60172763D01*
X131603471Y-60183251D01*
X131468747Y-60281134D01*
X131464326Y-60286044D01*
X131464325Y-60286045D01*
X131366765Y-60394397D01*
X131340960Y-60423056D01*
X131245473Y-60588444D01*
X131186458Y-60770072D01*
X131185768Y-60776633D01*
X131185768Y-60776635D01*
X131183938Y-60794045D01*
X131166496Y-60960000D01*
X131186458Y-61149928D01*
X131245473Y-61331556D01*
X131254620Y-61347398D01*
X131271500Y-61410397D01*
X131271500Y-81915533D01*
X131251498Y-81983654D01*
X131197842Y-82030147D01*
X131127568Y-82040251D01*
X131062988Y-82010757D01*
X131049562Y-81996431D01*
X131049190Y-81996746D01*
X130817403Y-81723432D01*
X130557454Y-81476750D01*
X130272384Y-81259585D01*
X130269472Y-81257828D01*
X130269467Y-81257825D01*
X129968443Y-81076236D01*
X129968437Y-81076233D01*
X129965528Y-81074478D01*
X129640475Y-80923593D01*
X129470751Y-80866145D01*
X129304255Y-80809789D01*
X129304250Y-80809788D01*
X129301028Y-80808697D01*
X129102681Y-80764724D01*
X128954493Y-80731871D01*
X128954487Y-80731870D01*
X128951158Y-80731132D01*
X128947769Y-80730758D01*
X128947764Y-80730757D01*
X128598338Y-80692180D01*
X128598333Y-80692180D01*
X128594957Y-80691807D01*
X128591558Y-80691801D01*
X128591557Y-80691801D01*
X128422080Y-80691505D01*
X128236592Y-80691182D01*
X128123413Y-80703277D01*
X127883639Y-80728901D01*
X127883631Y-80728902D01*
X127880256Y-80729263D01*
X127530117Y-80805606D01*
X127190271Y-80919317D01*
X127187178Y-80920739D01*
X127187177Y-80920740D01*
X127180974Y-80923593D01*
X126864694Y-81069066D01*
X126557193Y-81253101D01*
X126554467Y-81255163D01*
X126554465Y-81255164D01*
X126548620Y-81259585D01*
X126271367Y-81469270D01*
X126010559Y-81715043D01*
X125777819Y-81987546D01*
X125775900Y-81990358D01*
X125775897Y-81990363D01*
X125741866Y-82040251D01*
X125575871Y-82283591D01*
X125407077Y-82599714D01*
X125273411Y-82932218D01*
X125272491Y-82935492D01*
X125272489Y-82935497D01*
X125269282Y-82946909D01*
X125176437Y-83277213D01*
X125117290Y-83630663D01*
X125096661Y-83988434D01*
X125114792Y-84346340D01*
X125115329Y-84349695D01*
X125115330Y-84349701D01*
X125120316Y-84380828D01*
X125171470Y-84700195D01*
X125266033Y-85045859D01*
X125397374Y-85379288D01*
X125563957Y-85696582D01*
X125565858Y-85699411D01*
X125565864Y-85699421D01*
X125730500Y-85944423D01*
X125763834Y-85994029D01*
X125994665Y-86268150D01*
X126253751Y-86515738D01*
X126538061Y-86733897D01*
X126570056Y-86753350D01*
X126841355Y-86918303D01*
X126841360Y-86918306D01*
X126844270Y-86920075D01*
X126847358Y-86921521D01*
X126847357Y-86921521D01*
X127165710Y-87070649D01*
X127165720Y-87070653D01*
X127168794Y-87072093D01*
X127172012Y-87073195D01*
X127172015Y-87073196D01*
X127504615Y-87187071D01*
X127504623Y-87187073D01*
X127507838Y-87188174D01*
X127857435Y-87266959D01*
X127909728Y-87272917D01*
X128210114Y-87307142D01*
X128210122Y-87307142D01*
X128213497Y-87307527D01*
X128216901Y-87307545D01*
X128216904Y-87307545D01*
X128411227Y-87308562D01*
X128571857Y-87309403D01*
X128575243Y-87309053D01*
X128575245Y-87309053D01*
X128924932Y-87272917D01*
X128924941Y-87272916D01*
X128928324Y-87272566D01*
X128931657Y-87271852D01*
X128931660Y-87271851D01*
X129104186Y-87234864D01*
X129278727Y-87197446D01*
X129618968Y-87084922D01*
X129945066Y-86936311D01*
X130039052Y-86880506D01*
X130250262Y-86755099D01*
X130250267Y-86755096D01*
X130253207Y-86753350D01*
X130539786Y-86538180D01*
X130801451Y-86293319D01*
X131035140Y-86021630D01*
X131041659Y-86012145D01*
X131096726Y-85967333D01*
X131167279Y-85959407D01*
X131230917Y-85990882D01*
X131267436Y-86051767D01*
X131271500Y-86083510D01*
X131271500Y-106162786D01*
X131271493Y-106164106D01*
X131270549Y-106254221D01*
X131279711Y-106296597D01*
X131281769Y-106309163D01*
X131286603Y-106352255D01*
X131288919Y-106358906D01*
X131288920Y-106358910D01*
X131297633Y-106383930D01*
X131301796Y-106398742D01*
X131308881Y-106431510D01*
X131327208Y-106470813D01*
X131331990Y-106482589D01*
X131346255Y-106523552D01*
X131349989Y-106529527D01*
X131349990Y-106529530D01*
X131364027Y-106551995D01*
X131371366Y-106565512D01*
X131382559Y-106589514D01*
X131385538Y-106595902D01*
X131389855Y-106601467D01*
X131389856Y-106601469D01*
X131412106Y-106630153D01*
X131419402Y-106640612D01*
X131427828Y-106654096D01*
X131442374Y-106677376D01*
X131447334Y-106682371D01*
X131447335Y-106682372D01*
X131470976Y-106706179D01*
X131471561Y-106706804D01*
X131472078Y-106707470D01*
X131498068Y-106733460D01*
X131570185Y-106806082D01*
X131571222Y-106806740D01*
X131572451Y-106807843D01*
X133740622Y-108976014D01*
X133774648Y-109038326D01*
X133776814Y-109078495D01*
X133765251Y-109186695D01*
X133778110Y-109409715D01*
X133779247Y-109414761D01*
X133779248Y-109414767D01*
X133800275Y-109508069D01*
X133827222Y-109627639D01*
X133911266Y-109834616D01*
X133913965Y-109839020D01*
X134020415Y-110012731D01*
X134027987Y-110025088D01*
X134174250Y-110193938D01*
X134346126Y-110336632D01*
X134539000Y-110449338D01*
X134747692Y-110529030D01*
X134752760Y-110530061D01*
X134752763Y-110530062D01*
X134839639Y-110547737D01*
X134966597Y-110573567D01*
X134971772Y-110573757D01*
X134971774Y-110573757D01*
X135184673Y-110581564D01*
X135184677Y-110581564D01*
X135189837Y-110581753D01*
X135194957Y-110581097D01*
X135194959Y-110581097D01*
X135406288Y-110554025D01*
X135406289Y-110554025D01*
X135411416Y-110553368D01*
X135467543Y-110536529D01*
X135620429Y-110490661D01*
X135620434Y-110490659D01*
X135625384Y-110489174D01*
X135825994Y-110390896D01*
X136007860Y-110261173D01*
X136166096Y-110103489D01*
X136222433Y-110025088D01*
X136263177Y-109968386D01*
X136319172Y-109924738D01*
X136389875Y-109918292D01*
X136452840Y-109951095D01*
X136488074Y-110012731D01*
X136491500Y-110041912D01*
X136491500Y-127544358D01*
X136471498Y-127612479D01*
X136417842Y-127658972D01*
X136347568Y-127669076D01*
X136282988Y-127639582D01*
X136254146Y-127603317D01*
X136091702Y-127296513D01*
X136091698Y-127296506D01*
X136090103Y-127293494D01*
X135889190Y-126996746D01*
X135657403Y-126723432D01*
X135397454Y-126476750D01*
X135112384Y-126259585D01*
X135109472Y-126257828D01*
X135109467Y-126257825D01*
X134808443Y-126076236D01*
X134808437Y-126076233D01*
X134805528Y-126074478D01*
X134480475Y-125923593D01*
X134310751Y-125866145D01*
X134144255Y-125809789D01*
X134144250Y-125809788D01*
X134141028Y-125808697D01*
X133942681Y-125764724D01*
X133794493Y-125731871D01*
X133794487Y-125731870D01*
X133791158Y-125731132D01*
X133787769Y-125730758D01*
X133787764Y-125730757D01*
X133438338Y-125692180D01*
X133438333Y-125692180D01*
X133434957Y-125691807D01*
X133431558Y-125691801D01*
X133431557Y-125691801D01*
X133262080Y-125691505D01*
X133076592Y-125691182D01*
X132963413Y-125703277D01*
X132723639Y-125728901D01*
X132723631Y-125728902D01*
X132720256Y-125729263D01*
X132370117Y-125805606D01*
X132030271Y-125919317D01*
X132027178Y-125920739D01*
X132027177Y-125920740D01*
X132020974Y-125923593D01*
X131704694Y-126069066D01*
X131397193Y-126253101D01*
X131394467Y-126255163D01*
X131394465Y-126255164D01*
X131388620Y-126259585D01*
X131111367Y-126469270D01*
X130850559Y-126715043D01*
X130617819Y-126987546D01*
X130615900Y-126990358D01*
X130615897Y-126990363D01*
X130522624Y-127127097D01*
X130415871Y-127283591D01*
X130247077Y-127599714D01*
X130113411Y-127932218D01*
X130112491Y-127935492D01*
X130112489Y-127935497D01*
X130110332Y-127943173D01*
X130016437Y-128277213D01*
X129957290Y-128630663D01*
X129936661Y-128988434D01*
X129954792Y-129346340D01*
X130011470Y-129700195D01*
X130106033Y-130045859D01*
X130237374Y-130379288D01*
X130403957Y-130696582D01*
X130405858Y-130699411D01*
X130405864Y-130699421D01*
X130589569Y-130972800D01*
X130603834Y-130994029D01*
X130834665Y-131268150D01*
X131093751Y-131515738D01*
X131378061Y-131733897D01*
X131380974Y-131735668D01*
X131380984Y-131735675D01*
X131404280Y-131749839D01*
X131452095Y-131802320D01*
X131463945Y-131872320D01*
X131436070Y-131937616D01*
X131377318Y-131977475D01*
X131338820Y-131983500D01*
X127380500Y-131983500D01*
X127312379Y-131963498D01*
X127265886Y-131909842D01*
X127254500Y-131857500D01*
X127254500Y-111006623D01*
X127254502Y-111005853D01*
X127254921Y-110937254D01*
X127254976Y-110928279D01*
X127246850Y-110899847D01*
X127243272Y-110883085D01*
X127240352Y-110862698D01*
X127239080Y-110853813D01*
X127228451Y-110830436D01*
X127222004Y-110812913D01*
X127217416Y-110796862D01*
X127214949Y-110788229D01*
X127210156Y-110780632D01*
X127199170Y-110763220D01*
X127191030Y-110748135D01*
X127178792Y-110721218D01*
X127162030Y-110701765D01*
X127150927Y-110686761D01*
X127137224Y-110665042D01*
X127130499Y-110659103D01*
X127130496Y-110659099D01*
X127115062Y-110645468D01*
X127103018Y-110633276D01*
X127089573Y-110617673D01*
X127089570Y-110617671D01*
X127083713Y-110610873D01*
X127062165Y-110596906D01*
X127047291Y-110585615D01*
X127034783Y-110574569D01*
X127034782Y-110574568D01*
X127028049Y-110568622D01*
X127001287Y-110556057D01*
X126986309Y-110547737D01*
X126969017Y-110536529D01*
X126969012Y-110536527D01*
X126961485Y-110531648D01*
X126952892Y-110529078D01*
X126952887Y-110529076D01*
X126936880Y-110524289D01*
X126919436Y-110517628D01*
X126904324Y-110510533D01*
X126904322Y-110510532D01*
X126896200Y-110506719D01*
X126887333Y-110505338D01*
X126887332Y-110505338D01*
X126877690Y-110503837D01*
X126866983Y-110502170D01*
X126850268Y-110498387D01*
X126830534Y-110492485D01*
X126830528Y-110492484D01*
X126821934Y-110489914D01*
X126812963Y-110489859D01*
X126812962Y-110489859D01*
X126802903Y-110489798D01*
X126787494Y-110489704D01*
X126786711Y-110489671D01*
X126785614Y-110489500D01*
X126754623Y-110489500D01*
X126753853Y-110489498D01*
X126680215Y-110489048D01*
X126680214Y-110489048D01*
X126676279Y-110489024D01*
X126674935Y-110489408D01*
X126673590Y-110489500D01*
X76580500Y-110489500D01*
X76512379Y-110469498D01*
X76465886Y-110415842D01*
X76454500Y-110363500D01*
X76454500Y-106805669D01*
X77376001Y-106805669D01*
X77376371Y-106812490D01*
X77381895Y-106863352D01*
X77385521Y-106878604D01*
X77430676Y-106999054D01*
X77439214Y-107014649D01*
X77515715Y-107116724D01*
X77528276Y-107129285D01*
X77630351Y-107205786D01*
X77645946Y-107214324D01*
X77766394Y-107259478D01*
X77781649Y-107263105D01*
X77832514Y-107268631D01*
X77839328Y-107269000D01*
X78911885Y-107269000D01*
X78927124Y-107264525D01*
X78928329Y-107263135D01*
X78930000Y-107255452D01*
X78930000Y-107250884D01*
X79438000Y-107250884D01*
X79442475Y-107266123D01*
X79443865Y-107267328D01*
X79451548Y-107268999D01*
X80528669Y-107268999D01*
X80535490Y-107268629D01*
X80586352Y-107263105D01*
X80601604Y-107259479D01*
X80722054Y-107214324D01*
X80737649Y-107205786D01*
X80839724Y-107129285D01*
X80852285Y-107116724D01*
X80928786Y-107014649D01*
X80937324Y-106999054D01*
X80982478Y-106878606D01*
X80986105Y-106863351D01*
X80991631Y-106812486D01*
X80992000Y-106805672D01*
X80992000Y-105733115D01*
X80987525Y-105717876D01*
X80986135Y-105716671D01*
X80978452Y-105715000D01*
X79456115Y-105715000D01*
X79440876Y-105719475D01*
X79439671Y-105720865D01*
X79438000Y-105728548D01*
X79438000Y-107250884D01*
X78930000Y-107250884D01*
X78930000Y-105733115D01*
X78925525Y-105717876D01*
X78924135Y-105716671D01*
X78916452Y-105715000D01*
X77394116Y-105715000D01*
X77378877Y-105719475D01*
X77377672Y-105720865D01*
X77376001Y-105728548D01*
X77376001Y-106805669D01*
X76454500Y-106805669D01*
X76454500Y-105188885D01*
X77376000Y-105188885D01*
X77380475Y-105204124D01*
X77381865Y-105205329D01*
X77389548Y-105207000D01*
X78911885Y-105207000D01*
X78927124Y-105202525D01*
X78928329Y-105201135D01*
X78930000Y-105193452D01*
X78930000Y-105188885D01*
X79438000Y-105188885D01*
X79442475Y-105204124D01*
X79443865Y-105205329D01*
X79451548Y-105207000D01*
X80973884Y-105207000D01*
X80989123Y-105202525D01*
X80990328Y-105201135D01*
X80991999Y-105193452D01*
X80991999Y-104116331D01*
X80991629Y-104109510D01*
X80986105Y-104058648D01*
X80982479Y-104043396D01*
X80937324Y-103922946D01*
X80928786Y-103907351D01*
X80852285Y-103805276D01*
X80839724Y-103792715D01*
X80737649Y-103716214D01*
X80722054Y-103707676D01*
X80601606Y-103662522D01*
X80586351Y-103658895D01*
X80535486Y-103653369D01*
X80528672Y-103653000D01*
X79456115Y-103653000D01*
X79440876Y-103657475D01*
X79439671Y-103658865D01*
X79438000Y-103666548D01*
X79438000Y-105188885D01*
X78930000Y-105188885D01*
X78930000Y-103671116D01*
X78925525Y-103655877D01*
X78924135Y-103654672D01*
X78916452Y-103653001D01*
X77839331Y-103653001D01*
X77832510Y-103653371D01*
X77781648Y-103658895D01*
X77766396Y-103662521D01*
X77645946Y-103707676D01*
X77630351Y-103716214D01*
X77528276Y-103792715D01*
X77515715Y-103805276D01*
X77439214Y-103907351D01*
X77430676Y-103922946D01*
X77385522Y-104043394D01*
X77381895Y-104058649D01*
X77376369Y-104109514D01*
X77376000Y-104116328D01*
X77376000Y-105188885D01*
X76454500Y-105188885D01*
X76454500Y-84185853D01*
X76474502Y-84117732D01*
X76528158Y-84071239D01*
X76598432Y-84061135D01*
X76663012Y-84090629D01*
X76701396Y-84150355D01*
X76706339Y-84179478D01*
X76714792Y-84346340D01*
X76715329Y-84349695D01*
X76715330Y-84349701D01*
X76720316Y-84380828D01*
X76771470Y-84700195D01*
X76866033Y-85045859D01*
X76997374Y-85379288D01*
X77163957Y-85696582D01*
X77165858Y-85699411D01*
X77165864Y-85699421D01*
X77330500Y-85944423D01*
X77363834Y-85994029D01*
X77594665Y-86268150D01*
X77853751Y-86515738D01*
X78138061Y-86733897D01*
X78170056Y-86753350D01*
X78441355Y-86918303D01*
X78441360Y-86918306D01*
X78444270Y-86920075D01*
X78447358Y-86921521D01*
X78447357Y-86921521D01*
X78765710Y-87070649D01*
X78765720Y-87070653D01*
X78768794Y-87072093D01*
X78772012Y-87073195D01*
X78772015Y-87073196D01*
X79104615Y-87187071D01*
X79104623Y-87187073D01*
X79107838Y-87188174D01*
X79457435Y-87266959D01*
X79509728Y-87272917D01*
X79810114Y-87307142D01*
X79810122Y-87307142D01*
X79813497Y-87307527D01*
X79816901Y-87307545D01*
X79816904Y-87307545D01*
X80011227Y-87308562D01*
X80171857Y-87309403D01*
X80175243Y-87309053D01*
X80175245Y-87309053D01*
X80524932Y-87272917D01*
X80524941Y-87272916D01*
X80528324Y-87272566D01*
X80531657Y-87271852D01*
X80531660Y-87271851D01*
X80704186Y-87234864D01*
X80878727Y-87197446D01*
X81218968Y-87084922D01*
X81545066Y-86936311D01*
X81639052Y-86880506D01*
X81850262Y-86755099D01*
X81850267Y-86755096D01*
X81853207Y-86753350D01*
X82139786Y-86538180D01*
X82401451Y-86293319D01*
X82635140Y-86021630D01*
X82741750Y-85866512D01*
X82836190Y-85729101D01*
X82836195Y-85729094D01*
X82838120Y-85726292D01*
X82839732Y-85723298D01*
X82839737Y-85723290D01*
X83006395Y-85413772D01*
X83008017Y-85410760D01*
X83132757Y-85103561D01*
X83176918Y-85047970D01*
X83244124Y-85025080D01*
X83313036Y-85042157D01*
X83361776Y-85093780D01*
X83375500Y-85150965D01*
X83375500Y-103761781D01*
X83355498Y-103829902D01*
X83310588Y-103871982D01*
X83309008Y-103872858D01*
X83304763Y-103874815D01*
X83300854Y-103877378D01*
X83083881Y-104019631D01*
X83083876Y-104019635D01*
X83079968Y-104022197D01*
X82879426Y-104201188D01*
X82707544Y-104407854D01*
X82568096Y-104637656D01*
X82566287Y-104641970D01*
X82566285Y-104641974D01*
X82550240Y-104680238D01*
X82464148Y-104885545D01*
X82397981Y-105146077D01*
X82371050Y-105413526D01*
X82371274Y-105418192D01*
X82371274Y-105418197D01*
X82373828Y-105471364D01*
X82383947Y-105682019D01*
X82436388Y-105945656D01*
X82527220Y-106198646D01*
X82529432Y-106202762D01*
X82529433Y-106202765D01*
X82619785Y-106370917D01*
X82654450Y-106435431D01*
X82657241Y-106439168D01*
X82657245Y-106439175D01*
X82733405Y-106541165D01*
X82815281Y-106650810D01*
X82818590Y-106654090D01*
X82818595Y-106654096D01*
X83002863Y-106836762D01*
X83006180Y-106840050D01*
X83009942Y-106842808D01*
X83009945Y-106842811D01*
X83121737Y-106924780D01*
X83222954Y-106998995D01*
X83227089Y-107001171D01*
X83227093Y-107001173D01*
X83456698Y-107121975D01*
X83460840Y-107124154D01*
X83714613Y-107212775D01*
X83719206Y-107213647D01*
X83974109Y-107262042D01*
X83974112Y-107262042D01*
X83978698Y-107262913D01*
X84106370Y-107267929D01*
X84242625Y-107273283D01*
X84242630Y-107273283D01*
X84247293Y-107273466D01*
X84351607Y-107262042D01*
X84509844Y-107244713D01*
X84509850Y-107244712D01*
X84514497Y-107244203D01*
X84519021Y-107243012D01*
X84769918Y-107176956D01*
X84769920Y-107176955D01*
X84774441Y-107175765D01*
X84882626Y-107129285D01*
X85017120Y-107071502D01*
X85017122Y-107071501D01*
X85021414Y-107069657D01*
X85185579Y-106968069D01*
X85246017Y-106930669D01*
X85246021Y-106930666D01*
X85249990Y-106928210D01*
X85455149Y-106754530D01*
X85632382Y-106552434D01*
X85639631Y-106541165D01*
X85775269Y-106330291D01*
X85777797Y-106326361D01*
X85888199Y-106081278D01*
X85925247Y-105949917D01*
X85959893Y-105827072D01*
X85959894Y-105827069D01*
X85961163Y-105822568D01*
X85979320Y-105679848D01*
X85994688Y-105559045D01*
X85994688Y-105559041D01*
X85995086Y-105555915D01*
X85995170Y-105552733D01*
X85996477Y-105502779D01*
X85997571Y-105461000D01*
X85994043Y-105413526D01*
X85977996Y-105197592D01*
X85977996Y-105197591D01*
X85977650Y-105192937D01*
X85976619Y-105188379D01*
X85919361Y-104935331D01*
X85919360Y-104935326D01*
X85918327Y-104930763D01*
X85820902Y-104680238D01*
X85687518Y-104446864D01*
X85672702Y-104428069D01*
X85621416Y-104363014D01*
X85521105Y-104235769D01*
X85325317Y-104051591D01*
X85139527Y-103922703D01*
X85108299Y-103901039D01*
X85108296Y-103901037D01*
X85104457Y-103898374D01*
X85062770Y-103877817D01*
X85010522Y-103829748D01*
X84992500Y-103764811D01*
X84992500Y-103388388D01*
X86108676Y-103388388D01*
X86109213Y-103394523D01*
X86113050Y-103438388D01*
X86113379Y-103443214D01*
X86113500Y-103445686D01*
X86113500Y-103448769D01*
X86113801Y-103451837D01*
X86117690Y-103491506D01*
X86117812Y-103492819D01*
X86120759Y-103526500D01*
X86125913Y-103585413D01*
X86127400Y-103590532D01*
X86127920Y-103595833D01*
X86154791Y-103684834D01*
X86155126Y-103685967D01*
X86178003Y-103764707D01*
X86181091Y-103775336D01*
X86183544Y-103780068D01*
X86185084Y-103785169D01*
X86187978Y-103790612D01*
X86228731Y-103867260D01*
X86229343Y-103868426D01*
X86253120Y-103914295D01*
X86272108Y-103950926D01*
X86275431Y-103955089D01*
X86277934Y-103959796D01*
X86336755Y-104031918D01*
X86337446Y-104032774D01*
X86368738Y-104071973D01*
X86371242Y-104074477D01*
X86371884Y-104075195D01*
X86375585Y-104079528D01*
X86402935Y-104113062D01*
X86438267Y-104142291D01*
X86447037Y-104150272D01*
X87359827Y-105063061D01*
X87393852Y-105125374D01*
X87396098Y-105164778D01*
X87371050Y-105413526D01*
X87371274Y-105418192D01*
X87371274Y-105418197D01*
X87373828Y-105471364D01*
X87383947Y-105682019D01*
X87436388Y-105945656D01*
X87527220Y-106198646D01*
X87529432Y-106202762D01*
X87529433Y-106202765D01*
X87619785Y-106370917D01*
X87654450Y-106435431D01*
X87657241Y-106439168D01*
X87657245Y-106439175D01*
X87733405Y-106541165D01*
X87815281Y-106650810D01*
X87818590Y-106654090D01*
X87818595Y-106654096D01*
X88002863Y-106836762D01*
X88006180Y-106840050D01*
X88009942Y-106842808D01*
X88009945Y-106842811D01*
X88121737Y-106924780D01*
X88222954Y-106998995D01*
X88227089Y-107001171D01*
X88227093Y-107001173D01*
X88456698Y-107121975D01*
X88460840Y-107124154D01*
X88714613Y-107212775D01*
X88719206Y-107213647D01*
X88974109Y-107262042D01*
X88974112Y-107262042D01*
X88978698Y-107262913D01*
X89106370Y-107267929D01*
X89242625Y-107273283D01*
X89242630Y-107273283D01*
X89247293Y-107273466D01*
X89351607Y-107262042D01*
X89509844Y-107244713D01*
X89509850Y-107244712D01*
X89514497Y-107244203D01*
X89519021Y-107243012D01*
X89769918Y-107176956D01*
X89769920Y-107176955D01*
X89774441Y-107175765D01*
X89882626Y-107129285D01*
X90017120Y-107071502D01*
X90017122Y-107071501D01*
X90021414Y-107069657D01*
X90185579Y-106968069D01*
X90246017Y-106930669D01*
X90246021Y-106930666D01*
X90249990Y-106928210D01*
X90390648Y-106809134D01*
X94555500Y-106809134D01*
X94562255Y-106871316D01*
X94613385Y-107007705D01*
X94700739Y-107124261D01*
X94817295Y-107211615D01*
X94953684Y-107262745D01*
X95015866Y-107269500D01*
X97712134Y-107269500D01*
X97774316Y-107262745D01*
X97910705Y-107211615D01*
X98027261Y-107124261D01*
X98114615Y-107007705D01*
X98152778Y-106905906D01*
X100283839Y-106905906D01*
X100292553Y-106917427D01*
X100399452Y-106995809D01*
X100407351Y-107000745D01*
X100636905Y-107121519D01*
X100645454Y-107125236D01*
X100890327Y-107210749D01*
X100899336Y-107213163D01*
X101154166Y-107261544D01*
X101163423Y-107262598D01*
X101422607Y-107272783D01*
X101431921Y-107272457D01*
X101689753Y-107244220D01*
X101698930Y-107242519D01*
X101949758Y-107176481D01*
X101958574Y-107173445D01*
X102196880Y-107071062D01*
X102205167Y-107066748D01*
X102425718Y-106930266D01*
X102433268Y-106924780D01*
X102438559Y-106920301D01*
X102446997Y-106907497D01*
X102440935Y-106897145D01*
X101376812Y-105833022D01*
X101362868Y-105825408D01*
X101361035Y-105825539D01*
X101354420Y-105829790D01*
X100290497Y-106893713D01*
X100283839Y-106905906D01*
X98152778Y-106905906D01*
X98165745Y-106871316D01*
X98172500Y-106809134D01*
X98172500Y-105418211D01*
X99551775Y-105418211D01*
X99564220Y-105677288D01*
X99565356Y-105686543D01*
X99615961Y-105940945D01*
X99618449Y-105949917D01*
X99706095Y-106194033D01*
X99709895Y-106202568D01*
X99832658Y-106431042D01*
X99837666Y-106438904D01*
X99907720Y-106532716D01*
X99918979Y-106541165D01*
X99931397Y-106534393D01*
X100991978Y-105473812D01*
X100998356Y-105462132D01*
X101728408Y-105462132D01*
X101728539Y-105463965D01*
X101732790Y-105470580D01*
X102800094Y-106537884D01*
X102812474Y-106544644D01*
X102820815Y-106538400D01*
X102954832Y-106330048D01*
X102959275Y-106321864D01*
X103065807Y-106085370D01*
X103068997Y-106076605D01*
X103139402Y-105826972D01*
X103141262Y-105817830D01*
X103174187Y-105559019D01*
X103174668Y-105552733D01*
X103176987Y-105464160D01*
X103176836Y-105457851D01*
X103173542Y-105413526D01*
X104551050Y-105413526D01*
X104551274Y-105418192D01*
X104551274Y-105418197D01*
X104553828Y-105471364D01*
X104563947Y-105682019D01*
X104616388Y-105945656D01*
X104707220Y-106198646D01*
X104709432Y-106202762D01*
X104709433Y-106202765D01*
X104799785Y-106370917D01*
X104834450Y-106435431D01*
X104837241Y-106439168D01*
X104837245Y-106439175D01*
X104913405Y-106541165D01*
X104995281Y-106650810D01*
X104998590Y-106654090D01*
X104998595Y-106654096D01*
X105182863Y-106836762D01*
X105186180Y-106840050D01*
X105189942Y-106842808D01*
X105189945Y-106842811D01*
X105301737Y-106924780D01*
X105402954Y-106998995D01*
X105407089Y-107001171D01*
X105407093Y-107001173D01*
X105636698Y-107121975D01*
X105640840Y-107124154D01*
X105894613Y-107212775D01*
X105899206Y-107213647D01*
X106154109Y-107262042D01*
X106154112Y-107262042D01*
X106158698Y-107262913D01*
X106286370Y-107267929D01*
X106422625Y-107273283D01*
X106422630Y-107273283D01*
X106427293Y-107273466D01*
X106531607Y-107262042D01*
X106689844Y-107244713D01*
X106689850Y-107244712D01*
X106694497Y-107244203D01*
X106699021Y-107243012D01*
X106949918Y-107176956D01*
X106949920Y-107176955D01*
X106954441Y-107175765D01*
X107062626Y-107129285D01*
X107197120Y-107071502D01*
X107197122Y-107071501D01*
X107201414Y-107069657D01*
X107365579Y-106968069D01*
X107426017Y-106930669D01*
X107426021Y-106930666D01*
X107429990Y-106928210D01*
X107570648Y-106809134D01*
X111555500Y-106809134D01*
X111562255Y-106871316D01*
X111613385Y-107007705D01*
X111700739Y-107124261D01*
X111817295Y-107211615D01*
X111953684Y-107262745D01*
X112015866Y-107269500D01*
X114712134Y-107269500D01*
X114774316Y-107262745D01*
X114910705Y-107211615D01*
X115027261Y-107124261D01*
X115114615Y-107007705D01*
X115152778Y-106905906D01*
X117283839Y-106905906D01*
X117292553Y-106917427D01*
X117399452Y-106995809D01*
X117407351Y-107000745D01*
X117636905Y-107121519D01*
X117645454Y-107125236D01*
X117890327Y-107210749D01*
X117899336Y-107213163D01*
X118154166Y-107261544D01*
X118163423Y-107262598D01*
X118422607Y-107272783D01*
X118431921Y-107272457D01*
X118689753Y-107244220D01*
X118698930Y-107242519D01*
X118949758Y-107176481D01*
X118958574Y-107173445D01*
X119196880Y-107071062D01*
X119205167Y-107066748D01*
X119425718Y-106930266D01*
X119433268Y-106924780D01*
X119438559Y-106920301D01*
X119446997Y-106907497D01*
X119440935Y-106897145D01*
X118376812Y-105833022D01*
X118362868Y-105825408D01*
X118361035Y-105825539D01*
X118354420Y-105829790D01*
X117290497Y-106893713D01*
X117283839Y-106905906D01*
X115152778Y-106905906D01*
X115165745Y-106871316D01*
X115172500Y-106809134D01*
X115172500Y-105418211D01*
X116551775Y-105418211D01*
X116564220Y-105677288D01*
X116565356Y-105686543D01*
X116615961Y-105940945D01*
X116618449Y-105949917D01*
X116706095Y-106194033D01*
X116709895Y-106202568D01*
X116832658Y-106431042D01*
X116837666Y-106438904D01*
X116907720Y-106532716D01*
X116918979Y-106541165D01*
X116931397Y-106534393D01*
X117991978Y-105473812D01*
X117998356Y-105462132D01*
X118728408Y-105462132D01*
X118728539Y-105463965D01*
X118732790Y-105470580D01*
X119800094Y-106537884D01*
X119812474Y-106544644D01*
X119820815Y-106538400D01*
X119954832Y-106330048D01*
X119959275Y-106321864D01*
X120065807Y-106085370D01*
X120068997Y-106076605D01*
X120139402Y-105826972D01*
X120141262Y-105817830D01*
X120174187Y-105559019D01*
X120174668Y-105552733D01*
X120176987Y-105464160D01*
X120176836Y-105457851D01*
X120173542Y-105413526D01*
X121551050Y-105413526D01*
X121551274Y-105418192D01*
X121551274Y-105418197D01*
X121553828Y-105471364D01*
X121563947Y-105682019D01*
X121616388Y-105945656D01*
X121707220Y-106198646D01*
X121709432Y-106202762D01*
X121709433Y-106202765D01*
X121799785Y-106370917D01*
X121834450Y-106435431D01*
X121837241Y-106439168D01*
X121837245Y-106439175D01*
X121913405Y-106541165D01*
X121995281Y-106650810D01*
X121998590Y-106654090D01*
X121998595Y-106654096D01*
X122182863Y-106836762D01*
X122186180Y-106840050D01*
X122189942Y-106842808D01*
X122189945Y-106842811D01*
X122301737Y-106924780D01*
X122402954Y-106998995D01*
X122407089Y-107001171D01*
X122407093Y-107001173D01*
X122636698Y-107121975D01*
X122640840Y-107124154D01*
X122894613Y-107212775D01*
X122899206Y-107213647D01*
X123154109Y-107262042D01*
X123154112Y-107262042D01*
X123158698Y-107262913D01*
X123286370Y-107267929D01*
X123422625Y-107273283D01*
X123422630Y-107273283D01*
X123427293Y-107273466D01*
X123531607Y-107262042D01*
X123689844Y-107244713D01*
X123689850Y-107244712D01*
X123694497Y-107244203D01*
X123699021Y-107243012D01*
X123949918Y-107176956D01*
X123949920Y-107176955D01*
X123954441Y-107175765D01*
X124062626Y-107129285D01*
X124197120Y-107071502D01*
X124197122Y-107071501D01*
X124201414Y-107069657D01*
X124365579Y-106968069D01*
X124426017Y-106930669D01*
X124426021Y-106930666D01*
X124429990Y-106928210D01*
X124635149Y-106754530D01*
X124812382Y-106552434D01*
X124819631Y-106541165D01*
X124955269Y-106330291D01*
X124957797Y-106326361D01*
X125068199Y-106081278D01*
X125105247Y-105949917D01*
X125139893Y-105827072D01*
X125139894Y-105827069D01*
X125141163Y-105822568D01*
X125159320Y-105679848D01*
X125174688Y-105559045D01*
X125174688Y-105559041D01*
X125175086Y-105555915D01*
X125175170Y-105552733D01*
X125176477Y-105502779D01*
X125177571Y-105461000D01*
X125174043Y-105413526D01*
X125157996Y-105197592D01*
X125157996Y-105197591D01*
X125157650Y-105192937D01*
X125156619Y-105188379D01*
X125099361Y-104935331D01*
X125099360Y-104935326D01*
X125098327Y-104930763D01*
X125000902Y-104680238D01*
X124867518Y-104446864D01*
X124852702Y-104428069D01*
X124801416Y-104363014D01*
X124701105Y-104235769D01*
X124505317Y-104051591D01*
X124319527Y-103922703D01*
X124288299Y-103901039D01*
X124288296Y-103901037D01*
X124284457Y-103898374D01*
X124242770Y-103877816D01*
X124047564Y-103781551D01*
X124047561Y-103781550D01*
X124043376Y-103779486D01*
X124030412Y-103775336D01*
X123941621Y-103746914D01*
X123787370Y-103697538D01*
X123782763Y-103696788D01*
X123782760Y-103696787D01*
X123569337Y-103662029D01*
X123522063Y-103654330D01*
X123391719Y-103652624D01*
X123257961Y-103650873D01*
X123257958Y-103650873D01*
X123253284Y-103650812D01*
X122986937Y-103687060D01*
X122982451Y-103688368D01*
X122982449Y-103688368D01*
X122940133Y-103700702D01*
X122728874Y-103762278D01*
X122724621Y-103764238D01*
X122724620Y-103764239D01*
X122691547Y-103779486D01*
X122484763Y-103874815D01*
X122480854Y-103877378D01*
X122263881Y-104019631D01*
X122263876Y-104019635D01*
X122259968Y-104022197D01*
X122059426Y-104201188D01*
X121887544Y-104407854D01*
X121748096Y-104637656D01*
X121746287Y-104641970D01*
X121746285Y-104641974D01*
X121730240Y-104680238D01*
X121644148Y-104885545D01*
X121577981Y-105146077D01*
X121551050Y-105413526D01*
X120173542Y-105413526D01*
X120157501Y-105197663D01*
X120156125Y-105188457D01*
X120098878Y-104935467D01*
X120096154Y-104926556D01*
X120002143Y-104684806D01*
X119998132Y-104676397D01*
X119869422Y-104451202D01*
X119864211Y-104443476D01*
X119820996Y-104388658D01*
X119809071Y-104380187D01*
X119797537Y-104386673D01*
X118736022Y-105448188D01*
X118728408Y-105462132D01*
X117998356Y-105462132D01*
X117999592Y-105459868D01*
X117999461Y-105458035D01*
X117995210Y-105451420D01*
X116929816Y-104386026D01*
X116916507Y-104378758D01*
X116906472Y-104385878D01*
X116890937Y-104404556D01*
X116885531Y-104412135D01*
X116750965Y-104633891D01*
X116746736Y-104642192D01*
X116646432Y-104881389D01*
X116643471Y-104890239D01*
X116579628Y-105141625D01*
X116578006Y-105150822D01*
X116552020Y-105408885D01*
X116551775Y-105418211D01*
X115172500Y-105418211D01*
X115172500Y-104112866D01*
X115165745Y-104050684D01*
X115151876Y-104013689D01*
X117281102Y-104013689D01*
X117285675Y-104023465D01*
X118351188Y-105088978D01*
X118365132Y-105096592D01*
X118366965Y-105096461D01*
X118373580Y-105092210D01*
X119438349Y-104027441D01*
X119444733Y-104015751D01*
X119435321Y-104003641D01*
X119288045Y-103901471D01*
X119280010Y-103896738D01*
X119047376Y-103782016D01*
X119038743Y-103778528D01*
X118791703Y-103699450D01*
X118782643Y-103697274D01*
X118526630Y-103655580D01*
X118517343Y-103654768D01*
X118257992Y-103651373D01*
X118248681Y-103651943D01*
X117991682Y-103686919D01*
X117982546Y-103688860D01*
X117733543Y-103761439D01*
X117724800Y-103764707D01*
X117489252Y-103873296D01*
X117481097Y-103877816D01*
X117290240Y-104002947D01*
X117281102Y-104013689D01*
X115151876Y-104013689D01*
X115114615Y-103914295D01*
X115027261Y-103797739D01*
X114910705Y-103710385D01*
X114774316Y-103659255D01*
X114712134Y-103652500D01*
X112015866Y-103652500D01*
X111953684Y-103659255D01*
X111817295Y-103710385D01*
X111700739Y-103797739D01*
X111613385Y-103914295D01*
X111562255Y-104050684D01*
X111555500Y-104112866D01*
X111555500Y-106809134D01*
X107570648Y-106809134D01*
X107635149Y-106754530D01*
X107812382Y-106552434D01*
X107819631Y-106541165D01*
X107955269Y-106330291D01*
X107957797Y-106326361D01*
X108068199Y-106081278D01*
X108105247Y-105949917D01*
X108139893Y-105827072D01*
X108139894Y-105827069D01*
X108141163Y-105822568D01*
X108159320Y-105679848D01*
X108174688Y-105559045D01*
X108174688Y-105559041D01*
X108175086Y-105555915D01*
X108175170Y-105552733D01*
X108176477Y-105502779D01*
X108177571Y-105461000D01*
X108174043Y-105413526D01*
X108157996Y-105197592D01*
X108157996Y-105197591D01*
X108157650Y-105192937D01*
X108156619Y-105188379D01*
X108099361Y-104935331D01*
X108099360Y-104935326D01*
X108098327Y-104930763D01*
X108000902Y-104680238D01*
X107867518Y-104446864D01*
X107852702Y-104428069D01*
X107801416Y-104363014D01*
X107701105Y-104235769D01*
X107505317Y-104051591D01*
X107319527Y-103922703D01*
X107288299Y-103901039D01*
X107288296Y-103901037D01*
X107284457Y-103898374D01*
X107242770Y-103877816D01*
X107047564Y-103781551D01*
X107047561Y-103781550D01*
X107043376Y-103779486D01*
X107030412Y-103775336D01*
X106941621Y-103746914D01*
X106787370Y-103697538D01*
X106782763Y-103696788D01*
X106782760Y-103696787D01*
X106569337Y-103662029D01*
X106522063Y-103654330D01*
X106391719Y-103652624D01*
X106257961Y-103650873D01*
X106257958Y-103650873D01*
X106253284Y-103650812D01*
X105986937Y-103687060D01*
X105982451Y-103688368D01*
X105982449Y-103688368D01*
X105940133Y-103700702D01*
X105728874Y-103762278D01*
X105724621Y-103764238D01*
X105724620Y-103764239D01*
X105691547Y-103779486D01*
X105484763Y-103874815D01*
X105480854Y-103877378D01*
X105263881Y-104019631D01*
X105263876Y-104019635D01*
X105259968Y-104022197D01*
X105059426Y-104201188D01*
X104887544Y-104407854D01*
X104748096Y-104637656D01*
X104746287Y-104641970D01*
X104746285Y-104641974D01*
X104730240Y-104680238D01*
X104644148Y-104885545D01*
X104577981Y-105146077D01*
X104551050Y-105413526D01*
X103173542Y-105413526D01*
X103157501Y-105197663D01*
X103156125Y-105188457D01*
X103098878Y-104935467D01*
X103096154Y-104926556D01*
X103002143Y-104684806D01*
X102998132Y-104676397D01*
X102869422Y-104451202D01*
X102864211Y-104443476D01*
X102820996Y-104388658D01*
X102809071Y-104380187D01*
X102797537Y-104386673D01*
X101736022Y-105448188D01*
X101728408Y-105462132D01*
X100998356Y-105462132D01*
X100999592Y-105459868D01*
X100999461Y-105458035D01*
X100995210Y-105451420D01*
X99929816Y-104386026D01*
X99916507Y-104378758D01*
X99906472Y-104385878D01*
X99890937Y-104404556D01*
X99885531Y-104412135D01*
X99750965Y-104633891D01*
X99746736Y-104642192D01*
X99646432Y-104881389D01*
X99643471Y-104890239D01*
X99579628Y-105141625D01*
X99578006Y-105150822D01*
X99552020Y-105408885D01*
X99551775Y-105418211D01*
X98172500Y-105418211D01*
X98172500Y-104112866D01*
X98165745Y-104050684D01*
X98151876Y-104013689D01*
X100281102Y-104013689D01*
X100285675Y-104023465D01*
X101351188Y-105088978D01*
X101365132Y-105096592D01*
X101366965Y-105096461D01*
X101373580Y-105092210D01*
X102438349Y-104027441D01*
X102444733Y-104015751D01*
X102435321Y-104003641D01*
X102288045Y-103901471D01*
X102280010Y-103896738D01*
X102047376Y-103782016D01*
X102038743Y-103778528D01*
X101791703Y-103699450D01*
X101782643Y-103697274D01*
X101526630Y-103655580D01*
X101517343Y-103654768D01*
X101257992Y-103651373D01*
X101248681Y-103651943D01*
X100991682Y-103686919D01*
X100982546Y-103688860D01*
X100733543Y-103761439D01*
X100724800Y-103764707D01*
X100489252Y-103873296D01*
X100481097Y-103877816D01*
X100290240Y-104002947D01*
X100281102Y-104013689D01*
X98151876Y-104013689D01*
X98114615Y-103914295D01*
X98027261Y-103797739D01*
X97910705Y-103710385D01*
X97774316Y-103659255D01*
X97712134Y-103652500D01*
X97298500Y-103652500D01*
X97230379Y-103632498D01*
X97183886Y-103578842D01*
X97172500Y-103526500D01*
X97172500Y-92202000D01*
X107290496Y-92202000D01*
X107310458Y-92391928D01*
X107369473Y-92573556D01*
X107464960Y-92738944D01*
X107592747Y-92880866D01*
X107747248Y-92993118D01*
X107753276Y-92995802D01*
X107753278Y-92995803D01*
X107915681Y-93068109D01*
X107921712Y-93070794D01*
X108015113Y-93090647D01*
X108102056Y-93109128D01*
X108102061Y-93109128D01*
X108108513Y-93110500D01*
X108299487Y-93110500D01*
X108305939Y-93109128D01*
X108305944Y-93109128D01*
X108392888Y-93090647D01*
X108486288Y-93070794D01*
X108492319Y-93068109D01*
X108654722Y-92995803D01*
X108654724Y-92995802D01*
X108660752Y-92993118D01*
X108815253Y-92880866D01*
X108943040Y-92738944D01*
X109038527Y-92573556D01*
X109097542Y-92391928D01*
X109117504Y-92202000D01*
X109097542Y-92012072D01*
X109038527Y-91830444D01*
X109029380Y-91814602D01*
X109012500Y-91751603D01*
X109012500Y-85057178D01*
X109032502Y-84989057D01*
X109086158Y-84942564D01*
X109156432Y-84932460D01*
X109221012Y-84961954D01*
X109260034Y-85023930D01*
X109266033Y-85045859D01*
X109397374Y-85379288D01*
X109563957Y-85696582D01*
X109565858Y-85699411D01*
X109565864Y-85699421D01*
X109730500Y-85944423D01*
X109763834Y-85994029D01*
X109994665Y-86268150D01*
X110253751Y-86515738D01*
X110538061Y-86733897D01*
X110570056Y-86753350D01*
X110841355Y-86918303D01*
X110841360Y-86918306D01*
X110844270Y-86920075D01*
X110847358Y-86921521D01*
X110847357Y-86921521D01*
X111165710Y-87070649D01*
X111165720Y-87070653D01*
X111168794Y-87072093D01*
X111172012Y-87073195D01*
X111172015Y-87073196D01*
X111504615Y-87187071D01*
X111504623Y-87187073D01*
X111507838Y-87188174D01*
X111857435Y-87266959D01*
X111909728Y-87272917D01*
X112210114Y-87307142D01*
X112210122Y-87307142D01*
X112213497Y-87307527D01*
X112216901Y-87307545D01*
X112216904Y-87307545D01*
X112411227Y-87308562D01*
X112571857Y-87309403D01*
X112575243Y-87309053D01*
X112575245Y-87309053D01*
X112924932Y-87272917D01*
X112924941Y-87272916D01*
X112928324Y-87272566D01*
X112931657Y-87271852D01*
X112931660Y-87271851D01*
X113104186Y-87234864D01*
X113278727Y-87197446D01*
X113618968Y-87084922D01*
X113945066Y-86936311D01*
X114039052Y-86880506D01*
X114250262Y-86755099D01*
X114250267Y-86755096D01*
X114253207Y-86753350D01*
X114539786Y-86538180D01*
X114801451Y-86293319D01*
X115035140Y-86021630D01*
X115141750Y-85866512D01*
X115236190Y-85729101D01*
X115236195Y-85729094D01*
X115238120Y-85726292D01*
X115239732Y-85723298D01*
X115239737Y-85723290D01*
X115406395Y-85413772D01*
X115408017Y-85410760D01*
X115532757Y-85103561D01*
X115541562Y-85081877D01*
X115541564Y-85081872D01*
X115542842Y-85078724D01*
X115553142Y-85042568D01*
X115584507Y-84932460D01*
X115641020Y-84734070D01*
X115701401Y-84380828D01*
X115703511Y-84346340D01*
X115723168Y-84024928D01*
X115723278Y-84023131D01*
X115723359Y-84000000D01*
X115703979Y-83642159D01*
X115646066Y-83288505D01*
X115550297Y-82943173D01*
X115547243Y-82935497D01*
X115419052Y-82613369D01*
X115417793Y-82610205D01*
X115387768Y-82553498D01*
X115251702Y-82296513D01*
X115251698Y-82296506D01*
X115250103Y-82293494D01*
X115049190Y-81996746D01*
X115038088Y-81983654D01*
X114869279Y-81784602D01*
X114817403Y-81723432D01*
X114557454Y-81476750D01*
X114272384Y-81259585D01*
X114269472Y-81257828D01*
X114269467Y-81257825D01*
X113968443Y-81076236D01*
X113968437Y-81076233D01*
X113965528Y-81074478D01*
X113640475Y-80923593D01*
X113470751Y-80866145D01*
X113304255Y-80809789D01*
X113304250Y-80809788D01*
X113301028Y-80808697D01*
X113102681Y-80764724D01*
X112954493Y-80731871D01*
X112954487Y-80731870D01*
X112951158Y-80731132D01*
X112947769Y-80730758D01*
X112947764Y-80730757D01*
X112598338Y-80692180D01*
X112598333Y-80692180D01*
X112594957Y-80691807D01*
X112591558Y-80691801D01*
X112591557Y-80691801D01*
X112422080Y-80691505D01*
X112236592Y-80691182D01*
X112123413Y-80703277D01*
X111883639Y-80728901D01*
X111883631Y-80728902D01*
X111880256Y-80729263D01*
X111530117Y-80805606D01*
X111190271Y-80919317D01*
X111187178Y-80920739D01*
X111187177Y-80920740D01*
X111180974Y-80923593D01*
X110864694Y-81069066D01*
X110557193Y-81253101D01*
X110554467Y-81255163D01*
X110554465Y-81255164D01*
X110548620Y-81259585D01*
X110271367Y-81469270D01*
X110010559Y-81715043D01*
X109777819Y-81987546D01*
X109775900Y-81990358D01*
X109775897Y-81990363D01*
X109741866Y-82040251D01*
X109575871Y-82283591D01*
X109407077Y-82599714D01*
X109273411Y-82932218D01*
X109272491Y-82935492D01*
X109272489Y-82935497D01*
X109259799Y-82980644D01*
X109222110Y-83040810D01*
X109157875Y-83071049D01*
X109087489Y-83061760D01*
X109033298Y-83015892D01*
X109012500Y-82946548D01*
X109012500Y-76396397D01*
X109029380Y-76333398D01*
X109038527Y-76317556D01*
X109097542Y-76135928D01*
X109105029Y-76064698D01*
X109116814Y-75952565D01*
X109117504Y-75946000D01*
X109097542Y-75756072D01*
X109038527Y-75574444D01*
X108943040Y-75409056D01*
X108920634Y-75384171D01*
X108819675Y-75272045D01*
X108819674Y-75272044D01*
X108815253Y-75267134D01*
X108660752Y-75154882D01*
X108654724Y-75152198D01*
X108654722Y-75152197D01*
X108492319Y-75079891D01*
X108492318Y-75079891D01*
X108486288Y-75077206D01*
X108373721Y-75053279D01*
X108305944Y-75038872D01*
X108305939Y-75038872D01*
X108299487Y-75037500D01*
X108108513Y-75037500D01*
X108102061Y-75038872D01*
X108102056Y-75038872D01*
X108034279Y-75053279D01*
X107921712Y-75077206D01*
X107915682Y-75079891D01*
X107915681Y-75079891D01*
X107753278Y-75152197D01*
X107753276Y-75152198D01*
X107747248Y-75154882D01*
X107592747Y-75267134D01*
X107588326Y-75272044D01*
X107588325Y-75272045D01*
X107487367Y-75384171D01*
X107464960Y-75409056D01*
X107369473Y-75574444D01*
X107310458Y-75756072D01*
X107290496Y-75946000D01*
X107291186Y-75952565D01*
X107302972Y-76064698D01*
X107310458Y-76135928D01*
X107369473Y-76317556D01*
X107378620Y-76333398D01*
X107395500Y-76396397D01*
X107395500Y-91751603D01*
X107378620Y-91814602D01*
X107369473Y-91830444D01*
X107310458Y-92012072D01*
X107290496Y-92202000D01*
X97172500Y-92202000D01*
X97172500Y-83988434D01*
X98296661Y-83988434D01*
X98314792Y-84346340D01*
X98315329Y-84349695D01*
X98315330Y-84349701D01*
X98320316Y-84380828D01*
X98371470Y-84700195D01*
X98466033Y-85045859D01*
X98597374Y-85379288D01*
X98763957Y-85696582D01*
X98765858Y-85699411D01*
X98765864Y-85699421D01*
X98930500Y-85944423D01*
X98963834Y-85994029D01*
X99194665Y-86268150D01*
X99453751Y-86515738D01*
X99738061Y-86733897D01*
X99770056Y-86753350D01*
X100041355Y-86918303D01*
X100041360Y-86918306D01*
X100044270Y-86920075D01*
X100047358Y-86921521D01*
X100047357Y-86921521D01*
X100365710Y-87070649D01*
X100365720Y-87070653D01*
X100368794Y-87072093D01*
X100372012Y-87073195D01*
X100372015Y-87073196D01*
X100704615Y-87187071D01*
X100704623Y-87187073D01*
X100707838Y-87188174D01*
X101057435Y-87266959D01*
X101109728Y-87272917D01*
X101410114Y-87307142D01*
X101410122Y-87307142D01*
X101413497Y-87307527D01*
X101416901Y-87307545D01*
X101416904Y-87307545D01*
X101611227Y-87308562D01*
X101771857Y-87309403D01*
X101775243Y-87309053D01*
X101775245Y-87309053D01*
X102124932Y-87272917D01*
X102124941Y-87272916D01*
X102128324Y-87272566D01*
X102131657Y-87271852D01*
X102131660Y-87271851D01*
X102304186Y-87234864D01*
X102478727Y-87197446D01*
X102818968Y-87084922D01*
X103145066Y-86936311D01*
X103239052Y-86880506D01*
X103450262Y-86755099D01*
X103450267Y-86755096D01*
X103453207Y-86753350D01*
X103739786Y-86538180D01*
X104001451Y-86293319D01*
X104235140Y-86021630D01*
X104341750Y-85866512D01*
X104436190Y-85729101D01*
X104436195Y-85729094D01*
X104438120Y-85726292D01*
X104439732Y-85723298D01*
X104439737Y-85723290D01*
X104606395Y-85413772D01*
X104608017Y-85410760D01*
X104732757Y-85103561D01*
X104741562Y-85081877D01*
X104741564Y-85081872D01*
X104742842Y-85078724D01*
X104753142Y-85042568D01*
X104784507Y-84932460D01*
X104841020Y-84734070D01*
X104901401Y-84380828D01*
X104903511Y-84346340D01*
X104923168Y-84024928D01*
X104923278Y-84023131D01*
X104923359Y-84000000D01*
X104903979Y-83642159D01*
X104846066Y-83288505D01*
X104750297Y-82943173D01*
X104747243Y-82935497D01*
X104619052Y-82613369D01*
X104617793Y-82610205D01*
X104587768Y-82553498D01*
X104451702Y-82296513D01*
X104451698Y-82296506D01*
X104450103Y-82293494D01*
X104249190Y-81996746D01*
X104238088Y-81983654D01*
X104069279Y-81784602D01*
X104017403Y-81723432D01*
X103757454Y-81476750D01*
X103472384Y-81259585D01*
X103469472Y-81257828D01*
X103469467Y-81257825D01*
X103168443Y-81076236D01*
X103168437Y-81076233D01*
X103165528Y-81074478D01*
X102840475Y-80923593D01*
X102670751Y-80866145D01*
X102504255Y-80809789D01*
X102504250Y-80809788D01*
X102501028Y-80808697D01*
X102302681Y-80764724D01*
X102154493Y-80731871D01*
X102154487Y-80731870D01*
X102151158Y-80731132D01*
X102147769Y-80730758D01*
X102147764Y-80730757D01*
X101798338Y-80692180D01*
X101798333Y-80692180D01*
X101794957Y-80691807D01*
X101791558Y-80691801D01*
X101791557Y-80691801D01*
X101622080Y-80691505D01*
X101436592Y-80691182D01*
X101323413Y-80703277D01*
X101083639Y-80728901D01*
X101083631Y-80728902D01*
X101080256Y-80729263D01*
X100730117Y-80805606D01*
X100390271Y-80919317D01*
X100387178Y-80920739D01*
X100387177Y-80920740D01*
X100380974Y-80923593D01*
X100064694Y-81069066D01*
X99757193Y-81253101D01*
X99754467Y-81255163D01*
X99754465Y-81255164D01*
X99748620Y-81259585D01*
X99471367Y-81469270D01*
X99210559Y-81715043D01*
X98977819Y-81987546D01*
X98975900Y-81990358D01*
X98975897Y-81990363D01*
X98941866Y-82040251D01*
X98775871Y-82283591D01*
X98607077Y-82599714D01*
X98473411Y-82932218D01*
X98472491Y-82935492D01*
X98472489Y-82935497D01*
X98469282Y-82946909D01*
X98376437Y-83277213D01*
X98317290Y-83630663D01*
X98296661Y-83988434D01*
X97172500Y-83988434D01*
X97172500Y-74783215D01*
X97172507Y-74781893D01*
X97172903Y-74744161D01*
X97173586Y-74732314D01*
X97178814Y-74682566D01*
X97178814Y-74682565D01*
X97179504Y-74676000D01*
X97173927Y-74622939D01*
X97160232Y-74492635D01*
X97160232Y-74492633D01*
X97159542Y-74486072D01*
X97100527Y-74304444D01*
X97005040Y-74139056D01*
X96951988Y-74080135D01*
X96881675Y-74002045D01*
X96881674Y-74002044D01*
X96877253Y-73997134D01*
X96722752Y-73884882D01*
X96716724Y-73882198D01*
X96716722Y-73882197D01*
X96554319Y-73809891D01*
X96554318Y-73809891D01*
X96548288Y-73807206D01*
X96454887Y-73787353D01*
X96367944Y-73768872D01*
X96367939Y-73768872D01*
X96361487Y-73767500D01*
X96170513Y-73767500D01*
X96164061Y-73768872D01*
X96164056Y-73768872D01*
X96077113Y-73787353D01*
X95983712Y-73807206D01*
X95977682Y-73809891D01*
X95977681Y-73809891D01*
X95815278Y-73882197D01*
X95815276Y-73882198D01*
X95809248Y-73884882D01*
X95654747Y-73997134D01*
X95650326Y-74002044D01*
X95650325Y-74002045D01*
X95580013Y-74080135D01*
X95526960Y-74139056D01*
X95431473Y-74304444D01*
X95372458Y-74486072D01*
X95371768Y-74492633D01*
X95371768Y-74492635D01*
X95358073Y-74622939D01*
X95352496Y-74676000D01*
X95353186Y-74682565D01*
X95369403Y-74836857D01*
X95372458Y-74865928D01*
X95431473Y-75047556D01*
X95526960Y-75212944D01*
X95531384Y-75217857D01*
X95531436Y-75217929D01*
X95555294Y-75284797D01*
X95555500Y-75291991D01*
X95555500Y-103526500D01*
X95535498Y-103594621D01*
X95481842Y-103641114D01*
X95429500Y-103652500D01*
X95015866Y-103652500D01*
X94953684Y-103659255D01*
X94817295Y-103710385D01*
X94700739Y-103797739D01*
X94613385Y-103914295D01*
X94562255Y-104050684D01*
X94555500Y-104112866D01*
X94555500Y-106809134D01*
X90390648Y-106809134D01*
X90455149Y-106754530D01*
X90632382Y-106552434D01*
X90639631Y-106541165D01*
X90775269Y-106330291D01*
X90777797Y-106326361D01*
X90888199Y-106081278D01*
X90925247Y-105949917D01*
X90959893Y-105827072D01*
X90959894Y-105827069D01*
X90961163Y-105822568D01*
X90979320Y-105679848D01*
X90994688Y-105559045D01*
X90994688Y-105559041D01*
X90995086Y-105555915D01*
X90995170Y-105552733D01*
X90996477Y-105502779D01*
X90997571Y-105461000D01*
X90994043Y-105413526D01*
X90977996Y-105197592D01*
X90977996Y-105197591D01*
X90977650Y-105192937D01*
X90976619Y-105188379D01*
X90919361Y-104935331D01*
X90919360Y-104935326D01*
X90918327Y-104930763D01*
X90820902Y-104680238D01*
X90687518Y-104446864D01*
X90672702Y-104428069D01*
X90621416Y-104363014D01*
X90521105Y-104235769D01*
X90325317Y-104051591D01*
X90139527Y-103922703D01*
X90108299Y-103901039D01*
X90108296Y-103901037D01*
X90104457Y-103898374D01*
X90062770Y-103877816D01*
X89867564Y-103781551D01*
X89867561Y-103781550D01*
X89863376Y-103779486D01*
X89850412Y-103775336D01*
X89761621Y-103746914D01*
X89607370Y-103697538D01*
X89602763Y-103696788D01*
X89602760Y-103696787D01*
X89389337Y-103662029D01*
X89342063Y-103654330D01*
X89211719Y-103652624D01*
X89077961Y-103650873D01*
X89077958Y-103650873D01*
X89073284Y-103650812D01*
X88894685Y-103675118D01*
X88824490Y-103664485D01*
X88788600Y-103639365D01*
X88167405Y-103018171D01*
X88133380Y-102955858D01*
X88130500Y-102929075D01*
X88130500Y-86299689D01*
X88150502Y-86231568D01*
X88204158Y-86185075D01*
X88274432Y-86174971D01*
X88339012Y-86204465D01*
X88352880Y-86218529D01*
X88394665Y-86268150D01*
X88653751Y-86515738D01*
X88938061Y-86733897D01*
X88970056Y-86753350D01*
X89241355Y-86918303D01*
X89241360Y-86918306D01*
X89244270Y-86920075D01*
X89247358Y-86921521D01*
X89247357Y-86921521D01*
X89565710Y-87070649D01*
X89565720Y-87070653D01*
X89568794Y-87072093D01*
X89572012Y-87073195D01*
X89572015Y-87073196D01*
X89904615Y-87187071D01*
X89904623Y-87187073D01*
X89907838Y-87188174D01*
X90257435Y-87266959D01*
X90309728Y-87272917D01*
X90610114Y-87307142D01*
X90610122Y-87307142D01*
X90613497Y-87307527D01*
X90616901Y-87307545D01*
X90616904Y-87307545D01*
X90811227Y-87308562D01*
X90971857Y-87309403D01*
X90975243Y-87309053D01*
X90975245Y-87309053D01*
X91324932Y-87272917D01*
X91324941Y-87272916D01*
X91328324Y-87272566D01*
X91331657Y-87271852D01*
X91331660Y-87271851D01*
X91504186Y-87234864D01*
X91678727Y-87197446D01*
X92018968Y-87084922D01*
X92345066Y-86936311D01*
X92439052Y-86880506D01*
X92650262Y-86755099D01*
X92650267Y-86755096D01*
X92653207Y-86753350D01*
X92939786Y-86538180D01*
X93201451Y-86293319D01*
X93435140Y-86021630D01*
X93541750Y-85866512D01*
X93636190Y-85729101D01*
X93636195Y-85729094D01*
X93638120Y-85726292D01*
X93639732Y-85723298D01*
X93639737Y-85723290D01*
X93806395Y-85413772D01*
X93808017Y-85410760D01*
X93932757Y-85103561D01*
X93941562Y-85081877D01*
X93941564Y-85081872D01*
X93942842Y-85078724D01*
X93953142Y-85042568D01*
X93984507Y-84932460D01*
X94041020Y-84734070D01*
X94101401Y-84380828D01*
X94103511Y-84346340D01*
X94123168Y-84024928D01*
X94123278Y-84023131D01*
X94123359Y-84000000D01*
X94103979Y-83642159D01*
X94046066Y-83288505D01*
X93950297Y-82943173D01*
X93947243Y-82935497D01*
X93819052Y-82613369D01*
X93817793Y-82610205D01*
X93787768Y-82553498D01*
X93651702Y-82296513D01*
X93651698Y-82296506D01*
X93650103Y-82293494D01*
X93449190Y-81996746D01*
X93438088Y-81983654D01*
X93269279Y-81784602D01*
X93217403Y-81723432D01*
X92957454Y-81476750D01*
X92672384Y-81259585D01*
X92669472Y-81257828D01*
X92669467Y-81257825D01*
X92368443Y-81076236D01*
X92368437Y-81076233D01*
X92365528Y-81074478D01*
X92040475Y-80923593D01*
X91870751Y-80866145D01*
X91704255Y-80809789D01*
X91704250Y-80809788D01*
X91701028Y-80808697D01*
X91502681Y-80764724D01*
X91354493Y-80731871D01*
X91354487Y-80731870D01*
X91351158Y-80731132D01*
X91347769Y-80730758D01*
X91347764Y-80730757D01*
X90998338Y-80692180D01*
X90998333Y-80692180D01*
X90994957Y-80691807D01*
X90991558Y-80691801D01*
X90991557Y-80691801D01*
X90822080Y-80691505D01*
X90636592Y-80691182D01*
X90523413Y-80703277D01*
X90283639Y-80728901D01*
X90283631Y-80728902D01*
X90280256Y-80729263D01*
X89930117Y-80805606D01*
X89590271Y-80919317D01*
X89587178Y-80920739D01*
X89587177Y-80920740D01*
X89580974Y-80923593D01*
X89264694Y-81069066D01*
X88957193Y-81253101D01*
X88954467Y-81255163D01*
X88954465Y-81255164D01*
X88948620Y-81259585D01*
X88671367Y-81469270D01*
X88410559Y-81715043D01*
X88408350Y-81717629D01*
X88408337Y-81717643D01*
X88352311Y-81783242D01*
X88292861Y-81822051D01*
X88221866Y-81822559D01*
X88161867Y-81784602D01*
X88131914Y-81720234D01*
X88130500Y-81701412D01*
X88130500Y-75896231D01*
X88129814Y-75889227D01*
X88122993Y-75819673D01*
X88116080Y-75749167D01*
X88102096Y-75702848D01*
X88078840Y-75625824D01*
X88058916Y-75559831D01*
X87966066Y-75385204D01*
X87884176Y-75284797D01*
X87844960Y-75236713D01*
X87844957Y-75236710D01*
X87841065Y-75231938D01*
X87830852Y-75223489D01*
X87693425Y-75109799D01*
X87693421Y-75109797D01*
X87688675Y-75105870D01*
X87514701Y-75011802D01*
X87325768Y-74953318D01*
X87319643Y-74952674D01*
X87319642Y-74952674D01*
X87135204Y-74933289D01*
X87135202Y-74933289D01*
X87129075Y-74932645D01*
X87046576Y-74940153D01*
X86938251Y-74950011D01*
X86938248Y-74950012D01*
X86932112Y-74950570D01*
X86926206Y-74952308D01*
X86926202Y-74952309D01*
X86821076Y-74983249D01*
X86742381Y-75006410D01*
X86736923Y-75009263D01*
X86736919Y-75009265D01*
X86666123Y-75046277D01*
X86567110Y-75098040D01*
X86412975Y-75221968D01*
X86285846Y-75373474D01*
X86282879Y-75378872D01*
X86282875Y-75378877D01*
X86221821Y-75489935D01*
X86190567Y-75546787D01*
X86188706Y-75552654D01*
X86188705Y-75552656D01*
X86144662Y-75691498D01*
X86130765Y-75735306D01*
X86113500Y-75889227D01*
X86113500Y-103337157D01*
X86112763Y-103350764D01*
X86108676Y-103388388D01*
X84992500Y-103388388D01*
X84992500Y-70004500D01*
X85012502Y-69936379D01*
X85066158Y-69889886D01*
X85118500Y-69878500D01*
X86798134Y-69878500D01*
X86860316Y-69871745D01*
X86996705Y-69820615D01*
X87113261Y-69733261D01*
X87200615Y-69616705D01*
X87251745Y-69480316D01*
X87252917Y-69469526D01*
X87253803Y-69467394D01*
X87254425Y-69464778D01*
X87254848Y-69464879D01*
X87280155Y-69403965D01*
X87338517Y-69363537D01*
X87409471Y-69361078D01*
X87470490Y-69397371D01*
X87477489Y-69406031D01*
X87480643Y-69409789D01*
X87483802Y-69414300D01*
X87645700Y-69576198D01*
X87650208Y-69579355D01*
X87650211Y-69579357D01*
X87691542Y-69608297D01*
X87833251Y-69707523D01*
X87838233Y-69709846D01*
X87838238Y-69709849D01*
X88034765Y-69801490D01*
X88040757Y-69804284D01*
X88046065Y-69805706D01*
X88046067Y-69805707D01*
X88256598Y-69862119D01*
X88256600Y-69862119D01*
X88261913Y-69863543D01*
X88490000Y-69883498D01*
X88718087Y-69863543D01*
X88723400Y-69862119D01*
X88723402Y-69862119D01*
X88933933Y-69805707D01*
X88933935Y-69805706D01*
X88939243Y-69804284D01*
X88945235Y-69801490D01*
X89141762Y-69709849D01*
X89141767Y-69709846D01*
X89146749Y-69707523D01*
X89288458Y-69608297D01*
X89329789Y-69579357D01*
X89329792Y-69579355D01*
X89334300Y-69576198D01*
X89496198Y-69414300D01*
X89627523Y-69226749D01*
X89629846Y-69221767D01*
X89629849Y-69221762D01*
X89645805Y-69187543D01*
X89692722Y-69134258D01*
X89760999Y-69114797D01*
X89828959Y-69135339D01*
X89874195Y-69187543D01*
X89890151Y-69221762D01*
X89890154Y-69221767D01*
X89892477Y-69226749D01*
X90023802Y-69414300D01*
X90185700Y-69576198D01*
X90190208Y-69579355D01*
X90190211Y-69579357D01*
X90231542Y-69608297D01*
X90373251Y-69707523D01*
X90378233Y-69709846D01*
X90378238Y-69709849D01*
X90574765Y-69801490D01*
X90580757Y-69804284D01*
X90586065Y-69805706D01*
X90586067Y-69805707D01*
X90796598Y-69862119D01*
X90796600Y-69862119D01*
X90801913Y-69863543D01*
X91030000Y-69883498D01*
X91258087Y-69863543D01*
X91263400Y-69862119D01*
X91263402Y-69862119D01*
X91473933Y-69805707D01*
X91473935Y-69805706D01*
X91479243Y-69804284D01*
X91485235Y-69801490D01*
X91681762Y-69709849D01*
X91681767Y-69709846D01*
X91686749Y-69707523D01*
X91828458Y-69608297D01*
X91869789Y-69579357D01*
X91869792Y-69579355D01*
X91874300Y-69576198D01*
X92036198Y-69414300D01*
X92167523Y-69226749D01*
X92169846Y-69221767D01*
X92169849Y-69221762D01*
X92186081Y-69186951D01*
X92232998Y-69133666D01*
X92301275Y-69114205D01*
X92369235Y-69134747D01*
X92414471Y-69186951D01*
X92430586Y-69221511D01*
X92436069Y-69231007D01*
X92561028Y-69409467D01*
X92568084Y-69417875D01*
X92722125Y-69571916D01*
X92730533Y-69578972D01*
X92908993Y-69703931D01*
X92918489Y-69709414D01*
X93115947Y-69801490D01*
X93126239Y-69805236D01*
X93298503Y-69851394D01*
X93312599Y-69851058D01*
X93316000Y-69843116D01*
X93316000Y-67302033D01*
X93312027Y-67288502D01*
X93303478Y-67287273D01*
X93126239Y-67334764D01*
X93115947Y-67338510D01*
X92918489Y-67430586D01*
X92908993Y-67436069D01*
X92730533Y-67561028D01*
X92722125Y-67568084D01*
X92568084Y-67722125D01*
X92561028Y-67730533D01*
X92436069Y-67908993D01*
X92430586Y-67918489D01*
X92414471Y-67953049D01*
X92367554Y-68006334D01*
X92299277Y-68025795D01*
X92231317Y-68005253D01*
X92186081Y-67953049D01*
X92169849Y-67918238D01*
X92169846Y-67918233D01*
X92167523Y-67913251D01*
X92036198Y-67725700D01*
X91874300Y-67563802D01*
X91869792Y-67560645D01*
X91869789Y-67560643D01*
X91786888Y-67502595D01*
X91686749Y-67432477D01*
X91681767Y-67430154D01*
X91681762Y-67430151D01*
X91484225Y-67338039D01*
X91484224Y-67338039D01*
X91479243Y-67335716D01*
X91473935Y-67334294D01*
X91473933Y-67334293D01*
X91263402Y-67277881D01*
X91263400Y-67277881D01*
X91258087Y-67276457D01*
X91030000Y-67256502D01*
X90801913Y-67276457D01*
X90796600Y-67277881D01*
X90796598Y-67277881D01*
X90586067Y-67334293D01*
X90586065Y-67334294D01*
X90580757Y-67335716D01*
X90575776Y-67338039D01*
X90575775Y-67338039D01*
X90378238Y-67430151D01*
X90378233Y-67430154D01*
X90373251Y-67432477D01*
X90273112Y-67502595D01*
X90190211Y-67560643D01*
X90190208Y-67560645D01*
X90185700Y-67563802D01*
X90023802Y-67725700D01*
X89892477Y-67913251D01*
X89890154Y-67918233D01*
X89890151Y-67918238D01*
X89874195Y-67952457D01*
X89827278Y-68005742D01*
X89759001Y-68025203D01*
X89691041Y-68004661D01*
X89645805Y-67952457D01*
X89629849Y-67918238D01*
X89629846Y-67918233D01*
X89627523Y-67913251D01*
X89496198Y-67725700D01*
X89334300Y-67563802D01*
X89329792Y-67560645D01*
X89329789Y-67560643D01*
X89246888Y-67502595D01*
X89146749Y-67432477D01*
X89141767Y-67430154D01*
X89141762Y-67430151D01*
X88944225Y-67338039D01*
X88944224Y-67338039D01*
X88939243Y-67335716D01*
X88933935Y-67334294D01*
X88933933Y-67334293D01*
X88723402Y-67277881D01*
X88723400Y-67277881D01*
X88718087Y-67276457D01*
X88490000Y-67256502D01*
X88261913Y-67276457D01*
X88256600Y-67277881D01*
X88256598Y-67277881D01*
X88046067Y-67334293D01*
X88046065Y-67334294D01*
X88040757Y-67335716D01*
X88035776Y-67338039D01*
X88035775Y-67338039D01*
X87838238Y-67430151D01*
X87838233Y-67430154D01*
X87833251Y-67432477D01*
X87733112Y-67502595D01*
X87650211Y-67560643D01*
X87650208Y-67560645D01*
X87645700Y-67563802D01*
X87483802Y-67725700D01*
X87480643Y-67730211D01*
X87477108Y-67734424D01*
X87475974Y-67733473D01*
X87425929Y-67773471D01*
X87355310Y-67780776D01*
X87291951Y-67748742D01*
X87255970Y-67687538D01*
X87252918Y-67670483D01*
X87251745Y-67659684D01*
X87200615Y-67523295D01*
X87113261Y-67406739D01*
X86996705Y-67319385D01*
X86860316Y-67268255D01*
X86798134Y-67261500D01*
X86199771Y-67261500D01*
X86131650Y-67241498D01*
X86085157Y-67187842D01*
X86075053Y-67117568D01*
X86104547Y-67052988D01*
X86125710Y-67033564D01*
X86153515Y-67013362D01*
X86209253Y-66972866D01*
X86337040Y-66830944D01*
X86432527Y-66665556D01*
X86491542Y-66483928D01*
X86511504Y-66294000D01*
X86491542Y-66104072D01*
X86432527Y-65922444D01*
X86337040Y-65757056D01*
X86273600Y-65686598D01*
X86213675Y-65620045D01*
X86213674Y-65620044D01*
X86209253Y-65615134D01*
X86110157Y-65543136D01*
X86060094Y-65506763D01*
X86060093Y-65506762D01*
X86054752Y-65502882D01*
X86048724Y-65500198D01*
X86048722Y-65500197D01*
X85922399Y-65443955D01*
X85887757Y-65428532D01*
X85849912Y-65402520D01*
X81617405Y-61170013D01*
X81583379Y-61107701D01*
X81580500Y-61080918D01*
X81580500Y-53330000D01*
X84636502Y-53330000D01*
X84656457Y-53558087D01*
X84715716Y-53779243D01*
X84718039Y-53784224D01*
X84718039Y-53784225D01*
X84810151Y-53981762D01*
X84810154Y-53981767D01*
X84812477Y-53986749D01*
X84943802Y-54174300D01*
X85105700Y-54336198D01*
X85110208Y-54339355D01*
X85110211Y-54339357D01*
X85185770Y-54392264D01*
X85293251Y-54467523D01*
X85298233Y-54469846D01*
X85298238Y-54469849D01*
X85494765Y-54561490D01*
X85500757Y-54564284D01*
X85506065Y-54565706D01*
X85506067Y-54565707D01*
X85716598Y-54622119D01*
X85716600Y-54622119D01*
X85721913Y-54623543D01*
X85950000Y-54643498D01*
X86178087Y-54623543D01*
X86183400Y-54622119D01*
X86183402Y-54622119D01*
X86393933Y-54565707D01*
X86393935Y-54565706D01*
X86399243Y-54564284D01*
X86405235Y-54561490D01*
X86601762Y-54469849D01*
X86601767Y-54469846D01*
X86606749Y-54467523D01*
X86714230Y-54392264D01*
X86789789Y-54339357D01*
X86789792Y-54339355D01*
X86794300Y-54336198D01*
X86956198Y-54174300D01*
X87087523Y-53986749D01*
X87089846Y-53981767D01*
X87089849Y-53981762D01*
X87106081Y-53946951D01*
X87152998Y-53893666D01*
X87221275Y-53874205D01*
X87289235Y-53894747D01*
X87334471Y-53946951D01*
X87350586Y-53981511D01*
X87356069Y-53991007D01*
X87481028Y-54169467D01*
X87488084Y-54177875D01*
X87642125Y-54331916D01*
X87650533Y-54338972D01*
X87828993Y-54463931D01*
X87838489Y-54469414D01*
X88035947Y-54561490D01*
X88046239Y-54565236D01*
X88218503Y-54611394D01*
X88232599Y-54611058D01*
X88236000Y-54603116D01*
X88236000Y-54597967D01*
X88744000Y-54597967D01*
X88747973Y-54611498D01*
X88756522Y-54612727D01*
X88933761Y-54565236D01*
X88944053Y-54561490D01*
X89141511Y-54469414D01*
X89151007Y-54463931D01*
X89329467Y-54338972D01*
X89337875Y-54331916D01*
X89491916Y-54177875D01*
X89498972Y-54169467D01*
X89623931Y-53991007D01*
X89629414Y-53981511D01*
X89645529Y-53946951D01*
X89692446Y-53893666D01*
X89760723Y-53874205D01*
X89828683Y-53894747D01*
X89873919Y-53946951D01*
X89890151Y-53981762D01*
X89890154Y-53981767D01*
X89892477Y-53986749D01*
X90023802Y-54174300D01*
X90086595Y-54237093D01*
X90120621Y-54299405D01*
X90123500Y-54326188D01*
X90123500Y-56953603D01*
X90106620Y-57016602D01*
X90097473Y-57032444D01*
X90038458Y-57214072D01*
X90037768Y-57220633D01*
X90037768Y-57220635D01*
X90021556Y-57374882D01*
X90018496Y-57404000D01*
X90019186Y-57410565D01*
X90026826Y-57483251D01*
X90038458Y-57593928D01*
X90097473Y-57775556D01*
X90192960Y-57940944D01*
X90197378Y-57945851D01*
X90197379Y-57945852D01*
X90224589Y-57976072D01*
X90320747Y-58082866D01*
X90475248Y-58195118D01*
X90481276Y-58197802D01*
X90481278Y-58197803D01*
X90562940Y-58234161D01*
X90649712Y-58272794D01*
X90743113Y-58292647D01*
X90830056Y-58311128D01*
X90830061Y-58311128D01*
X90836513Y-58312500D01*
X91027487Y-58312500D01*
X91033939Y-58311128D01*
X91033944Y-58311128D01*
X91120887Y-58292647D01*
X91214288Y-58272794D01*
X91301060Y-58234161D01*
X91382722Y-58197803D01*
X91382724Y-58197802D01*
X91388752Y-58195118D01*
X91543253Y-58082866D01*
X91639411Y-57976072D01*
X91666621Y-57945852D01*
X91666622Y-57945851D01*
X91671040Y-57940944D01*
X91766527Y-57775556D01*
X91825542Y-57593928D01*
X91837175Y-57483251D01*
X91844814Y-57410565D01*
X91845504Y-57404000D01*
X91842444Y-57374882D01*
X91826232Y-57220635D01*
X91826232Y-57220633D01*
X91825542Y-57214072D01*
X91766527Y-57032444D01*
X91757380Y-57016602D01*
X91740500Y-56953603D01*
X91740500Y-54495477D01*
X91760502Y-54427356D01*
X91794230Y-54392264D01*
X91869784Y-54339361D01*
X91869790Y-54339356D01*
X91874300Y-54336198D01*
X92036198Y-54174300D01*
X92167523Y-53986749D01*
X92169846Y-53981767D01*
X92169849Y-53981762D01*
X92185805Y-53947543D01*
X92232722Y-53894258D01*
X92300999Y-53874797D01*
X92368959Y-53895339D01*
X92414195Y-53947543D01*
X92430151Y-53981762D01*
X92430154Y-53981767D01*
X92432477Y-53986749D01*
X92563802Y-54174300D01*
X92725700Y-54336198D01*
X92730208Y-54339355D01*
X92730211Y-54339357D01*
X92805770Y-54392264D01*
X92913251Y-54467523D01*
X92918233Y-54469846D01*
X92918238Y-54469849D01*
X93114765Y-54561490D01*
X93120757Y-54564284D01*
X93126065Y-54565706D01*
X93126067Y-54565707D01*
X93336598Y-54622119D01*
X93336600Y-54622119D01*
X93341913Y-54623543D01*
X93570000Y-54643498D01*
X93798087Y-54623543D01*
X93803400Y-54622119D01*
X93803402Y-54622119D01*
X94013933Y-54565707D01*
X94013935Y-54565706D01*
X94019243Y-54564284D01*
X94025235Y-54561490D01*
X94221762Y-54469849D01*
X94221767Y-54469846D01*
X94226749Y-54467523D01*
X94334230Y-54392264D01*
X94409789Y-54339357D01*
X94409792Y-54339355D01*
X94414300Y-54336198D01*
X94576198Y-54174300D01*
X94707523Y-53986749D01*
X94709846Y-53981767D01*
X94709849Y-53981762D01*
X94725805Y-53947543D01*
X94772722Y-53894258D01*
X94840999Y-53874797D01*
X94908959Y-53895339D01*
X94954195Y-53947543D01*
X94970151Y-53981762D01*
X94970154Y-53981767D01*
X94972477Y-53986749D01*
X95103802Y-54174300D01*
X95265700Y-54336198D01*
X95270208Y-54339355D01*
X95270211Y-54339357D01*
X95345770Y-54392264D01*
X95453251Y-54467523D01*
X95458233Y-54469846D01*
X95458238Y-54469849D01*
X95654765Y-54561490D01*
X95660757Y-54564284D01*
X95666065Y-54565706D01*
X95666067Y-54565707D01*
X95876598Y-54622119D01*
X95876600Y-54622119D01*
X95881913Y-54623543D01*
X96110000Y-54643498D01*
X96338087Y-54623543D01*
X96343400Y-54622119D01*
X96343402Y-54622119D01*
X96553933Y-54565707D01*
X96553935Y-54565706D01*
X96559243Y-54564284D01*
X96565235Y-54561490D01*
X96761762Y-54469849D01*
X96761767Y-54469846D01*
X96766749Y-54467523D01*
X96874230Y-54392264D01*
X96949789Y-54339357D01*
X96949792Y-54339355D01*
X96954300Y-54336198D01*
X97116198Y-54174300D01*
X97247523Y-53986749D01*
X97249846Y-53981767D01*
X97249849Y-53981762D01*
X97265805Y-53947543D01*
X97312722Y-53894258D01*
X97380999Y-53874797D01*
X97448959Y-53895339D01*
X97494195Y-53947543D01*
X97510151Y-53981762D01*
X97510154Y-53981767D01*
X97512477Y-53986749D01*
X97643802Y-54174300D01*
X97805700Y-54336198D01*
X97810208Y-54339355D01*
X97810211Y-54339357D01*
X97885770Y-54392264D01*
X97993251Y-54467523D01*
X97998233Y-54469846D01*
X97998238Y-54469849D01*
X98194765Y-54561490D01*
X98200757Y-54564284D01*
X98206065Y-54565706D01*
X98206067Y-54565707D01*
X98416598Y-54622119D01*
X98416600Y-54622119D01*
X98421913Y-54623543D01*
X98650000Y-54643498D01*
X98878087Y-54623543D01*
X98883400Y-54622119D01*
X98883402Y-54622119D01*
X99093933Y-54565707D01*
X99093935Y-54565706D01*
X99099243Y-54564284D01*
X99105235Y-54561490D01*
X99301762Y-54469849D01*
X99301767Y-54469846D01*
X99306749Y-54467523D01*
X99414230Y-54392264D01*
X99489789Y-54339357D01*
X99489792Y-54339355D01*
X99494300Y-54336198D01*
X99656198Y-54174300D01*
X99787523Y-53986749D01*
X99789846Y-53981767D01*
X99789849Y-53981762D01*
X99805805Y-53947543D01*
X99852722Y-53894258D01*
X99920999Y-53874797D01*
X99988959Y-53895339D01*
X100034195Y-53947543D01*
X100050151Y-53981762D01*
X100050154Y-53981767D01*
X100052477Y-53986749D01*
X100183802Y-54174300D01*
X100344595Y-54335093D01*
X100378621Y-54397405D01*
X100381500Y-54424188D01*
X100381500Y-63776917D01*
X100361498Y-63845038D01*
X100344595Y-63866012D01*
X100332087Y-63878520D01*
X100294241Y-63904532D01*
X100133278Y-63976197D01*
X100133276Y-63976198D01*
X100127248Y-63978882D01*
X99972747Y-64091134D01*
X99968326Y-64096044D01*
X99968325Y-64096045D01*
X99863117Y-64212891D01*
X99844960Y-64233056D01*
X99834106Y-64251856D01*
X99784058Y-64338542D01*
X99749473Y-64398444D01*
X99690458Y-64580072D01*
X99689768Y-64586633D01*
X99689768Y-64586635D01*
X99679110Y-64688039D01*
X99670496Y-64770000D01*
X99671186Y-64776565D01*
X99686020Y-64917699D01*
X99690458Y-64959928D01*
X99749473Y-65141556D01*
X99844960Y-65306944D01*
X99849378Y-65311851D01*
X99849379Y-65311852D01*
X99931017Y-65402520D01*
X99972747Y-65448866D01*
X100127248Y-65561118D01*
X100133276Y-65563802D01*
X100133278Y-65563803D01*
X100295681Y-65636109D01*
X100301712Y-65638794D01*
X100395112Y-65658647D01*
X100482056Y-65677128D01*
X100482061Y-65677128D01*
X100488513Y-65678500D01*
X100679487Y-65678500D01*
X100685939Y-65677128D01*
X100685944Y-65677128D01*
X100772888Y-65658647D01*
X100866288Y-65638794D01*
X100872319Y-65636109D01*
X101034722Y-65563803D01*
X101034724Y-65563802D01*
X101040752Y-65561118D01*
X101195253Y-65448866D01*
X101236983Y-65402520D01*
X101318621Y-65311852D01*
X101318622Y-65311851D01*
X101323040Y-65306944D01*
X101418527Y-65141556D01*
X101439354Y-65077458D01*
X101470092Y-65027300D01*
X101755158Y-64742234D01*
X101756095Y-64741306D01*
X101815475Y-64683157D01*
X101815476Y-64683156D01*
X101820507Y-64678229D01*
X101843998Y-64641779D01*
X101851417Y-64631454D01*
X101878476Y-64597557D01*
X101881540Y-64591218D01*
X101881543Y-64591214D01*
X101893074Y-64567362D01*
X101900601Y-64553949D01*
X101914947Y-64531687D01*
X101914948Y-64531684D01*
X101918765Y-64525762D01*
X101928184Y-64499884D01*
X101933592Y-64485027D01*
X101938553Y-64473283D01*
X101954352Y-64440601D01*
X101954353Y-64440599D01*
X101957421Y-64434252D01*
X101964966Y-64401573D01*
X101969334Y-64386825D01*
X101980803Y-64355315D01*
X101981685Y-64348329D01*
X101981687Y-64348323D01*
X101986238Y-64312299D01*
X101988474Y-64299747D01*
X101996638Y-64264386D01*
X101996638Y-64264383D01*
X101998224Y-64257515D01*
X101998259Y-64247643D01*
X101998366Y-64216944D01*
X101998395Y-64216062D01*
X101998500Y-64215231D01*
X101998500Y-64178428D01*
X101998818Y-64087251D01*
X101998845Y-64079657D01*
X101998845Y-64079652D01*
X101998857Y-64076130D01*
X101998589Y-64074930D01*
X101998500Y-64073293D01*
X101998500Y-63264500D01*
X102018502Y-63196379D01*
X102072158Y-63149886D01*
X102124500Y-63138500D01*
X102203487Y-63138500D01*
X102209939Y-63137128D01*
X102209944Y-63137128D01*
X102296887Y-63118647D01*
X102390288Y-63098794D01*
X102396319Y-63096109D01*
X102558722Y-63023803D01*
X102558724Y-63023802D01*
X102564752Y-63021118D01*
X102581660Y-63008834D01*
X102719253Y-62908866D01*
X102720578Y-62910690D01*
X102775206Y-62884479D01*
X102845659Y-62893248D01*
X102900187Y-62938715D01*
X102921500Y-63008834D01*
X102921500Y-67475812D01*
X102901498Y-67543933D01*
X102884595Y-67564907D01*
X102723802Y-67725700D01*
X102592477Y-67913251D01*
X102590154Y-67918233D01*
X102590151Y-67918238D01*
X102574195Y-67952457D01*
X102527278Y-68005742D01*
X102459001Y-68025203D01*
X102391041Y-68004661D01*
X102345805Y-67952457D01*
X102329849Y-67918238D01*
X102329846Y-67918233D01*
X102327523Y-67913251D01*
X102196198Y-67725700D01*
X102034300Y-67563802D01*
X102029792Y-67560645D01*
X102029789Y-67560643D01*
X101946888Y-67502595D01*
X101846749Y-67432477D01*
X101841767Y-67430154D01*
X101841762Y-67430151D01*
X101644225Y-67338039D01*
X101644224Y-67338039D01*
X101639243Y-67335716D01*
X101633935Y-67334294D01*
X101633933Y-67334293D01*
X101423402Y-67277881D01*
X101423400Y-67277881D01*
X101418087Y-67276457D01*
X101190000Y-67256502D01*
X100961913Y-67276457D01*
X100956600Y-67277881D01*
X100956598Y-67277881D01*
X100746067Y-67334293D01*
X100746065Y-67334294D01*
X100740757Y-67335716D01*
X100735776Y-67338039D01*
X100735775Y-67338039D01*
X100538238Y-67430151D01*
X100538233Y-67430154D01*
X100533251Y-67432477D01*
X100433112Y-67502595D01*
X100350211Y-67560643D01*
X100350208Y-67560645D01*
X100345700Y-67563802D01*
X100183802Y-67725700D01*
X100052477Y-67913251D01*
X100050154Y-67918233D01*
X100050151Y-67918238D01*
X100034195Y-67952457D01*
X99987278Y-68005742D01*
X99919001Y-68025203D01*
X99851041Y-68004661D01*
X99805805Y-67952457D01*
X99789849Y-67918238D01*
X99789846Y-67918233D01*
X99787523Y-67913251D01*
X99656198Y-67725700D01*
X99494300Y-67563802D01*
X99489792Y-67560645D01*
X99489789Y-67560643D01*
X99406888Y-67502595D01*
X99306749Y-67432477D01*
X99301767Y-67430154D01*
X99301762Y-67430151D01*
X99104225Y-67338039D01*
X99104224Y-67338039D01*
X99099243Y-67335716D01*
X99093935Y-67334294D01*
X99093933Y-67334293D01*
X98883402Y-67277881D01*
X98883400Y-67277881D01*
X98878087Y-67276457D01*
X98650000Y-67256502D01*
X98421913Y-67276457D01*
X98416600Y-67277881D01*
X98416598Y-67277881D01*
X98206067Y-67334293D01*
X98206065Y-67334294D01*
X98200757Y-67335716D01*
X98195776Y-67338039D01*
X98195775Y-67338039D01*
X97998238Y-67430151D01*
X97998233Y-67430154D01*
X97993251Y-67432477D01*
X97893112Y-67502595D01*
X97810211Y-67560643D01*
X97810208Y-67560645D01*
X97805700Y-67563802D01*
X97643802Y-67725700D01*
X97512477Y-67913251D01*
X97510154Y-67918233D01*
X97510151Y-67918238D01*
X97494195Y-67952457D01*
X97447278Y-68005742D01*
X97379001Y-68025203D01*
X97311041Y-68004661D01*
X97265805Y-67952457D01*
X97249849Y-67918238D01*
X97249846Y-67918233D01*
X97247523Y-67913251D01*
X97116198Y-67725700D01*
X96954300Y-67563802D01*
X96949792Y-67560645D01*
X96949789Y-67560643D01*
X96866888Y-67502595D01*
X96766749Y-67432477D01*
X96761767Y-67430154D01*
X96761762Y-67430151D01*
X96564225Y-67338039D01*
X96564224Y-67338039D01*
X96559243Y-67335716D01*
X96553935Y-67334294D01*
X96553933Y-67334293D01*
X96343402Y-67277881D01*
X96343400Y-67277881D01*
X96338087Y-67276457D01*
X96110000Y-67256502D01*
X95881913Y-67276457D01*
X95876600Y-67277881D01*
X95876598Y-67277881D01*
X95666067Y-67334293D01*
X95666065Y-67334294D01*
X95660757Y-67335716D01*
X95655776Y-67338039D01*
X95655775Y-67338039D01*
X95458238Y-67430151D01*
X95458233Y-67430154D01*
X95453251Y-67432477D01*
X95353112Y-67502595D01*
X95270211Y-67560643D01*
X95270208Y-67560645D01*
X95265700Y-67563802D01*
X95103802Y-67725700D01*
X94972477Y-67913251D01*
X94970154Y-67918233D01*
X94970151Y-67918238D01*
X94953919Y-67953049D01*
X94907002Y-68006334D01*
X94838725Y-68025795D01*
X94770765Y-68005253D01*
X94725529Y-67953049D01*
X94709414Y-67918489D01*
X94703931Y-67908993D01*
X94578972Y-67730533D01*
X94571916Y-67722125D01*
X94417875Y-67568084D01*
X94409467Y-67561028D01*
X94231007Y-67436069D01*
X94221511Y-67430586D01*
X94024053Y-67338510D01*
X94013761Y-67334764D01*
X93841497Y-67288606D01*
X93827401Y-67288942D01*
X93824000Y-67296884D01*
X93824000Y-69837967D01*
X93827973Y-69851498D01*
X93836522Y-69852727D01*
X94013761Y-69805236D01*
X94024053Y-69801490D01*
X94221511Y-69709414D01*
X94231007Y-69703931D01*
X94409467Y-69578972D01*
X94417875Y-69571916D01*
X94571916Y-69417875D01*
X94578972Y-69409467D01*
X94703931Y-69231007D01*
X94709414Y-69221511D01*
X94725529Y-69186951D01*
X94772446Y-69133666D01*
X94840723Y-69114205D01*
X94908683Y-69134747D01*
X94953919Y-69186951D01*
X94970151Y-69221762D01*
X94970154Y-69221767D01*
X94972477Y-69226749D01*
X95103802Y-69414300D01*
X95265700Y-69576198D01*
X95270208Y-69579355D01*
X95270211Y-69579357D01*
X95311542Y-69608297D01*
X95453251Y-69707523D01*
X95458233Y-69709846D01*
X95458238Y-69709849D01*
X95654765Y-69801490D01*
X95660757Y-69804284D01*
X95666065Y-69805706D01*
X95666067Y-69805707D01*
X95876598Y-69862119D01*
X95876600Y-69862119D01*
X95881913Y-69863543D01*
X96110000Y-69883498D01*
X96338087Y-69863543D01*
X96343400Y-69862119D01*
X96343402Y-69862119D01*
X96553933Y-69805707D01*
X96553935Y-69805706D01*
X96559243Y-69804284D01*
X96565235Y-69801490D01*
X96761762Y-69709849D01*
X96761767Y-69709846D01*
X96766749Y-69707523D01*
X96908458Y-69608297D01*
X96949789Y-69579357D01*
X96949792Y-69579355D01*
X96954300Y-69576198D01*
X97116198Y-69414300D01*
X97247523Y-69226749D01*
X97249846Y-69221767D01*
X97249849Y-69221762D01*
X97265805Y-69187543D01*
X97312722Y-69134258D01*
X97380999Y-69114797D01*
X97448959Y-69135339D01*
X97494195Y-69187543D01*
X97510151Y-69221762D01*
X97510154Y-69221767D01*
X97512477Y-69226749D01*
X97643802Y-69414300D01*
X97805700Y-69576198D01*
X97810208Y-69579355D01*
X97810211Y-69579357D01*
X97851542Y-69608297D01*
X97993251Y-69707523D01*
X97998233Y-69709846D01*
X97998238Y-69709849D01*
X98194765Y-69801490D01*
X98200757Y-69804284D01*
X98206065Y-69805706D01*
X98206067Y-69805707D01*
X98416598Y-69862119D01*
X98416600Y-69862119D01*
X98421913Y-69863543D01*
X98650000Y-69883498D01*
X98878087Y-69863543D01*
X98883400Y-69862119D01*
X98883402Y-69862119D01*
X99093933Y-69805707D01*
X99093935Y-69805706D01*
X99099243Y-69804284D01*
X99105235Y-69801490D01*
X99301762Y-69709849D01*
X99301767Y-69709846D01*
X99306749Y-69707523D01*
X99448458Y-69608297D01*
X99489789Y-69579357D01*
X99489792Y-69579355D01*
X99494300Y-69576198D01*
X99656198Y-69414300D01*
X99787523Y-69226749D01*
X99789846Y-69221767D01*
X99789849Y-69221762D01*
X99805805Y-69187543D01*
X99852722Y-69134258D01*
X99920999Y-69114797D01*
X99988959Y-69135339D01*
X100034195Y-69187543D01*
X100050151Y-69221762D01*
X100050154Y-69221767D01*
X100052477Y-69226749D01*
X100183802Y-69414300D01*
X100345700Y-69576198D01*
X100350208Y-69579355D01*
X100350211Y-69579357D01*
X100391542Y-69608297D01*
X100533251Y-69707523D01*
X100538233Y-69709846D01*
X100538238Y-69709849D01*
X100734765Y-69801490D01*
X100740757Y-69804284D01*
X100746065Y-69805706D01*
X100746067Y-69805707D01*
X100956598Y-69862119D01*
X100956600Y-69862119D01*
X100961913Y-69863543D01*
X101190000Y-69883498D01*
X101418087Y-69863543D01*
X101423400Y-69862119D01*
X101423402Y-69862119D01*
X101633933Y-69805707D01*
X101633935Y-69805706D01*
X101639243Y-69804284D01*
X101645235Y-69801490D01*
X101841762Y-69709849D01*
X101841767Y-69709846D01*
X101846749Y-69707523D01*
X101988458Y-69608297D01*
X102029789Y-69579357D01*
X102029792Y-69579355D01*
X102034300Y-69576198D01*
X102196198Y-69414300D01*
X102327523Y-69226749D01*
X102329846Y-69221767D01*
X102329849Y-69221762D01*
X102345805Y-69187543D01*
X102392722Y-69134258D01*
X102460999Y-69114797D01*
X102528959Y-69135339D01*
X102574195Y-69187543D01*
X102590151Y-69221762D01*
X102590154Y-69221767D01*
X102592477Y-69226749D01*
X102723802Y-69414300D01*
X102885700Y-69576198D01*
X102890208Y-69579355D01*
X102890211Y-69579357D01*
X102931542Y-69608297D01*
X103073251Y-69707523D01*
X103078233Y-69709846D01*
X103078238Y-69709849D01*
X103274765Y-69801490D01*
X103280757Y-69804284D01*
X103286065Y-69805706D01*
X103286067Y-69805707D01*
X103496598Y-69862119D01*
X103496600Y-69862119D01*
X103501913Y-69863543D01*
X103730000Y-69883498D01*
X103958087Y-69863543D01*
X103963400Y-69862119D01*
X103963402Y-69862119D01*
X104173933Y-69805707D01*
X104173935Y-69805706D01*
X104179243Y-69804284D01*
X104185235Y-69801490D01*
X104381762Y-69709849D01*
X104381767Y-69709846D01*
X104386749Y-69707523D01*
X104528458Y-69608297D01*
X104569789Y-69579357D01*
X104569792Y-69579355D01*
X104574300Y-69576198D01*
X104736198Y-69414300D01*
X104867523Y-69226749D01*
X104869846Y-69221767D01*
X104869849Y-69221762D01*
X104885805Y-69187543D01*
X104932722Y-69134258D01*
X105000999Y-69114797D01*
X105068959Y-69135339D01*
X105114195Y-69187543D01*
X105130151Y-69221762D01*
X105130154Y-69221767D01*
X105132477Y-69226749D01*
X105263802Y-69414300D01*
X105425700Y-69576198D01*
X105430208Y-69579355D01*
X105430211Y-69579357D01*
X105471542Y-69608297D01*
X105613251Y-69707523D01*
X105618233Y-69709846D01*
X105618238Y-69709849D01*
X105814765Y-69801490D01*
X105820757Y-69804284D01*
X105826065Y-69805706D01*
X105826067Y-69805707D01*
X106036598Y-69862119D01*
X106036600Y-69862119D01*
X106041913Y-69863543D01*
X106270000Y-69883498D01*
X106498087Y-69863543D01*
X106503400Y-69862119D01*
X106503402Y-69862119D01*
X106713933Y-69805707D01*
X106713935Y-69805706D01*
X106719243Y-69804284D01*
X106725235Y-69801490D01*
X106921762Y-69709849D01*
X106921767Y-69709846D01*
X106926749Y-69707523D01*
X107068458Y-69608297D01*
X107109789Y-69579357D01*
X107109792Y-69579355D01*
X107114300Y-69576198D01*
X107276198Y-69414300D01*
X107407523Y-69226749D01*
X107409846Y-69221767D01*
X107409849Y-69221762D01*
X107425805Y-69187543D01*
X107472722Y-69134258D01*
X107540999Y-69114797D01*
X107608959Y-69135339D01*
X107654195Y-69187543D01*
X107670151Y-69221762D01*
X107670154Y-69221767D01*
X107672477Y-69226749D01*
X107803802Y-69414300D01*
X107965700Y-69576198D01*
X107970208Y-69579355D01*
X107970211Y-69579357D01*
X108011542Y-69608297D01*
X108153251Y-69707523D01*
X108158233Y-69709846D01*
X108158238Y-69709849D01*
X108354765Y-69801490D01*
X108360757Y-69804284D01*
X108366065Y-69805706D01*
X108366067Y-69805707D01*
X108576598Y-69862119D01*
X108576600Y-69862119D01*
X108581913Y-69863543D01*
X108810000Y-69883498D01*
X109038087Y-69863543D01*
X109043400Y-69862119D01*
X109043402Y-69862119D01*
X109253933Y-69805707D01*
X109253935Y-69805706D01*
X109259243Y-69804284D01*
X109265235Y-69801490D01*
X109461762Y-69709849D01*
X109461767Y-69709846D01*
X109466749Y-69707523D01*
X109608458Y-69608297D01*
X109649789Y-69579357D01*
X109649792Y-69579355D01*
X109654300Y-69576198D01*
X109816198Y-69414300D01*
X109947523Y-69226749D01*
X109949846Y-69221767D01*
X109949849Y-69221762D01*
X109965805Y-69187543D01*
X110012722Y-69134258D01*
X110080999Y-69114797D01*
X110148959Y-69135339D01*
X110194195Y-69187543D01*
X110210151Y-69221762D01*
X110210154Y-69221767D01*
X110212477Y-69226749D01*
X110343802Y-69414300D01*
X110505700Y-69576198D01*
X110510208Y-69579355D01*
X110510211Y-69579357D01*
X110551542Y-69608297D01*
X110693251Y-69707523D01*
X110698233Y-69709846D01*
X110698238Y-69709849D01*
X110894765Y-69801490D01*
X110900757Y-69804284D01*
X110906065Y-69805706D01*
X110906067Y-69805707D01*
X111116598Y-69862119D01*
X111116600Y-69862119D01*
X111121913Y-69863543D01*
X111350000Y-69883498D01*
X111578087Y-69863543D01*
X111583400Y-69862119D01*
X111583402Y-69862119D01*
X111793933Y-69805707D01*
X111793935Y-69805706D01*
X111799243Y-69804284D01*
X111805235Y-69801490D01*
X112001762Y-69709849D01*
X112001767Y-69709846D01*
X112006749Y-69707523D01*
X112148458Y-69608297D01*
X112189789Y-69579357D01*
X112189792Y-69579355D01*
X112194300Y-69576198D01*
X112356198Y-69414300D01*
X112487523Y-69226749D01*
X112489846Y-69221767D01*
X112489849Y-69221762D01*
X112505805Y-69187543D01*
X112552722Y-69134258D01*
X112620999Y-69114797D01*
X112688959Y-69135339D01*
X112734195Y-69187543D01*
X112750151Y-69221762D01*
X112750154Y-69221767D01*
X112752477Y-69226749D01*
X112883802Y-69414300D01*
X113045700Y-69576198D01*
X113050208Y-69579355D01*
X113050211Y-69579357D01*
X113091542Y-69608297D01*
X113233251Y-69707523D01*
X113238233Y-69709846D01*
X113238238Y-69709849D01*
X113434765Y-69801490D01*
X113440757Y-69804284D01*
X113446065Y-69805706D01*
X113446067Y-69805707D01*
X113656598Y-69862119D01*
X113656600Y-69862119D01*
X113661913Y-69863543D01*
X113890000Y-69883498D01*
X114118087Y-69863543D01*
X114123400Y-69862119D01*
X114123402Y-69862119D01*
X114333933Y-69805707D01*
X114333935Y-69805706D01*
X114339243Y-69804284D01*
X114345235Y-69801490D01*
X114541762Y-69709849D01*
X114541767Y-69709846D01*
X114546749Y-69707523D01*
X114688458Y-69608297D01*
X114729789Y-69579357D01*
X114729792Y-69579355D01*
X114734300Y-69576198D01*
X114896198Y-69414300D01*
X115027523Y-69226749D01*
X115029846Y-69221767D01*
X115029849Y-69221762D01*
X115045805Y-69187543D01*
X115092722Y-69134258D01*
X115160999Y-69114797D01*
X115228959Y-69135339D01*
X115274195Y-69187543D01*
X115290151Y-69221762D01*
X115290154Y-69221767D01*
X115292477Y-69226749D01*
X115423802Y-69414300D01*
X115585700Y-69576198D01*
X115590208Y-69579355D01*
X115590211Y-69579357D01*
X115631542Y-69608297D01*
X115773251Y-69707523D01*
X115778233Y-69709846D01*
X115778238Y-69709849D01*
X115974765Y-69801490D01*
X115980757Y-69804284D01*
X115986065Y-69805706D01*
X115986067Y-69805707D01*
X116196598Y-69862119D01*
X116196600Y-69862119D01*
X116201913Y-69863543D01*
X116430000Y-69883498D01*
X116658087Y-69863543D01*
X116663400Y-69862119D01*
X116663402Y-69862119D01*
X116873933Y-69805707D01*
X116873935Y-69805706D01*
X116879243Y-69804284D01*
X116885235Y-69801490D01*
X117081762Y-69709849D01*
X117081767Y-69709846D01*
X117086749Y-69707523D01*
X117228458Y-69608297D01*
X117269789Y-69579357D01*
X117269792Y-69579355D01*
X117274300Y-69576198D01*
X117436198Y-69414300D01*
X117567523Y-69226749D01*
X117569846Y-69221767D01*
X117569849Y-69221762D01*
X117585805Y-69187543D01*
X117632722Y-69134258D01*
X117700999Y-69114797D01*
X117768959Y-69135339D01*
X117814195Y-69187543D01*
X117830151Y-69221762D01*
X117830154Y-69221767D01*
X117832477Y-69226749D01*
X117963802Y-69414300D01*
X118125700Y-69576198D01*
X118130208Y-69579355D01*
X118130211Y-69579357D01*
X118171542Y-69608297D01*
X118313251Y-69707523D01*
X118318233Y-69709846D01*
X118318238Y-69709849D01*
X118514765Y-69801490D01*
X118520757Y-69804284D01*
X118526065Y-69805706D01*
X118526067Y-69805707D01*
X118736598Y-69862119D01*
X118736600Y-69862119D01*
X118741913Y-69863543D01*
X118970000Y-69883498D01*
X119198087Y-69863543D01*
X119203400Y-69862119D01*
X119203402Y-69862119D01*
X119413933Y-69805707D01*
X119413935Y-69805706D01*
X119419243Y-69804284D01*
X119425235Y-69801490D01*
X119621762Y-69709849D01*
X119621767Y-69709846D01*
X119626749Y-69707523D01*
X119768458Y-69608297D01*
X119809789Y-69579357D01*
X119809792Y-69579355D01*
X119814300Y-69576198D01*
X119976198Y-69414300D01*
X120107523Y-69226749D01*
X120109846Y-69221767D01*
X120109849Y-69221762D01*
X120125805Y-69187543D01*
X120172722Y-69134258D01*
X120240999Y-69114797D01*
X120308959Y-69135339D01*
X120354195Y-69187543D01*
X120370151Y-69221762D01*
X120370154Y-69221767D01*
X120372477Y-69226749D01*
X120503802Y-69414300D01*
X120665700Y-69576198D01*
X120670208Y-69579355D01*
X120670211Y-69579357D01*
X120711542Y-69608297D01*
X120853251Y-69707523D01*
X120858233Y-69709846D01*
X120858238Y-69709849D01*
X121054765Y-69801490D01*
X121060757Y-69804284D01*
X121066065Y-69805706D01*
X121066067Y-69805707D01*
X121276598Y-69862119D01*
X121276600Y-69862119D01*
X121281913Y-69863543D01*
X121510000Y-69883498D01*
X121738087Y-69863543D01*
X121743400Y-69862119D01*
X121743402Y-69862119D01*
X121953933Y-69805707D01*
X121953935Y-69805706D01*
X121959243Y-69804284D01*
X121965235Y-69801490D01*
X122161762Y-69709849D01*
X122161767Y-69709846D01*
X122166749Y-69707523D01*
X122308458Y-69608297D01*
X122349789Y-69579357D01*
X122349792Y-69579355D01*
X122354300Y-69576198D01*
X122516198Y-69414300D01*
X122647523Y-69226749D01*
X122649846Y-69221767D01*
X122649849Y-69221762D01*
X122741961Y-69024225D01*
X122741961Y-69024224D01*
X122744284Y-69019243D01*
X122803543Y-68798087D01*
X122823498Y-68570000D01*
X122803543Y-68341913D01*
X122744284Y-68120757D01*
X122741500Y-68114787D01*
X122649849Y-67918238D01*
X122649846Y-67918233D01*
X122647523Y-67913251D01*
X122516198Y-67725700D01*
X122354300Y-67563802D01*
X122349792Y-67560645D01*
X122349789Y-67560643D01*
X122266888Y-67502595D01*
X122166749Y-67432477D01*
X122161767Y-67430154D01*
X122161762Y-67430151D01*
X121964225Y-67338039D01*
X121964224Y-67338039D01*
X121959243Y-67335716D01*
X121953935Y-67334294D01*
X121953933Y-67334293D01*
X121743402Y-67277881D01*
X121743400Y-67277881D01*
X121738087Y-67276457D01*
X121510000Y-67256502D01*
X121281913Y-67276457D01*
X121276600Y-67277881D01*
X121276598Y-67277881D01*
X121066067Y-67334293D01*
X121066065Y-67334294D01*
X121060757Y-67335716D01*
X121055776Y-67338039D01*
X121055775Y-67338039D01*
X120858238Y-67430151D01*
X120858233Y-67430154D01*
X120853251Y-67432477D01*
X120753112Y-67502595D01*
X120670211Y-67560643D01*
X120670208Y-67560645D01*
X120665700Y-67563802D01*
X120503802Y-67725700D01*
X120372477Y-67913251D01*
X120370154Y-67918233D01*
X120370151Y-67918238D01*
X120354195Y-67952457D01*
X120307278Y-68005742D01*
X120239001Y-68025203D01*
X120171041Y-68004661D01*
X120125805Y-67952457D01*
X120109849Y-67918238D01*
X120109846Y-67918233D01*
X120107523Y-67913251D01*
X119976198Y-67725700D01*
X119814300Y-67563802D01*
X119809792Y-67560645D01*
X119809789Y-67560643D01*
X119726888Y-67502595D01*
X119626749Y-67432477D01*
X119621767Y-67430154D01*
X119621762Y-67430151D01*
X119424225Y-67338039D01*
X119424224Y-67338039D01*
X119419243Y-67335716D01*
X119413935Y-67334294D01*
X119413933Y-67334293D01*
X119203402Y-67277881D01*
X119203400Y-67277881D01*
X119198087Y-67276457D01*
X118970000Y-67256502D01*
X118741913Y-67276457D01*
X118736600Y-67277881D01*
X118736598Y-67277881D01*
X118526067Y-67334293D01*
X118526065Y-67334294D01*
X118520757Y-67335716D01*
X118515776Y-67338039D01*
X118515775Y-67338039D01*
X118318238Y-67430151D01*
X118318233Y-67430154D01*
X118313251Y-67432477D01*
X118213112Y-67502595D01*
X118130211Y-67560643D01*
X118130208Y-67560645D01*
X118125700Y-67563802D01*
X117963802Y-67725700D01*
X117832477Y-67913251D01*
X117830154Y-67918233D01*
X117830151Y-67918238D01*
X117814195Y-67952457D01*
X117767278Y-68005742D01*
X117699001Y-68025203D01*
X117631041Y-68004661D01*
X117585805Y-67952457D01*
X117569849Y-67918238D01*
X117569846Y-67918233D01*
X117567523Y-67913251D01*
X117436198Y-67725700D01*
X117274300Y-67563802D01*
X117269792Y-67560645D01*
X117269789Y-67560643D01*
X117186888Y-67502595D01*
X117086749Y-67432477D01*
X117081767Y-67430154D01*
X117081762Y-67430151D01*
X116884225Y-67338039D01*
X116884224Y-67338039D01*
X116879243Y-67335716D01*
X116873935Y-67334294D01*
X116873933Y-67334293D01*
X116663402Y-67277881D01*
X116663400Y-67277881D01*
X116658087Y-67276457D01*
X116430000Y-67256502D01*
X116201913Y-67276457D01*
X116196600Y-67277881D01*
X116196598Y-67277881D01*
X115986067Y-67334293D01*
X115986065Y-67334294D01*
X115980757Y-67335716D01*
X115975776Y-67338039D01*
X115975775Y-67338039D01*
X115778238Y-67430151D01*
X115778233Y-67430154D01*
X115773251Y-67432477D01*
X115673112Y-67502595D01*
X115590211Y-67560643D01*
X115590208Y-67560645D01*
X115585700Y-67563802D01*
X115423802Y-67725700D01*
X115292477Y-67913251D01*
X115290154Y-67918233D01*
X115290151Y-67918238D01*
X115274195Y-67952457D01*
X115227278Y-68005742D01*
X115159001Y-68025203D01*
X115091041Y-68004661D01*
X115045805Y-67952457D01*
X115029849Y-67918238D01*
X115029846Y-67918233D01*
X115027523Y-67913251D01*
X114896198Y-67725700D01*
X114734300Y-67563802D01*
X114729792Y-67560645D01*
X114729789Y-67560643D01*
X114646888Y-67502595D01*
X114546749Y-67432477D01*
X114541767Y-67430154D01*
X114541762Y-67430151D01*
X114344225Y-67338039D01*
X114344224Y-67338039D01*
X114339243Y-67335716D01*
X114333935Y-67334294D01*
X114333933Y-67334293D01*
X114123402Y-67277881D01*
X114123400Y-67277881D01*
X114118087Y-67276457D01*
X113890000Y-67256502D01*
X113661913Y-67276457D01*
X113656600Y-67277881D01*
X113656598Y-67277881D01*
X113446067Y-67334293D01*
X113446065Y-67334294D01*
X113440757Y-67335716D01*
X113435776Y-67338039D01*
X113435775Y-67338039D01*
X113238238Y-67430151D01*
X113238233Y-67430154D01*
X113233251Y-67432477D01*
X113133112Y-67502595D01*
X113050211Y-67560643D01*
X113050208Y-67560645D01*
X113045700Y-67563802D01*
X112883802Y-67725700D01*
X112752477Y-67913251D01*
X112750154Y-67918233D01*
X112750151Y-67918238D01*
X112734195Y-67952457D01*
X112687278Y-68005742D01*
X112619001Y-68025203D01*
X112551041Y-68004661D01*
X112505805Y-67952457D01*
X112489849Y-67918238D01*
X112489846Y-67918233D01*
X112487523Y-67913251D01*
X112356198Y-67725700D01*
X112194300Y-67563802D01*
X112189792Y-67560645D01*
X112189789Y-67560643D01*
X112106888Y-67502595D01*
X112006749Y-67432477D01*
X112001767Y-67430154D01*
X112001762Y-67430151D01*
X111804225Y-67338039D01*
X111804224Y-67338039D01*
X111799243Y-67335716D01*
X111793935Y-67334294D01*
X111793933Y-67334293D01*
X111583402Y-67277881D01*
X111583400Y-67277881D01*
X111578087Y-67276457D01*
X111350000Y-67256502D01*
X111121913Y-67276457D01*
X111116600Y-67277881D01*
X111116598Y-67277881D01*
X110906067Y-67334293D01*
X110906065Y-67334294D01*
X110900757Y-67335716D01*
X110895776Y-67338039D01*
X110895775Y-67338039D01*
X110698238Y-67430151D01*
X110698233Y-67430154D01*
X110693251Y-67432477D01*
X110593112Y-67502595D01*
X110510211Y-67560643D01*
X110510208Y-67560645D01*
X110505700Y-67563802D01*
X110343802Y-67725700D01*
X110212477Y-67913251D01*
X110210154Y-67918233D01*
X110210151Y-67918238D01*
X110194195Y-67952457D01*
X110147278Y-68005742D01*
X110079001Y-68025203D01*
X110011041Y-68004661D01*
X109965805Y-67952457D01*
X109949849Y-67918238D01*
X109949846Y-67918233D01*
X109947523Y-67913251D01*
X109816198Y-67725700D01*
X109654300Y-67563802D01*
X109649792Y-67560645D01*
X109649789Y-67560643D01*
X109566888Y-67502595D01*
X109466749Y-67432477D01*
X109461767Y-67430154D01*
X109461762Y-67430151D01*
X109264225Y-67338039D01*
X109264224Y-67338039D01*
X109259243Y-67335716D01*
X109253935Y-67334294D01*
X109253933Y-67334293D01*
X109043402Y-67277881D01*
X109043400Y-67277881D01*
X109038087Y-67276457D01*
X108810000Y-67256502D01*
X108581913Y-67276457D01*
X108576600Y-67277881D01*
X108576598Y-67277881D01*
X108366067Y-67334293D01*
X108366065Y-67334294D01*
X108360757Y-67335716D01*
X108355776Y-67338039D01*
X108355775Y-67338039D01*
X108158238Y-67430151D01*
X108158233Y-67430154D01*
X108153251Y-67432477D01*
X108053112Y-67502595D01*
X107970211Y-67560643D01*
X107970208Y-67560645D01*
X107965700Y-67563802D01*
X107803802Y-67725700D01*
X107672477Y-67913251D01*
X107670154Y-67918233D01*
X107670151Y-67918238D01*
X107654195Y-67952457D01*
X107607278Y-68005742D01*
X107539001Y-68025203D01*
X107471041Y-68004661D01*
X107425805Y-67952457D01*
X107409849Y-67918238D01*
X107409846Y-67918233D01*
X107407523Y-67913251D01*
X107276198Y-67725700D01*
X107114300Y-67563802D01*
X107109790Y-67560644D01*
X107109784Y-67560639D01*
X107034230Y-67507736D01*
X106989901Y-67452279D01*
X106980500Y-67404523D01*
X106980500Y-63442397D01*
X106997380Y-63379398D01*
X107006527Y-63363556D01*
X107065542Y-63181928D01*
X107069626Y-63143077D01*
X107084814Y-62998565D01*
X107085504Y-62992000D01*
X107075125Y-62893248D01*
X107066232Y-62808635D01*
X107066232Y-62808633D01*
X107065542Y-62802072D01*
X107006527Y-62620444D01*
X106911040Y-62455056D01*
X106783253Y-62313134D01*
X106628752Y-62200882D01*
X106622724Y-62198198D01*
X106622722Y-62198197D01*
X106460319Y-62125891D01*
X106460318Y-62125891D01*
X106454288Y-62123206D01*
X106343137Y-62099580D01*
X106273944Y-62084872D01*
X106273939Y-62084872D01*
X106267487Y-62083500D01*
X106076513Y-62083500D01*
X106070061Y-62084872D01*
X106070056Y-62084872D01*
X106000863Y-62099580D01*
X105889712Y-62123206D01*
X105883682Y-62125891D01*
X105883681Y-62125891D01*
X105721278Y-62198197D01*
X105721276Y-62198198D01*
X105715248Y-62200882D01*
X105560747Y-62313134D01*
X105432960Y-62455056D01*
X105337473Y-62620444D01*
X105278458Y-62802072D01*
X105277768Y-62808633D01*
X105277768Y-62808635D01*
X105268875Y-62893248D01*
X105258496Y-62992000D01*
X105259186Y-62998565D01*
X105274375Y-63143077D01*
X105278458Y-63181928D01*
X105337473Y-63363556D01*
X105346620Y-63379398D01*
X105363500Y-63442397D01*
X105363500Y-67573812D01*
X105343498Y-67641933D01*
X105326595Y-67662907D01*
X105263802Y-67725700D01*
X105132477Y-67913251D01*
X105130154Y-67918233D01*
X105130151Y-67918238D01*
X105114195Y-67952457D01*
X105067278Y-68005742D01*
X104999001Y-68025203D01*
X104931041Y-68004661D01*
X104885805Y-67952457D01*
X104869849Y-67918238D01*
X104869846Y-67918233D01*
X104867523Y-67913251D01*
X104736198Y-67725700D01*
X104575405Y-67564907D01*
X104541379Y-67502595D01*
X104538500Y-67475812D01*
X104538500Y-58273215D01*
X104538507Y-58271893D01*
X104538903Y-58234161D01*
X104539586Y-58222314D01*
X104544814Y-58172566D01*
X104544814Y-58172565D01*
X104545504Y-58166000D01*
X104544814Y-58159435D01*
X104526232Y-57982635D01*
X104526232Y-57982633D01*
X104525542Y-57976072D01*
X104466527Y-57794444D01*
X104371040Y-57629056D01*
X104362737Y-57619834D01*
X104247675Y-57492045D01*
X104247674Y-57492044D01*
X104243253Y-57487134D01*
X104128829Y-57404000D01*
X104094094Y-57378763D01*
X104094093Y-57378762D01*
X104088752Y-57374882D01*
X104082724Y-57372198D01*
X104082722Y-57372197D01*
X103920319Y-57299891D01*
X103920318Y-57299891D01*
X103914288Y-57297206D01*
X103820887Y-57277353D01*
X103733944Y-57258872D01*
X103733939Y-57258872D01*
X103727487Y-57257500D01*
X103536513Y-57257500D01*
X103530061Y-57258872D01*
X103530056Y-57258872D01*
X103443113Y-57277353D01*
X103349712Y-57297206D01*
X103343682Y-57299891D01*
X103343681Y-57299891D01*
X103181278Y-57372197D01*
X103181276Y-57372198D01*
X103175248Y-57374882D01*
X103121409Y-57413999D01*
X103116561Y-57417521D01*
X103049694Y-57441379D01*
X102980542Y-57425299D01*
X102931062Y-57374386D01*
X102916500Y-57315585D01*
X102916500Y-55339082D01*
X102936502Y-55270961D01*
X102953405Y-55249987D01*
X103532032Y-54671360D01*
X103594344Y-54637334D01*
X103632108Y-54634934D01*
X103724524Y-54643019D01*
X103724525Y-54643019D01*
X103730000Y-54643498D01*
X103958087Y-54623543D01*
X103963400Y-54622119D01*
X103963402Y-54622119D01*
X104173933Y-54565707D01*
X104173935Y-54565706D01*
X104179243Y-54564284D01*
X104185235Y-54561490D01*
X104381762Y-54469849D01*
X104381767Y-54469846D01*
X104386749Y-54467523D01*
X104494230Y-54392264D01*
X104569789Y-54339357D01*
X104569792Y-54339355D01*
X104574300Y-54336198D01*
X104736198Y-54174300D01*
X104867523Y-53986749D01*
X104869846Y-53981767D01*
X104869849Y-53981762D01*
X104885805Y-53947543D01*
X104932722Y-53894258D01*
X105000999Y-53874797D01*
X105068959Y-53895339D01*
X105114195Y-53947543D01*
X105130151Y-53981762D01*
X105130154Y-53981767D01*
X105132477Y-53986749D01*
X105263802Y-54174300D01*
X105425700Y-54336198D01*
X105430208Y-54339355D01*
X105430211Y-54339357D01*
X105505770Y-54392264D01*
X105613251Y-54467523D01*
X105618233Y-54469846D01*
X105618238Y-54469849D01*
X105814765Y-54561490D01*
X105820757Y-54564284D01*
X105826065Y-54565706D01*
X105826067Y-54565707D01*
X106036598Y-54622119D01*
X106036600Y-54622119D01*
X106041913Y-54623543D01*
X106270000Y-54643498D01*
X106498087Y-54623543D01*
X106503400Y-54622119D01*
X106503402Y-54622119D01*
X106713933Y-54565707D01*
X106713935Y-54565706D01*
X106719243Y-54564284D01*
X106725235Y-54561490D01*
X106921762Y-54469849D01*
X106921767Y-54469846D01*
X106926749Y-54467523D01*
X107034230Y-54392264D01*
X107109789Y-54339357D01*
X107109792Y-54339355D01*
X107114300Y-54336198D01*
X107276198Y-54174300D01*
X107407523Y-53986749D01*
X107409846Y-53981767D01*
X107409849Y-53981762D01*
X107425805Y-53947543D01*
X107472722Y-53894258D01*
X107540999Y-53874797D01*
X107608959Y-53895339D01*
X107654195Y-53947543D01*
X107670151Y-53981762D01*
X107670154Y-53981767D01*
X107672477Y-53986749D01*
X107803802Y-54174300D01*
X107965700Y-54336198D01*
X107970208Y-54339355D01*
X107970211Y-54339357D01*
X108045770Y-54392264D01*
X108153251Y-54467523D01*
X108158233Y-54469846D01*
X108158238Y-54469849D01*
X108354765Y-54561490D01*
X108360757Y-54564284D01*
X108366065Y-54565706D01*
X108366067Y-54565707D01*
X108576598Y-54622119D01*
X108576600Y-54622119D01*
X108581913Y-54623543D01*
X108810000Y-54643498D01*
X109038087Y-54623543D01*
X109043400Y-54622119D01*
X109043402Y-54622119D01*
X109253933Y-54565707D01*
X109253935Y-54565706D01*
X109259243Y-54564284D01*
X109265235Y-54561490D01*
X109461762Y-54469849D01*
X109461767Y-54469846D01*
X109466749Y-54467523D01*
X109574230Y-54392264D01*
X109649789Y-54339357D01*
X109649792Y-54339355D01*
X109654300Y-54336198D01*
X109816198Y-54174300D01*
X109947523Y-53986749D01*
X109949846Y-53981767D01*
X109949849Y-53981762D01*
X109965805Y-53947543D01*
X110012722Y-53894258D01*
X110080999Y-53874797D01*
X110148959Y-53895339D01*
X110194195Y-53947543D01*
X110210151Y-53981762D01*
X110210154Y-53981767D01*
X110212477Y-53986749D01*
X110343802Y-54174300D01*
X110505700Y-54336198D01*
X110510208Y-54339355D01*
X110510211Y-54339357D01*
X110585770Y-54392264D01*
X110693251Y-54467523D01*
X110698233Y-54469846D01*
X110698238Y-54469849D01*
X110894765Y-54561490D01*
X110900757Y-54564284D01*
X110906065Y-54565706D01*
X110906067Y-54565707D01*
X111116598Y-54622119D01*
X111116600Y-54622119D01*
X111121913Y-54623543D01*
X111350000Y-54643498D01*
X111578087Y-54623543D01*
X111583400Y-54622119D01*
X111583402Y-54622119D01*
X111793933Y-54565707D01*
X111793935Y-54565706D01*
X111799243Y-54564284D01*
X111805235Y-54561490D01*
X112001762Y-54469849D01*
X112001767Y-54469846D01*
X112006749Y-54467523D01*
X112114230Y-54392264D01*
X112189789Y-54339357D01*
X112189792Y-54339355D01*
X112194300Y-54336198D01*
X112356198Y-54174300D01*
X112487523Y-53986749D01*
X112489846Y-53981767D01*
X112489849Y-53981762D01*
X112505805Y-53947543D01*
X112552722Y-53894258D01*
X112620999Y-53874797D01*
X112688959Y-53895339D01*
X112734195Y-53947543D01*
X112750151Y-53981762D01*
X112750154Y-53981767D01*
X112752477Y-53986749D01*
X112883802Y-54174300D01*
X113045700Y-54336198D01*
X113050208Y-54339355D01*
X113050211Y-54339357D01*
X113125770Y-54392264D01*
X113233251Y-54467523D01*
X113238233Y-54469846D01*
X113238238Y-54469849D01*
X113434765Y-54561490D01*
X113440757Y-54564284D01*
X113446065Y-54565706D01*
X113446067Y-54565707D01*
X113656598Y-54622119D01*
X113656600Y-54622119D01*
X113661913Y-54623543D01*
X113890000Y-54643498D01*
X114118087Y-54623543D01*
X114123400Y-54622119D01*
X114123402Y-54622119D01*
X114333933Y-54565707D01*
X114333935Y-54565706D01*
X114339243Y-54564284D01*
X114345235Y-54561490D01*
X114541762Y-54469849D01*
X114541767Y-54469846D01*
X114546749Y-54467523D01*
X114654230Y-54392264D01*
X114729789Y-54339357D01*
X114729792Y-54339355D01*
X114734300Y-54336198D01*
X114896198Y-54174300D01*
X115027523Y-53986749D01*
X115029846Y-53981767D01*
X115029849Y-53981762D01*
X115045805Y-53947543D01*
X115092722Y-53894258D01*
X115160999Y-53874797D01*
X115228959Y-53895339D01*
X115274195Y-53947543D01*
X115290151Y-53981762D01*
X115290154Y-53981767D01*
X115292477Y-53986749D01*
X115423802Y-54174300D01*
X115585700Y-54336198D01*
X115590208Y-54339355D01*
X115590211Y-54339357D01*
X115665770Y-54392264D01*
X115773251Y-54467523D01*
X115778233Y-54469846D01*
X115778238Y-54469849D01*
X115974765Y-54561490D01*
X115980757Y-54564284D01*
X115986065Y-54565706D01*
X115986067Y-54565707D01*
X116196598Y-54622119D01*
X116196600Y-54622119D01*
X116201913Y-54623543D01*
X116430000Y-54643498D01*
X116658087Y-54623543D01*
X116663400Y-54622119D01*
X116663402Y-54622119D01*
X116873933Y-54565707D01*
X116873935Y-54565706D01*
X116879243Y-54564284D01*
X116885235Y-54561490D01*
X117081762Y-54469849D01*
X117081767Y-54469846D01*
X117086749Y-54467523D01*
X117194230Y-54392264D01*
X117269789Y-54339357D01*
X117269792Y-54339355D01*
X117274300Y-54336198D01*
X117436198Y-54174300D01*
X117567523Y-53986749D01*
X117569846Y-53981767D01*
X117569849Y-53981762D01*
X117585805Y-53947543D01*
X117632722Y-53894258D01*
X117700999Y-53874797D01*
X117768959Y-53895339D01*
X117814195Y-53947543D01*
X117830151Y-53981762D01*
X117830154Y-53981767D01*
X117832477Y-53986749D01*
X117963802Y-54174300D01*
X118125700Y-54336198D01*
X118130208Y-54339355D01*
X118130211Y-54339357D01*
X118205770Y-54392264D01*
X118313251Y-54467523D01*
X118318233Y-54469846D01*
X118318238Y-54469849D01*
X118514765Y-54561490D01*
X118520757Y-54564284D01*
X118526065Y-54565706D01*
X118526067Y-54565707D01*
X118736598Y-54622119D01*
X118736600Y-54622119D01*
X118741913Y-54623543D01*
X118970000Y-54643498D01*
X119198087Y-54623543D01*
X119203400Y-54622119D01*
X119203402Y-54622119D01*
X119413933Y-54565707D01*
X119413935Y-54565706D01*
X119419243Y-54564284D01*
X119425235Y-54561490D01*
X119621762Y-54469849D01*
X119621767Y-54469846D01*
X119626749Y-54467523D01*
X119734230Y-54392264D01*
X119809789Y-54339357D01*
X119809792Y-54339355D01*
X119814300Y-54336198D01*
X119976198Y-54174300D01*
X120107523Y-53986749D01*
X120109846Y-53981767D01*
X120109849Y-53981762D01*
X120125805Y-53947543D01*
X120172722Y-53894258D01*
X120240999Y-53874797D01*
X120308959Y-53895339D01*
X120354195Y-53947543D01*
X120370151Y-53981762D01*
X120370154Y-53981767D01*
X120372477Y-53986749D01*
X120503802Y-54174300D01*
X120665700Y-54336198D01*
X120670208Y-54339355D01*
X120670211Y-54339357D01*
X120745770Y-54392264D01*
X120853251Y-54467523D01*
X120858233Y-54469846D01*
X120858238Y-54469849D01*
X121054765Y-54561490D01*
X121060757Y-54564284D01*
X121066065Y-54565706D01*
X121066067Y-54565707D01*
X121276598Y-54622119D01*
X121276600Y-54622119D01*
X121281913Y-54623543D01*
X121510000Y-54643498D01*
X121738087Y-54623543D01*
X121743400Y-54622119D01*
X121743402Y-54622119D01*
X121953933Y-54565707D01*
X121953935Y-54565706D01*
X121959243Y-54564284D01*
X121965235Y-54561490D01*
X122161762Y-54469849D01*
X122161767Y-54469846D01*
X122166749Y-54467523D01*
X122274230Y-54392264D01*
X122349789Y-54339357D01*
X122349792Y-54339355D01*
X122354300Y-54336198D01*
X122516198Y-54174300D01*
X122647523Y-53986749D01*
X122649846Y-53981767D01*
X122649849Y-53981762D01*
X122741961Y-53784225D01*
X122741961Y-53784224D01*
X122744284Y-53779243D01*
X122803543Y-53558087D01*
X122823498Y-53330000D01*
X122803543Y-53101913D01*
X122760899Y-52942765D01*
X122745707Y-52886067D01*
X122745706Y-52886065D01*
X122744284Y-52880757D01*
X122741961Y-52875775D01*
X122649849Y-52678238D01*
X122649846Y-52678233D01*
X122647523Y-52673251D01*
X122516198Y-52485700D01*
X122354300Y-52323802D01*
X122349792Y-52320645D01*
X122349789Y-52320643D01*
X122271611Y-52265902D01*
X122166749Y-52192477D01*
X122161767Y-52190154D01*
X122161762Y-52190151D01*
X121964225Y-52098039D01*
X121964224Y-52098039D01*
X121959243Y-52095716D01*
X121953935Y-52094294D01*
X121953933Y-52094293D01*
X121743402Y-52037881D01*
X121743400Y-52037881D01*
X121738087Y-52036457D01*
X121510000Y-52016502D01*
X121281913Y-52036457D01*
X121276600Y-52037881D01*
X121276598Y-52037881D01*
X121066067Y-52094293D01*
X121066065Y-52094294D01*
X121060757Y-52095716D01*
X121055776Y-52098039D01*
X121055775Y-52098039D01*
X120858238Y-52190151D01*
X120858233Y-52190154D01*
X120853251Y-52192477D01*
X120748389Y-52265902D01*
X120670211Y-52320643D01*
X120670208Y-52320645D01*
X120665700Y-52323802D01*
X120503802Y-52485700D01*
X120372477Y-52673251D01*
X120370154Y-52678233D01*
X120370151Y-52678238D01*
X120354195Y-52712457D01*
X120307278Y-52765742D01*
X120239001Y-52785203D01*
X120171041Y-52764661D01*
X120125805Y-52712457D01*
X120109849Y-52678238D01*
X120109846Y-52678233D01*
X120107523Y-52673251D01*
X119976198Y-52485700D01*
X119814300Y-52323802D01*
X119809792Y-52320645D01*
X119809789Y-52320643D01*
X119731611Y-52265902D01*
X119626749Y-52192477D01*
X119621767Y-52190154D01*
X119621762Y-52190151D01*
X119424225Y-52098039D01*
X119424224Y-52098039D01*
X119419243Y-52095716D01*
X119413935Y-52094294D01*
X119413933Y-52094293D01*
X119203402Y-52037881D01*
X119203400Y-52037881D01*
X119198087Y-52036457D01*
X118970000Y-52016502D01*
X118741913Y-52036457D01*
X118736600Y-52037881D01*
X118736598Y-52037881D01*
X118526067Y-52094293D01*
X118526065Y-52094294D01*
X118520757Y-52095716D01*
X118515776Y-52098039D01*
X118515775Y-52098039D01*
X118318238Y-52190151D01*
X118318233Y-52190154D01*
X118313251Y-52192477D01*
X118208389Y-52265902D01*
X118130211Y-52320643D01*
X118130208Y-52320645D01*
X118125700Y-52323802D01*
X117963802Y-52485700D01*
X117832477Y-52673251D01*
X117830154Y-52678233D01*
X117830151Y-52678238D01*
X117814195Y-52712457D01*
X117767278Y-52765742D01*
X117699001Y-52785203D01*
X117631041Y-52764661D01*
X117585805Y-52712457D01*
X117569849Y-52678238D01*
X117569846Y-52678233D01*
X117567523Y-52673251D01*
X117436198Y-52485700D01*
X117274300Y-52323802D01*
X117269792Y-52320645D01*
X117269789Y-52320643D01*
X117191611Y-52265902D01*
X117086749Y-52192477D01*
X117081767Y-52190154D01*
X117081762Y-52190151D01*
X116884225Y-52098039D01*
X116884224Y-52098039D01*
X116879243Y-52095716D01*
X116873935Y-52094294D01*
X116873933Y-52094293D01*
X116663402Y-52037881D01*
X116663400Y-52037881D01*
X116658087Y-52036457D01*
X116430000Y-52016502D01*
X116201913Y-52036457D01*
X116196600Y-52037881D01*
X116196598Y-52037881D01*
X115986067Y-52094293D01*
X115986065Y-52094294D01*
X115980757Y-52095716D01*
X115975776Y-52098039D01*
X115975775Y-52098039D01*
X115778238Y-52190151D01*
X115778233Y-52190154D01*
X115773251Y-52192477D01*
X115668389Y-52265902D01*
X115590211Y-52320643D01*
X115590208Y-52320645D01*
X115585700Y-52323802D01*
X115423802Y-52485700D01*
X115292477Y-52673251D01*
X115290154Y-52678233D01*
X115290151Y-52678238D01*
X115274195Y-52712457D01*
X115227278Y-52765742D01*
X115159001Y-52785203D01*
X115091041Y-52764661D01*
X115045805Y-52712457D01*
X115029849Y-52678238D01*
X115029846Y-52678233D01*
X115027523Y-52673251D01*
X114896198Y-52485700D01*
X114734300Y-52323802D01*
X114729792Y-52320645D01*
X114729789Y-52320643D01*
X114651611Y-52265902D01*
X114546749Y-52192477D01*
X114541767Y-52190154D01*
X114541762Y-52190151D01*
X114344225Y-52098039D01*
X114344224Y-52098039D01*
X114339243Y-52095716D01*
X114333935Y-52094294D01*
X114333933Y-52094293D01*
X114123402Y-52037881D01*
X114123400Y-52037881D01*
X114118087Y-52036457D01*
X113890000Y-52016502D01*
X113661913Y-52036457D01*
X113656600Y-52037881D01*
X113656598Y-52037881D01*
X113446067Y-52094293D01*
X113446065Y-52094294D01*
X113440757Y-52095716D01*
X113435776Y-52098039D01*
X113435775Y-52098039D01*
X113238238Y-52190151D01*
X113238233Y-52190154D01*
X113233251Y-52192477D01*
X113128389Y-52265902D01*
X113050211Y-52320643D01*
X113050208Y-52320645D01*
X113045700Y-52323802D01*
X112883802Y-52485700D01*
X112752477Y-52673251D01*
X112750154Y-52678233D01*
X112750151Y-52678238D01*
X112734195Y-52712457D01*
X112687278Y-52765742D01*
X112619001Y-52785203D01*
X112551041Y-52764661D01*
X112505805Y-52712457D01*
X112489849Y-52678238D01*
X112489846Y-52678233D01*
X112487523Y-52673251D01*
X112356198Y-52485700D01*
X112194300Y-52323802D01*
X112189792Y-52320645D01*
X112189789Y-52320643D01*
X112111611Y-52265902D01*
X112006749Y-52192477D01*
X112001767Y-52190154D01*
X112001762Y-52190151D01*
X111804225Y-52098039D01*
X111804224Y-52098039D01*
X111799243Y-52095716D01*
X111793935Y-52094294D01*
X111793933Y-52094293D01*
X111583402Y-52037881D01*
X111583400Y-52037881D01*
X111578087Y-52036457D01*
X111350000Y-52016502D01*
X111121913Y-52036457D01*
X111116600Y-52037881D01*
X111116598Y-52037881D01*
X110906067Y-52094293D01*
X110906065Y-52094294D01*
X110900757Y-52095716D01*
X110895776Y-52098039D01*
X110895775Y-52098039D01*
X110698238Y-52190151D01*
X110698233Y-52190154D01*
X110693251Y-52192477D01*
X110588389Y-52265902D01*
X110510211Y-52320643D01*
X110510208Y-52320645D01*
X110505700Y-52323802D01*
X110343802Y-52485700D01*
X110212477Y-52673251D01*
X110210154Y-52678233D01*
X110210151Y-52678238D01*
X110194195Y-52712457D01*
X110147278Y-52765742D01*
X110079001Y-52785203D01*
X110011041Y-52764661D01*
X109965805Y-52712457D01*
X109949849Y-52678238D01*
X109949846Y-52678233D01*
X109947523Y-52673251D01*
X109816198Y-52485700D01*
X109654300Y-52323802D01*
X109649792Y-52320645D01*
X109649789Y-52320643D01*
X109571611Y-52265902D01*
X109466749Y-52192477D01*
X109461767Y-52190154D01*
X109461762Y-52190151D01*
X109264225Y-52098039D01*
X109264224Y-52098039D01*
X109259243Y-52095716D01*
X109253935Y-52094294D01*
X109253933Y-52094293D01*
X109043402Y-52037881D01*
X109043400Y-52037881D01*
X109038087Y-52036457D01*
X108810000Y-52016502D01*
X108581913Y-52036457D01*
X108576600Y-52037881D01*
X108576598Y-52037881D01*
X108366067Y-52094293D01*
X108366065Y-52094294D01*
X108360757Y-52095716D01*
X108355776Y-52098039D01*
X108355775Y-52098039D01*
X108158238Y-52190151D01*
X108158233Y-52190154D01*
X108153251Y-52192477D01*
X108048389Y-52265902D01*
X107970211Y-52320643D01*
X107970208Y-52320645D01*
X107965700Y-52323802D01*
X107803802Y-52485700D01*
X107672477Y-52673251D01*
X107670154Y-52678233D01*
X107670151Y-52678238D01*
X107654195Y-52712457D01*
X107607278Y-52765742D01*
X107539001Y-52785203D01*
X107471041Y-52764661D01*
X107425805Y-52712457D01*
X107409849Y-52678238D01*
X107409846Y-52678233D01*
X107407523Y-52673251D01*
X107276198Y-52485700D01*
X107114300Y-52323802D01*
X107109792Y-52320645D01*
X107109789Y-52320643D01*
X107031611Y-52265902D01*
X106926749Y-52192477D01*
X106921767Y-52190154D01*
X106921762Y-52190151D01*
X106724225Y-52098039D01*
X106724224Y-52098039D01*
X106719243Y-52095716D01*
X106713935Y-52094294D01*
X106713933Y-52094293D01*
X106503402Y-52037881D01*
X106503400Y-52037881D01*
X106498087Y-52036457D01*
X106270000Y-52016502D01*
X106041913Y-52036457D01*
X106036600Y-52037881D01*
X106036598Y-52037881D01*
X105826067Y-52094293D01*
X105826065Y-52094294D01*
X105820757Y-52095716D01*
X105815776Y-52098039D01*
X105815775Y-52098039D01*
X105618238Y-52190151D01*
X105618233Y-52190154D01*
X105613251Y-52192477D01*
X105508389Y-52265902D01*
X105430211Y-52320643D01*
X105430208Y-52320645D01*
X105425700Y-52323802D01*
X105263802Y-52485700D01*
X105132477Y-52673251D01*
X105130154Y-52678233D01*
X105130151Y-52678238D01*
X105114195Y-52712457D01*
X105067278Y-52765742D01*
X104999001Y-52785203D01*
X104931041Y-52764661D01*
X104885805Y-52712457D01*
X104869849Y-52678238D01*
X104869846Y-52678233D01*
X104867523Y-52673251D01*
X104736198Y-52485700D01*
X104574300Y-52323802D01*
X104569792Y-52320645D01*
X104569789Y-52320643D01*
X104491611Y-52265902D01*
X104386749Y-52192477D01*
X104381767Y-52190154D01*
X104381762Y-52190151D01*
X104184225Y-52098039D01*
X104184224Y-52098039D01*
X104179243Y-52095716D01*
X104173935Y-52094294D01*
X104173933Y-52094293D01*
X103963402Y-52037881D01*
X103963400Y-52037881D01*
X103958087Y-52036457D01*
X103730000Y-52016502D01*
X103501913Y-52036457D01*
X103496600Y-52037881D01*
X103496598Y-52037881D01*
X103286067Y-52094293D01*
X103286065Y-52094294D01*
X103280757Y-52095716D01*
X103275776Y-52098039D01*
X103275775Y-52098039D01*
X103078238Y-52190151D01*
X103078233Y-52190154D01*
X103073251Y-52192477D01*
X102968389Y-52265902D01*
X102890211Y-52320643D01*
X102890208Y-52320645D01*
X102885700Y-52323802D01*
X102723802Y-52485700D01*
X102592477Y-52673251D01*
X102590154Y-52678233D01*
X102590151Y-52678238D01*
X102574195Y-52712457D01*
X102527278Y-52765742D01*
X102459001Y-52785203D01*
X102391041Y-52764661D01*
X102345805Y-52712457D01*
X102329849Y-52678238D01*
X102329846Y-52678233D01*
X102327523Y-52673251D01*
X102196198Y-52485700D01*
X102034300Y-52323802D01*
X102029792Y-52320645D01*
X102029789Y-52320643D01*
X101951611Y-52265902D01*
X101846749Y-52192477D01*
X101841767Y-52190154D01*
X101841762Y-52190151D01*
X101644225Y-52098039D01*
X101644224Y-52098039D01*
X101639243Y-52095716D01*
X101633935Y-52094294D01*
X101633933Y-52094293D01*
X101423402Y-52037881D01*
X101423400Y-52037881D01*
X101418087Y-52036457D01*
X101190000Y-52016502D01*
X100961913Y-52036457D01*
X100956600Y-52037881D01*
X100956598Y-52037881D01*
X100746067Y-52094293D01*
X100746065Y-52094294D01*
X100740757Y-52095716D01*
X100735776Y-52098039D01*
X100735775Y-52098039D01*
X100538238Y-52190151D01*
X100538233Y-52190154D01*
X100533251Y-52192477D01*
X100428389Y-52265902D01*
X100350211Y-52320643D01*
X100350208Y-52320645D01*
X100345700Y-52323802D01*
X100183802Y-52485700D01*
X100052477Y-52673251D01*
X100050154Y-52678233D01*
X100050151Y-52678238D01*
X100034195Y-52712457D01*
X99987278Y-52765742D01*
X99919001Y-52785203D01*
X99851041Y-52764661D01*
X99805805Y-52712457D01*
X99789849Y-52678238D01*
X99789846Y-52678233D01*
X99787523Y-52673251D01*
X99656198Y-52485700D01*
X99494300Y-52323802D01*
X99489792Y-52320645D01*
X99489789Y-52320643D01*
X99411611Y-52265902D01*
X99306749Y-52192477D01*
X99301767Y-52190154D01*
X99301762Y-52190151D01*
X99104225Y-52098039D01*
X99104224Y-52098039D01*
X99099243Y-52095716D01*
X99093935Y-52094294D01*
X99093933Y-52094293D01*
X98883402Y-52037881D01*
X98883400Y-52037881D01*
X98878087Y-52036457D01*
X98650000Y-52016502D01*
X98421913Y-52036457D01*
X98416600Y-52037881D01*
X98416598Y-52037881D01*
X98206067Y-52094293D01*
X98206065Y-52094294D01*
X98200757Y-52095716D01*
X98195776Y-52098039D01*
X98195775Y-52098039D01*
X97998238Y-52190151D01*
X97998233Y-52190154D01*
X97993251Y-52192477D01*
X97888389Y-52265902D01*
X97810211Y-52320643D01*
X97810208Y-52320645D01*
X97805700Y-52323802D01*
X97643802Y-52485700D01*
X97512477Y-52673251D01*
X97510154Y-52678233D01*
X97510151Y-52678238D01*
X97494195Y-52712457D01*
X97447278Y-52765742D01*
X97379001Y-52785203D01*
X97311041Y-52764661D01*
X97265805Y-52712457D01*
X97249849Y-52678238D01*
X97249846Y-52678233D01*
X97247523Y-52673251D01*
X97116198Y-52485700D01*
X96954300Y-52323802D01*
X96949792Y-52320645D01*
X96949789Y-52320643D01*
X96871611Y-52265902D01*
X96766749Y-52192477D01*
X96761767Y-52190154D01*
X96761762Y-52190151D01*
X96564225Y-52098039D01*
X96564224Y-52098039D01*
X96559243Y-52095716D01*
X96553935Y-52094294D01*
X96553933Y-52094293D01*
X96343402Y-52037881D01*
X96343400Y-52037881D01*
X96338087Y-52036457D01*
X96110000Y-52016502D01*
X95881913Y-52036457D01*
X95876600Y-52037881D01*
X95876598Y-52037881D01*
X95666067Y-52094293D01*
X95666065Y-52094294D01*
X95660757Y-52095716D01*
X95655776Y-52098039D01*
X95655775Y-52098039D01*
X95458238Y-52190151D01*
X95458233Y-52190154D01*
X95453251Y-52192477D01*
X95348389Y-52265902D01*
X95270211Y-52320643D01*
X95270208Y-52320645D01*
X95265700Y-52323802D01*
X95103802Y-52485700D01*
X94972477Y-52673251D01*
X94970154Y-52678233D01*
X94970151Y-52678238D01*
X94954195Y-52712457D01*
X94907278Y-52765742D01*
X94839001Y-52785203D01*
X94771041Y-52764661D01*
X94725805Y-52712457D01*
X94709849Y-52678238D01*
X94709846Y-52678233D01*
X94707523Y-52673251D01*
X94576198Y-52485700D01*
X94414300Y-52323802D01*
X94409792Y-52320645D01*
X94409789Y-52320643D01*
X94331611Y-52265902D01*
X94226749Y-52192477D01*
X94221767Y-52190154D01*
X94221762Y-52190151D01*
X94024225Y-52098039D01*
X94024224Y-52098039D01*
X94019243Y-52095716D01*
X94013935Y-52094294D01*
X94013933Y-52094293D01*
X93803402Y-52037881D01*
X93803400Y-52037881D01*
X93798087Y-52036457D01*
X93570000Y-52016502D01*
X93341913Y-52036457D01*
X93336600Y-52037881D01*
X93336598Y-52037881D01*
X93126067Y-52094293D01*
X93126065Y-52094294D01*
X93120757Y-52095716D01*
X93115776Y-52098039D01*
X93115775Y-52098039D01*
X92918238Y-52190151D01*
X92918233Y-52190154D01*
X92913251Y-52192477D01*
X92808389Y-52265902D01*
X92730211Y-52320643D01*
X92730208Y-52320645D01*
X92725700Y-52323802D01*
X92563802Y-52485700D01*
X92432477Y-52673251D01*
X92430154Y-52678233D01*
X92430151Y-52678238D01*
X92414195Y-52712457D01*
X92367278Y-52765742D01*
X92299001Y-52785203D01*
X92231041Y-52764661D01*
X92185805Y-52712457D01*
X92169849Y-52678238D01*
X92169846Y-52678233D01*
X92167523Y-52673251D01*
X92036198Y-52485700D01*
X91874300Y-52323802D01*
X91869792Y-52320645D01*
X91869789Y-52320643D01*
X91791611Y-52265902D01*
X91686749Y-52192477D01*
X91681767Y-52190154D01*
X91681762Y-52190151D01*
X91484225Y-52098039D01*
X91484224Y-52098039D01*
X91479243Y-52095716D01*
X91473935Y-52094294D01*
X91473933Y-52094293D01*
X91263402Y-52037881D01*
X91263400Y-52037881D01*
X91258087Y-52036457D01*
X91030000Y-52016502D01*
X90801913Y-52036457D01*
X90796600Y-52037881D01*
X90796598Y-52037881D01*
X90586067Y-52094293D01*
X90586065Y-52094294D01*
X90580757Y-52095716D01*
X90575776Y-52098039D01*
X90575775Y-52098039D01*
X90378238Y-52190151D01*
X90378233Y-52190154D01*
X90373251Y-52192477D01*
X90268389Y-52265902D01*
X90190211Y-52320643D01*
X90190208Y-52320645D01*
X90185700Y-52323802D01*
X90023802Y-52485700D01*
X89892477Y-52673251D01*
X89890154Y-52678233D01*
X89890151Y-52678238D01*
X89873919Y-52713049D01*
X89827002Y-52766334D01*
X89758725Y-52785795D01*
X89690765Y-52765253D01*
X89645529Y-52713049D01*
X89629414Y-52678489D01*
X89623931Y-52668993D01*
X89498972Y-52490533D01*
X89491916Y-52482125D01*
X89337875Y-52328084D01*
X89329467Y-52321028D01*
X89151007Y-52196069D01*
X89141511Y-52190586D01*
X88944053Y-52098510D01*
X88933761Y-52094764D01*
X88761497Y-52048606D01*
X88747401Y-52048942D01*
X88744000Y-52056884D01*
X88744000Y-54597967D01*
X88236000Y-54597967D01*
X88236000Y-52062033D01*
X88232027Y-52048502D01*
X88223478Y-52047273D01*
X88046239Y-52094764D01*
X88035947Y-52098510D01*
X87838489Y-52190586D01*
X87828993Y-52196069D01*
X87650533Y-52321028D01*
X87642125Y-52328084D01*
X87488084Y-52482125D01*
X87481028Y-52490533D01*
X87356069Y-52668993D01*
X87350586Y-52678489D01*
X87334471Y-52713049D01*
X87287554Y-52766334D01*
X87219277Y-52785795D01*
X87151317Y-52765253D01*
X87106081Y-52713049D01*
X87089849Y-52678238D01*
X87089846Y-52678233D01*
X87087523Y-52673251D01*
X86956198Y-52485700D01*
X86794300Y-52323802D01*
X86789792Y-52320645D01*
X86789789Y-52320643D01*
X86711611Y-52265902D01*
X86606749Y-52192477D01*
X86601767Y-52190154D01*
X86601762Y-52190151D01*
X86404225Y-52098039D01*
X86404224Y-52098039D01*
X86399243Y-52095716D01*
X86393935Y-52094294D01*
X86393933Y-52094293D01*
X86183402Y-52037881D01*
X86183400Y-52037881D01*
X86178087Y-52036457D01*
X85950000Y-52016502D01*
X85721913Y-52036457D01*
X85716600Y-52037881D01*
X85716598Y-52037881D01*
X85506067Y-52094293D01*
X85506065Y-52094294D01*
X85500757Y-52095716D01*
X85495776Y-52098039D01*
X85495775Y-52098039D01*
X85298238Y-52190151D01*
X85298233Y-52190154D01*
X85293251Y-52192477D01*
X85188389Y-52265902D01*
X85110211Y-52320643D01*
X85110208Y-52320645D01*
X85105700Y-52323802D01*
X84943802Y-52485700D01*
X84812477Y-52673251D01*
X84810154Y-52678233D01*
X84810151Y-52678238D01*
X84718039Y-52875775D01*
X84715716Y-52880757D01*
X84714294Y-52886065D01*
X84714293Y-52886067D01*
X84699101Y-52942765D01*
X84656457Y-53101913D01*
X84636502Y-53330000D01*
X81580500Y-53330000D01*
X81580500Y-52012397D01*
X81597380Y-51949398D01*
X81606527Y-51933556D01*
X81665542Y-51751928D01*
X81672119Y-51689357D01*
X81684814Y-51568565D01*
X81685504Y-51562000D01*
X81681196Y-51521012D01*
X81666232Y-51378635D01*
X81666232Y-51378633D01*
X81665542Y-51372072D01*
X81606527Y-51190444D01*
X81511040Y-51025056D01*
X81410507Y-50913402D01*
X81387675Y-50888045D01*
X81387674Y-50888044D01*
X81383253Y-50883134D01*
X81228752Y-50770882D01*
X81222724Y-50768198D01*
X81222722Y-50768197D01*
X81060319Y-50695891D01*
X81060318Y-50695891D01*
X81054288Y-50693206D01*
X80960888Y-50673353D01*
X80873944Y-50654872D01*
X80873939Y-50654872D01*
X80867487Y-50653500D01*
X80676513Y-50653500D01*
X80670061Y-50654872D01*
X80670056Y-50654872D01*
X80583113Y-50673353D01*
X80489712Y-50693206D01*
X80483682Y-50695891D01*
X80483681Y-50695891D01*
X80321278Y-50768197D01*
X80321276Y-50768198D01*
X80315248Y-50770882D01*
X80160747Y-50883134D01*
X80156326Y-50888044D01*
X80156325Y-50888045D01*
X80133494Y-50913402D01*
X80032960Y-51025056D01*
X79937473Y-51190444D01*
X79878458Y-51372072D01*
X79877768Y-51378633D01*
X79877768Y-51378635D01*
X79862804Y-51521012D01*
X79858496Y-51562000D01*
X79859186Y-51568565D01*
X79871882Y-51689357D01*
X79878458Y-51751928D01*
X79937473Y-51933556D01*
X79946620Y-51949398D01*
X79963500Y-52012397D01*
X79963500Y-61458786D01*
X79963493Y-61460106D01*
X79962549Y-61550221D01*
X79971711Y-61592597D01*
X79973769Y-61605163D01*
X79978603Y-61648255D01*
X79980919Y-61654906D01*
X79980920Y-61654910D01*
X79989633Y-61679930D01*
X79993796Y-61694742D01*
X80000881Y-61727510D01*
X80019208Y-61766813D01*
X80023990Y-61778589D01*
X80038255Y-61819552D01*
X80041989Y-61825527D01*
X80041990Y-61825530D01*
X80056027Y-61847995D01*
X80063366Y-61861512D01*
X80074559Y-61885514D01*
X80077538Y-61891902D01*
X80081855Y-61897467D01*
X80081856Y-61897469D01*
X80104106Y-61926153D01*
X80111402Y-61936612D01*
X80120104Y-61950538D01*
X80134374Y-61973376D01*
X80139334Y-61978371D01*
X80139335Y-61978372D01*
X80162976Y-62002179D01*
X80163561Y-62002804D01*
X80164078Y-62003470D01*
X80190067Y-62029459D01*
X80262185Y-62102082D01*
X80263222Y-62102740D01*
X80264451Y-62103843D01*
X82496035Y-64335426D01*
X84711908Y-66551299D01*
X84742646Y-66601457D01*
X84763473Y-66665556D01*
X84858960Y-66830944D01*
X84986747Y-66972866D01*
X85044086Y-67014525D01*
X85085419Y-67044556D01*
X85128773Y-67100779D01*
X85134848Y-67171515D01*
X85101716Y-67234306D01*
X85042482Y-67267951D01*
X85039684Y-67268255D01*
X85012595Y-67278410D01*
X84941788Y-67283592D01*
X84879420Y-67249670D01*
X84868812Y-67237658D01*
X84851893Y-67215846D01*
X84844598Y-67205388D01*
X84825358Y-67174596D01*
X84825356Y-67174593D01*
X84821626Y-67168624D01*
X84793024Y-67139821D01*
X84792439Y-67139196D01*
X84791922Y-67138530D01*
X84765932Y-67112540D01*
X84693815Y-67039918D01*
X84692778Y-67039260D01*
X84691549Y-67038157D01*
X80388092Y-62734700D01*
X80357354Y-62684542D01*
X80338568Y-62626725D01*
X80338567Y-62626724D01*
X80336527Y-62620444D01*
X80241040Y-62455056D01*
X80113253Y-62313134D01*
X79958752Y-62200882D01*
X79952724Y-62198198D01*
X79952722Y-62198197D01*
X79790319Y-62125891D01*
X79790318Y-62125891D01*
X79784288Y-62123206D01*
X79673137Y-62099580D01*
X79603944Y-62084872D01*
X79603939Y-62084872D01*
X79597487Y-62083500D01*
X79406513Y-62083500D01*
X79400061Y-62084872D01*
X79400056Y-62084872D01*
X79330863Y-62099580D01*
X79219712Y-62123206D01*
X79213682Y-62125891D01*
X79213681Y-62125891D01*
X79051278Y-62198197D01*
X79051276Y-62198198D01*
X79045248Y-62200882D01*
X78890747Y-62313134D01*
X78762960Y-62455056D01*
X78667473Y-62620444D01*
X78608458Y-62802072D01*
X78607768Y-62808633D01*
X78607768Y-62808635D01*
X78598875Y-62893248D01*
X78588496Y-62992000D01*
X78589186Y-62998565D01*
X78604375Y-63143077D01*
X78608458Y-63181928D01*
X78667473Y-63363556D01*
X78670776Y-63369278D01*
X78670777Y-63369279D01*
X78686248Y-63396076D01*
X78762960Y-63528944D01*
X78890747Y-63670866D01*
X79045248Y-63783118D01*
X79051276Y-63785802D01*
X79051278Y-63785803D01*
X79212242Y-63857468D01*
X79250088Y-63883480D01*
X83338595Y-67971987D01*
X83372621Y-68034299D01*
X83375500Y-68061082D01*
X83375500Y-82851685D01*
X83355498Y-82919806D01*
X83301842Y-82966299D01*
X83231568Y-82976403D01*
X83166988Y-82946909D01*
X83132429Y-82898273D01*
X83113890Y-82851685D01*
X83017793Y-82610205D01*
X82987768Y-82553498D01*
X82851702Y-82296513D01*
X82851698Y-82296506D01*
X82850103Y-82293494D01*
X82649190Y-81996746D01*
X82638088Y-81983654D01*
X82469279Y-81784602D01*
X82417403Y-81723432D01*
X82157454Y-81476750D01*
X81872384Y-81259585D01*
X81869472Y-81257828D01*
X81869467Y-81257825D01*
X81568443Y-81076236D01*
X81568437Y-81076233D01*
X81565528Y-81074478D01*
X81240475Y-80923593D01*
X81070751Y-80866145D01*
X80904255Y-80809789D01*
X80904250Y-80809788D01*
X80901028Y-80808697D01*
X80702681Y-80764724D01*
X80554493Y-80731871D01*
X80554487Y-80731870D01*
X80551158Y-80731132D01*
X80547769Y-80730758D01*
X80547764Y-80730757D01*
X80198338Y-80692180D01*
X80198333Y-80692180D01*
X80194957Y-80691807D01*
X80191558Y-80691801D01*
X80191557Y-80691801D01*
X80022080Y-80691505D01*
X79836592Y-80691182D01*
X79723413Y-80703277D01*
X79483639Y-80728901D01*
X79483631Y-80728902D01*
X79480256Y-80729263D01*
X79130117Y-80805606D01*
X78790271Y-80919317D01*
X78787178Y-80920739D01*
X78787177Y-80920740D01*
X78780974Y-80923593D01*
X78464694Y-81069066D01*
X78157193Y-81253101D01*
X78154467Y-81255163D01*
X78154465Y-81255164D01*
X78148620Y-81259585D01*
X77871367Y-81469270D01*
X77610559Y-81715043D01*
X77377819Y-81987546D01*
X77375900Y-81990358D01*
X77375897Y-81990363D01*
X77341866Y-82040251D01*
X77175871Y-82283591D01*
X77007077Y-82599714D01*
X76873411Y-82932218D01*
X76872491Y-82935492D01*
X76872489Y-82935497D01*
X76869282Y-82946909D01*
X76776437Y-83277213D01*
X76717290Y-83630663D01*
X76716431Y-83645561D01*
X76706291Y-83821420D01*
X76682401Y-83888276D01*
X76626158Y-83931604D01*
X76555419Y-83937645D01*
X76492643Y-83904484D01*
X76457761Y-83842647D01*
X76454500Y-83814167D01*
X76454500Y-76208623D01*
X76454502Y-76207853D01*
X76454921Y-76139254D01*
X76454976Y-76130279D01*
X76446850Y-76101847D01*
X76443272Y-76085085D01*
X76440352Y-76064698D01*
X76439080Y-76055813D01*
X76428451Y-76032436D01*
X76422004Y-76014913D01*
X76417416Y-75998862D01*
X76414949Y-75990229D01*
X76410156Y-75982632D01*
X76399170Y-75965220D01*
X76391030Y-75950135D01*
X76386165Y-75939435D01*
X76378792Y-75923218D01*
X76362030Y-75903765D01*
X76350927Y-75888761D01*
X76337224Y-75867042D01*
X76330499Y-75861103D01*
X76330496Y-75861099D01*
X76315062Y-75847468D01*
X76303018Y-75835276D01*
X76289573Y-75819673D01*
X76289570Y-75819671D01*
X76283713Y-75812873D01*
X76262165Y-75798906D01*
X76247291Y-75787615D01*
X76234783Y-75776569D01*
X76234782Y-75776568D01*
X76228049Y-75770622D01*
X76201287Y-75758057D01*
X76186309Y-75749737D01*
X76169017Y-75738529D01*
X76169012Y-75738527D01*
X76161485Y-75733648D01*
X76152892Y-75731078D01*
X76152887Y-75731076D01*
X76136880Y-75726289D01*
X76119436Y-75719628D01*
X76104324Y-75712533D01*
X76104322Y-75712532D01*
X76096200Y-75708719D01*
X76087333Y-75707338D01*
X76087332Y-75707338D01*
X76077690Y-75705837D01*
X76066983Y-75704170D01*
X76050268Y-75700387D01*
X76030534Y-75694485D01*
X76030528Y-75694484D01*
X76021934Y-75691914D01*
X76012963Y-75691859D01*
X76012962Y-75691859D01*
X76002903Y-75691798D01*
X75987494Y-75691704D01*
X75986711Y-75691671D01*
X75985614Y-75691500D01*
X75954623Y-75691500D01*
X75953853Y-75691498D01*
X75880215Y-75691048D01*
X75880214Y-75691048D01*
X75876279Y-75691024D01*
X75874935Y-75691408D01*
X75873590Y-75691500D01*
X56479421Y-75691500D01*
X56411300Y-75671498D01*
X56364807Y-75617842D01*
X56354703Y-75547568D01*
X56384197Y-75482988D01*
X56406253Y-75462921D01*
X56455135Y-75428054D01*
X56520860Y-75381173D01*
X56533330Y-75368747D01*
X56639195Y-75263251D01*
X56679096Y-75223489D01*
X56682966Y-75218104D01*
X56806435Y-75046277D01*
X56809453Y-75042077D01*
X56830320Y-74999857D01*
X56906136Y-74846453D01*
X56906137Y-74846451D01*
X56908430Y-74841811D01*
X56941698Y-74732314D01*
X56971865Y-74633023D01*
X56971865Y-74633021D01*
X56973370Y-74628069D01*
X57002529Y-74406590D01*
X57004156Y-74340000D01*
X56985852Y-74117361D01*
X56931431Y-73900702D01*
X56842354Y-73695840D01*
X56721014Y-73508277D01*
X56570670Y-73343051D01*
X56566625Y-73339857D01*
X56566616Y-73339848D01*
X56497408Y-73285191D01*
X56456345Y-73227274D01*
X56449500Y-73186309D01*
X56449500Y-61889408D01*
X56459845Y-61840737D01*
X56460527Y-61839556D01*
X56465085Y-61825530D01*
X56517502Y-61664206D01*
X56519542Y-61657928D01*
X56530139Y-61557108D01*
X56538814Y-61474565D01*
X56539504Y-61468000D01*
X56519542Y-61278072D01*
X56460527Y-61096444D01*
X56365040Y-60931056D01*
X56237253Y-60789134D01*
X56082752Y-60676882D01*
X56076724Y-60674198D01*
X56076722Y-60674197D01*
X55914319Y-60601891D01*
X55914318Y-60601891D01*
X55908288Y-60599206D01*
X55814887Y-60579353D01*
X55727944Y-60560872D01*
X55727939Y-60560872D01*
X55721487Y-60559500D01*
X55530513Y-60559500D01*
X55524061Y-60560872D01*
X55524056Y-60560872D01*
X55437113Y-60579353D01*
X55343712Y-60599206D01*
X55337682Y-60601891D01*
X55337681Y-60601891D01*
X55175278Y-60674197D01*
X55175276Y-60674198D01*
X55169248Y-60676882D01*
X55014747Y-60789134D01*
X54886960Y-60931056D01*
X54791473Y-61096444D01*
X54732458Y-61278072D01*
X54712496Y-61468000D01*
X54713186Y-61474565D01*
X54721862Y-61557108D01*
X54732458Y-61657928D01*
X54791473Y-61839556D01*
X54794776Y-61845278D01*
X54794777Y-61845279D01*
X54815619Y-61881378D01*
X54832500Y-61944378D01*
X54832500Y-73185195D01*
X54812498Y-73253316D01*
X54782153Y-73285955D01*
X54740106Y-73317525D01*
X54740100Y-73317531D01*
X54735965Y-73320635D01*
X54732393Y-73324373D01*
X54732391Y-73324375D01*
X54654899Y-73405466D01*
X54581629Y-73482138D01*
X54474201Y-73639621D01*
X54419293Y-73684621D01*
X54348768Y-73692792D01*
X54285021Y-73661538D01*
X54264324Y-73637054D01*
X54183822Y-73512617D01*
X54183820Y-73512614D01*
X54181014Y-73508277D01*
X54030670Y-73343051D01*
X54026619Y-73339852D01*
X54026615Y-73339848D01*
X53859414Y-73207800D01*
X53859410Y-73207798D01*
X53855359Y-73204598D01*
X53822229Y-73186309D01*
X53727970Y-73134276D01*
X53659789Y-73096638D01*
X53654920Y-73094914D01*
X53654916Y-73094912D01*
X53454087Y-73023795D01*
X53454083Y-73023794D01*
X53449212Y-73022069D01*
X53444119Y-73021162D01*
X53444116Y-73021161D01*
X53234373Y-72983800D01*
X53234367Y-72983799D01*
X53229284Y-72982894D01*
X53155452Y-72981992D01*
X53011081Y-72980228D01*
X53011079Y-72980228D01*
X53005911Y-72980165D01*
X52785091Y-73013955D01*
X52572756Y-73083357D01*
X52374607Y-73186507D01*
X52370474Y-73189610D01*
X52370471Y-73189612D01*
X52243172Y-73285191D01*
X52195965Y-73320635D01*
X52192393Y-73324373D01*
X52114898Y-73405466D01*
X52053374Y-73440895D01*
X51982462Y-73437438D01*
X51924676Y-73396192D01*
X51905823Y-73362644D01*
X51864324Y-73251946D01*
X51855786Y-73236351D01*
X51779285Y-73134276D01*
X51766724Y-73121715D01*
X51664649Y-73045214D01*
X51649054Y-73036676D01*
X51528606Y-72991522D01*
X51513351Y-72987895D01*
X51462486Y-72982369D01*
X51455672Y-72982000D01*
X50833115Y-72982000D01*
X50817876Y-72986475D01*
X50816671Y-72987865D01*
X50815000Y-72995548D01*
X50815000Y-74468000D01*
X50794998Y-74536121D01*
X50741342Y-74582614D01*
X50689000Y-74594000D01*
X49221116Y-74594000D01*
X49205877Y-74598475D01*
X49204672Y-74599865D01*
X49203001Y-74607548D01*
X49203001Y-75234669D01*
X49203371Y-75241490D01*
X49208895Y-75292352D01*
X49212521Y-75307604D01*
X49257676Y-75428054D01*
X49266214Y-75443648D01*
X49300904Y-75489935D01*
X49325752Y-75556441D01*
X49310699Y-75625824D01*
X49260525Y-75676054D01*
X49200078Y-75691500D01*
X43814500Y-75691500D01*
X43746379Y-75671498D01*
X43699886Y-75617842D01*
X43688500Y-75565500D01*
X43688500Y-74067885D01*
X49203000Y-74067885D01*
X49207475Y-74083124D01*
X49208865Y-74084329D01*
X49216548Y-74086000D01*
X50288885Y-74086000D01*
X50304124Y-74081525D01*
X50305329Y-74080135D01*
X50307000Y-74072452D01*
X50307000Y-73000116D01*
X50302525Y-72984877D01*
X50301135Y-72983672D01*
X50293452Y-72982001D01*
X49666331Y-72982001D01*
X49659510Y-72982371D01*
X49608648Y-72987895D01*
X49593396Y-72991521D01*
X49472946Y-73036676D01*
X49457351Y-73045214D01*
X49355276Y-73121715D01*
X49342715Y-73134276D01*
X49266214Y-73236351D01*
X49257676Y-73251946D01*
X49212522Y-73372394D01*
X49208895Y-73387649D01*
X49203369Y-73438514D01*
X49203000Y-73445328D01*
X49203000Y-74067885D01*
X43688500Y-74067885D01*
X43688500Y-63666526D01*
X46447050Y-63666526D01*
X46459947Y-63935019D01*
X46512388Y-64198656D01*
X46513966Y-64203051D01*
X46591046Y-64417738D01*
X46603220Y-64451646D01*
X46605432Y-64455762D01*
X46605433Y-64455765D01*
X46643044Y-64525762D01*
X46730450Y-64688431D01*
X46733241Y-64692168D01*
X46733245Y-64692175D01*
X46800677Y-64782477D01*
X46891281Y-64903810D01*
X46894590Y-64907090D01*
X46894595Y-64907096D01*
X47064678Y-65075700D01*
X47082180Y-65093050D01*
X47085942Y-65095808D01*
X47085945Y-65095811D01*
X47148334Y-65141556D01*
X47298954Y-65251995D01*
X47303089Y-65254171D01*
X47303093Y-65254173D01*
X47532698Y-65374975D01*
X47536840Y-65377154D01*
X47790613Y-65465775D01*
X47795206Y-65466647D01*
X48050109Y-65515042D01*
X48050112Y-65515042D01*
X48054698Y-65515913D01*
X48182370Y-65520929D01*
X48318625Y-65526283D01*
X48318630Y-65526283D01*
X48323293Y-65526466D01*
X48427607Y-65515042D01*
X48585844Y-65497713D01*
X48585850Y-65497712D01*
X48590497Y-65497203D01*
X48670777Y-65476067D01*
X48845918Y-65429956D01*
X48845920Y-65429955D01*
X48850441Y-65428765D01*
X48911528Y-65402520D01*
X49093120Y-65324502D01*
X49093122Y-65324501D01*
X49097414Y-65322657D01*
X49216071Y-65249230D01*
X49322017Y-65183669D01*
X49322021Y-65183666D01*
X49325990Y-65181210D01*
X49531149Y-65007530D01*
X49708382Y-64805434D01*
X49723149Y-64782477D01*
X49851269Y-64583291D01*
X49853797Y-64579361D01*
X49964199Y-64334278D01*
X49985821Y-64257612D01*
X50035893Y-64080072D01*
X50035894Y-64080069D01*
X50037163Y-64075568D01*
X50055043Y-63935019D01*
X50070688Y-63812045D01*
X50070688Y-63812041D01*
X50071086Y-63808915D01*
X50071762Y-63783118D01*
X50073488Y-63717160D01*
X50073571Y-63714000D01*
X50053650Y-63445937D01*
X50038594Y-63379396D01*
X49995361Y-63188331D01*
X49995360Y-63188326D01*
X49994327Y-63183763D01*
X49896902Y-62933238D01*
X49763518Y-62699864D01*
X49751440Y-62684542D01*
X49696397Y-62614721D01*
X49597105Y-62488769D01*
X49401317Y-62304591D01*
X49180457Y-62151374D01*
X49145271Y-62134022D01*
X48943564Y-62034551D01*
X48943561Y-62034550D01*
X48939376Y-62032486D01*
X48891745Y-62017239D01*
X48837621Y-61999914D01*
X48683370Y-61950538D01*
X48678763Y-61949788D01*
X48678760Y-61949787D01*
X48422674Y-61908081D01*
X48422675Y-61908081D01*
X48418063Y-61907330D01*
X48287719Y-61905624D01*
X48153961Y-61903873D01*
X48153958Y-61903873D01*
X48149284Y-61903812D01*
X47882937Y-61940060D01*
X47878451Y-61941368D01*
X47878449Y-61941368D01*
X47859288Y-61946953D01*
X47624874Y-62015278D01*
X47380763Y-62127815D01*
X47341590Y-62153498D01*
X47159881Y-62272631D01*
X47159876Y-62272635D01*
X47155968Y-62275197D01*
X46955426Y-62454188D01*
X46783544Y-62660854D01*
X46644096Y-62890656D01*
X46540148Y-63138545D01*
X46473981Y-63399077D01*
X46447050Y-63666526D01*
X43688500Y-63666526D01*
X43688500Y-60058669D01*
X46452001Y-60058669D01*
X46452371Y-60065490D01*
X46457895Y-60116352D01*
X46461521Y-60131604D01*
X46506676Y-60252054D01*
X46515214Y-60267649D01*
X46591715Y-60369724D01*
X46604276Y-60382285D01*
X46706351Y-60458786D01*
X46721946Y-60467324D01*
X46842394Y-60512478D01*
X46857649Y-60516105D01*
X46908514Y-60521631D01*
X46915328Y-60522000D01*
X47987885Y-60522000D01*
X48003124Y-60517525D01*
X48004329Y-60516135D01*
X48006000Y-60508452D01*
X48006000Y-60503884D01*
X48514000Y-60503884D01*
X48518475Y-60519123D01*
X48519865Y-60520328D01*
X48527548Y-60521999D01*
X49604669Y-60521999D01*
X49611490Y-60521629D01*
X49662352Y-60516105D01*
X49677604Y-60512479D01*
X49798054Y-60467324D01*
X49813649Y-60458786D01*
X49915724Y-60382285D01*
X49928285Y-60369724D01*
X50004786Y-60267649D01*
X50013324Y-60252054D01*
X50058478Y-60131606D01*
X50062105Y-60116351D01*
X50067631Y-60065486D01*
X50068000Y-60058672D01*
X50068000Y-58986115D01*
X50063525Y-58970876D01*
X50062135Y-58969671D01*
X50054452Y-58968000D01*
X48532115Y-58968000D01*
X48516876Y-58972475D01*
X48515671Y-58973865D01*
X48514000Y-58981548D01*
X48514000Y-60503884D01*
X48006000Y-60503884D01*
X48006000Y-58986115D01*
X48001525Y-58970876D01*
X48000135Y-58969671D01*
X47992452Y-58968000D01*
X46470116Y-58968000D01*
X46454877Y-58972475D01*
X46453672Y-58973865D01*
X46452001Y-58981548D01*
X46452001Y-60058669D01*
X43688500Y-60058669D01*
X43688500Y-58441885D01*
X46452000Y-58441885D01*
X46456475Y-58457124D01*
X46457865Y-58458329D01*
X46465548Y-58460000D01*
X47987885Y-58460000D01*
X48003124Y-58455525D01*
X48004329Y-58454135D01*
X48006000Y-58446452D01*
X48006000Y-58441885D01*
X48514000Y-58441885D01*
X48518475Y-58457124D01*
X48519865Y-58458329D01*
X48527548Y-58460000D01*
X50049884Y-58460000D01*
X50065123Y-58455525D01*
X50066328Y-58454135D01*
X50067999Y-58446452D01*
X50067999Y-57810462D01*
X64772626Y-57810462D01*
X64773206Y-57816593D01*
X64776941Y-57856109D01*
X64777500Y-57867967D01*
X64777500Y-63804157D01*
X64776763Y-63817764D01*
X64775531Y-63829109D01*
X64772676Y-63855388D01*
X64774700Y-63878520D01*
X64777050Y-63905388D01*
X64777379Y-63910214D01*
X64777500Y-63912686D01*
X64777500Y-63915769D01*
X64777801Y-63918837D01*
X64781690Y-63958506D01*
X64781812Y-63959819D01*
X64785685Y-64004084D01*
X64789913Y-64052413D01*
X64791400Y-64057532D01*
X64791920Y-64062833D01*
X64818791Y-64151834D01*
X64819126Y-64152967D01*
X64842395Y-64233056D01*
X64845091Y-64242336D01*
X64847544Y-64247068D01*
X64849084Y-64252169D01*
X64851978Y-64257612D01*
X64892731Y-64334260D01*
X64893343Y-64335426D01*
X64923043Y-64392721D01*
X64936108Y-64417926D01*
X64939431Y-64422089D01*
X64941934Y-64426796D01*
X65000755Y-64498918D01*
X65001446Y-64499774D01*
X65032738Y-64538973D01*
X65035242Y-64541477D01*
X65035884Y-64542195D01*
X65039585Y-64546528D01*
X65066935Y-64580062D01*
X65071682Y-64583989D01*
X65071684Y-64583991D01*
X65102262Y-64609287D01*
X65111042Y-64617277D01*
X65818268Y-65324502D01*
X66504882Y-66011116D01*
X66538907Y-66073428D01*
X66541308Y-66089227D01*
X66546457Y-66148087D01*
X66605716Y-66369243D01*
X66608039Y-66374224D01*
X66608039Y-66374225D01*
X66700151Y-66571762D01*
X66700154Y-66571767D01*
X66702477Y-66576749D01*
X66705634Y-66581257D01*
X66808713Y-66728469D01*
X66831500Y-66800740D01*
X66831500Y-70119260D01*
X66808713Y-70191531D01*
X66702477Y-70343251D01*
X66700154Y-70348233D01*
X66700151Y-70348238D01*
X66608039Y-70545775D01*
X66605716Y-70550757D01*
X66546457Y-70771913D01*
X66526502Y-71000000D01*
X66546457Y-71228087D01*
X66605716Y-71449243D01*
X66608039Y-71454224D01*
X66608039Y-71454225D01*
X66700151Y-71651762D01*
X66700154Y-71651767D01*
X66702477Y-71656749D01*
X66833802Y-71844300D01*
X66995700Y-72006198D01*
X67000208Y-72009355D01*
X67000211Y-72009357D01*
X67078389Y-72064098D01*
X67183251Y-72137523D01*
X67188233Y-72139846D01*
X67188238Y-72139849D01*
X67385775Y-72231961D01*
X67390757Y-72234284D01*
X67396065Y-72235706D01*
X67396067Y-72235707D01*
X67606598Y-72292119D01*
X67606600Y-72292119D01*
X67611913Y-72293543D01*
X67840000Y-72313498D01*
X68068087Y-72293543D01*
X68073400Y-72292119D01*
X68073402Y-72292119D01*
X68283933Y-72235707D01*
X68283935Y-72235706D01*
X68289243Y-72234284D01*
X68294225Y-72231961D01*
X68491762Y-72139849D01*
X68491767Y-72139846D01*
X68496749Y-72137523D01*
X68601611Y-72064098D01*
X68679789Y-72009357D01*
X68679792Y-72009355D01*
X68684300Y-72006198D01*
X68846198Y-71844300D01*
X68977523Y-71656749D01*
X68979846Y-71651767D01*
X68979849Y-71651762D01*
X69071961Y-71454225D01*
X69071961Y-71454224D01*
X69074284Y-71449243D01*
X69133543Y-71228087D01*
X69153498Y-71000000D01*
X76686502Y-71000000D01*
X76706457Y-71228087D01*
X76765716Y-71449243D01*
X76768039Y-71454224D01*
X76768039Y-71454225D01*
X76860151Y-71651762D01*
X76860154Y-71651767D01*
X76862477Y-71656749D01*
X76993802Y-71844300D01*
X77155700Y-72006198D01*
X77160208Y-72009355D01*
X77160211Y-72009357D01*
X77238389Y-72064098D01*
X77343251Y-72137523D01*
X77348233Y-72139846D01*
X77348238Y-72139849D01*
X77545775Y-72231961D01*
X77550757Y-72234284D01*
X77556065Y-72235706D01*
X77556067Y-72235707D01*
X77766598Y-72292119D01*
X77766600Y-72292119D01*
X77771913Y-72293543D01*
X78000000Y-72313498D01*
X78228087Y-72293543D01*
X78233400Y-72292119D01*
X78233402Y-72292119D01*
X78443933Y-72235707D01*
X78443935Y-72235706D01*
X78449243Y-72234284D01*
X78454225Y-72231961D01*
X78651762Y-72139849D01*
X78651767Y-72139846D01*
X78656749Y-72137523D01*
X78761611Y-72064098D01*
X78839789Y-72009357D01*
X78839792Y-72009355D01*
X78844300Y-72006198D01*
X79006198Y-71844300D01*
X79137523Y-71656749D01*
X79139846Y-71651767D01*
X79139849Y-71651762D01*
X79231961Y-71454225D01*
X79231961Y-71454224D01*
X79234284Y-71449243D01*
X79293543Y-71228087D01*
X79313498Y-71000000D01*
X79293543Y-70771913D01*
X79234284Y-70550757D01*
X79231961Y-70545775D01*
X79139849Y-70348238D01*
X79139846Y-70348233D01*
X79137523Y-70343251D01*
X79006198Y-70155700D01*
X78844300Y-69993802D01*
X78839792Y-69990645D01*
X78839789Y-69990643D01*
X78686770Y-69883498D01*
X78656749Y-69862477D01*
X78651767Y-69860154D01*
X78651762Y-69860151D01*
X78454225Y-69768039D01*
X78454224Y-69768039D01*
X78449243Y-69765716D01*
X78443935Y-69764294D01*
X78443933Y-69764293D01*
X78233402Y-69707881D01*
X78233400Y-69707881D01*
X78228087Y-69706457D01*
X78000000Y-69686502D01*
X77771913Y-69706457D01*
X77766600Y-69707881D01*
X77766598Y-69707881D01*
X77556067Y-69764293D01*
X77556065Y-69764294D01*
X77550757Y-69765716D01*
X77545776Y-69768039D01*
X77545775Y-69768039D01*
X77348238Y-69860151D01*
X77348233Y-69860154D01*
X77343251Y-69862477D01*
X77313230Y-69883498D01*
X77160211Y-69990643D01*
X77160208Y-69990645D01*
X77155700Y-69993802D01*
X76993802Y-70155700D01*
X76862477Y-70343251D01*
X76860154Y-70348233D01*
X76860151Y-70348238D01*
X76768039Y-70545775D01*
X76765716Y-70550757D01*
X76706457Y-70771913D01*
X76686502Y-71000000D01*
X69153498Y-71000000D01*
X69133543Y-70771913D01*
X69074284Y-70550757D01*
X69071961Y-70545775D01*
X68979849Y-70348238D01*
X68979846Y-70348233D01*
X68977523Y-70343251D01*
X68871287Y-70191531D01*
X68848500Y-70119260D01*
X68848500Y-66800740D01*
X68871287Y-66728469D01*
X68974366Y-66581257D01*
X68977523Y-66576749D01*
X68979846Y-66571767D01*
X68979849Y-66571762D01*
X69071961Y-66374225D01*
X69071961Y-66374224D01*
X69074284Y-66369243D01*
X69092687Y-66300565D01*
X69132119Y-66153402D01*
X69132119Y-66153400D01*
X69133543Y-66148087D01*
X69153498Y-65920000D01*
X76686502Y-65920000D01*
X76706457Y-66148087D01*
X76707881Y-66153400D01*
X76707881Y-66153402D01*
X76747314Y-66300565D01*
X76765716Y-66369243D01*
X76768039Y-66374224D01*
X76768039Y-66374225D01*
X76860151Y-66571762D01*
X76860154Y-66571767D01*
X76862477Y-66576749D01*
X76993802Y-66764300D01*
X77155700Y-66926198D01*
X77160208Y-66929355D01*
X77160211Y-66929357D01*
X77215335Y-66967955D01*
X77343251Y-67057523D01*
X77348233Y-67059846D01*
X77348238Y-67059849D01*
X77545775Y-67151961D01*
X77550757Y-67154284D01*
X77556065Y-67155706D01*
X77556067Y-67155707D01*
X77766598Y-67212119D01*
X77766600Y-67212119D01*
X77771913Y-67213543D01*
X78000000Y-67233498D01*
X78228087Y-67213543D01*
X78233400Y-67212119D01*
X78233402Y-67212119D01*
X78443933Y-67155707D01*
X78443935Y-67155706D01*
X78449243Y-67154284D01*
X78454225Y-67151961D01*
X78651762Y-67059849D01*
X78651767Y-67059846D01*
X78656749Y-67057523D01*
X78784665Y-66967955D01*
X78839789Y-66929357D01*
X78839792Y-66929355D01*
X78844300Y-66926198D01*
X79006198Y-66764300D01*
X79137523Y-66576749D01*
X79139846Y-66571767D01*
X79139849Y-66571762D01*
X79231961Y-66374225D01*
X79231961Y-66374224D01*
X79234284Y-66369243D01*
X79252687Y-66300565D01*
X79292119Y-66153402D01*
X79292119Y-66153400D01*
X79293543Y-66148087D01*
X79313498Y-65920000D01*
X79293543Y-65691913D01*
X79289949Y-65678500D01*
X79235707Y-65476067D01*
X79235706Y-65476065D01*
X79234284Y-65470757D01*
X79221786Y-65443955D01*
X79139849Y-65268238D01*
X79139846Y-65268233D01*
X79137523Y-65263251D01*
X79018347Y-65093050D01*
X79009357Y-65080211D01*
X79009355Y-65080208D01*
X79006198Y-65075700D01*
X78844300Y-64913802D01*
X78839792Y-64910645D01*
X78839789Y-64910643D01*
X78694552Y-64808947D01*
X78656749Y-64782477D01*
X78651767Y-64780154D01*
X78651762Y-64780151D01*
X78454225Y-64688039D01*
X78454224Y-64688039D01*
X78449243Y-64685716D01*
X78443935Y-64684294D01*
X78443933Y-64684293D01*
X78233402Y-64627881D01*
X78233400Y-64627881D01*
X78228087Y-64626457D01*
X78000000Y-64606502D01*
X77771913Y-64626457D01*
X77766600Y-64627881D01*
X77766598Y-64627881D01*
X77556067Y-64684293D01*
X77556065Y-64684294D01*
X77550757Y-64685716D01*
X77545776Y-64688039D01*
X77545775Y-64688039D01*
X77348238Y-64780151D01*
X77348233Y-64780154D01*
X77343251Y-64782477D01*
X77305448Y-64808947D01*
X77160211Y-64910643D01*
X77160208Y-64910645D01*
X77155700Y-64913802D01*
X76993802Y-65075700D01*
X76990645Y-65080208D01*
X76990643Y-65080211D01*
X76981653Y-65093050D01*
X76862477Y-65263251D01*
X76860154Y-65268233D01*
X76860151Y-65268238D01*
X76778214Y-65443955D01*
X76765716Y-65470757D01*
X76764294Y-65476065D01*
X76764293Y-65476067D01*
X76710051Y-65678500D01*
X76706457Y-65691913D01*
X76686502Y-65920000D01*
X69153498Y-65920000D01*
X69133543Y-65691913D01*
X69129949Y-65678500D01*
X69075707Y-65476067D01*
X69075706Y-65476065D01*
X69074284Y-65470757D01*
X69061786Y-65443955D01*
X68979849Y-65268238D01*
X68979846Y-65268233D01*
X68977523Y-65263251D01*
X68858347Y-65093050D01*
X68849357Y-65080211D01*
X68849355Y-65080208D01*
X68846198Y-65075700D01*
X68684300Y-64913802D01*
X68679792Y-64910645D01*
X68679789Y-64910643D01*
X68534552Y-64808947D01*
X68496749Y-64782477D01*
X68491767Y-64780154D01*
X68491762Y-64780151D01*
X68294225Y-64688039D01*
X68294224Y-64688039D01*
X68289243Y-64685716D01*
X68283935Y-64684294D01*
X68283933Y-64684293D01*
X68215859Y-64666053D01*
X68068087Y-64626457D01*
X68009229Y-64621308D01*
X67943112Y-64595445D01*
X67931116Y-64584882D01*
X66831405Y-63485171D01*
X66797379Y-63422859D01*
X66794500Y-63396076D01*
X66794500Y-61946953D01*
X66814502Y-61878832D01*
X66868158Y-61832339D01*
X66938432Y-61822235D01*
X66994822Y-61847451D01*
X66995700Y-61846198D01*
X67183251Y-61977523D01*
X67188233Y-61979846D01*
X67188238Y-61979849D01*
X67385775Y-62071961D01*
X67390757Y-62074284D01*
X67396065Y-62075706D01*
X67396067Y-62075707D01*
X67606598Y-62132119D01*
X67606600Y-62132119D01*
X67611913Y-62133543D01*
X67840000Y-62153498D01*
X68068087Y-62133543D01*
X68073400Y-62132119D01*
X68073402Y-62132119D01*
X68283933Y-62075707D01*
X68283935Y-62075706D01*
X68289243Y-62074284D01*
X68294225Y-62071961D01*
X68491762Y-61979849D01*
X68491767Y-61979846D01*
X68496749Y-61977523D01*
X68637694Y-61878832D01*
X68679789Y-61849357D01*
X68679792Y-61849355D01*
X68684300Y-61846198D01*
X68846198Y-61684300D01*
X68869260Y-61651365D01*
X68904098Y-61601611D01*
X68977523Y-61496749D01*
X68979846Y-61491767D01*
X68979849Y-61491762D01*
X69071961Y-61294225D01*
X69071961Y-61294224D01*
X69074284Y-61289243D01*
X69078960Y-61271794D01*
X69132119Y-61073402D01*
X69132119Y-61073400D01*
X69133543Y-61068087D01*
X69153498Y-60840000D01*
X76686502Y-60840000D01*
X76706457Y-61068087D01*
X76707881Y-61073400D01*
X76707881Y-61073402D01*
X76761041Y-61271794D01*
X76765716Y-61289243D01*
X76768039Y-61294224D01*
X76768039Y-61294225D01*
X76860151Y-61491762D01*
X76860154Y-61491767D01*
X76862477Y-61496749D01*
X76935902Y-61601611D01*
X76970741Y-61651365D01*
X76993802Y-61684300D01*
X77155700Y-61846198D01*
X77160208Y-61849355D01*
X77160211Y-61849357D01*
X77202306Y-61878832D01*
X77343251Y-61977523D01*
X77348233Y-61979846D01*
X77348238Y-61979849D01*
X77545775Y-62071961D01*
X77550757Y-62074284D01*
X77556065Y-62075706D01*
X77556067Y-62075707D01*
X77766598Y-62132119D01*
X77766600Y-62132119D01*
X77771913Y-62133543D01*
X78000000Y-62153498D01*
X78228087Y-62133543D01*
X78233400Y-62132119D01*
X78233402Y-62132119D01*
X78443933Y-62075707D01*
X78443935Y-62075706D01*
X78449243Y-62074284D01*
X78454225Y-62071961D01*
X78651762Y-61979849D01*
X78651767Y-61979846D01*
X78656749Y-61977523D01*
X78797694Y-61878832D01*
X78839789Y-61849357D01*
X78839792Y-61849355D01*
X78844300Y-61846198D01*
X79006198Y-61684300D01*
X79029260Y-61651365D01*
X79064098Y-61601611D01*
X79137523Y-61496749D01*
X79139846Y-61491767D01*
X79139849Y-61491762D01*
X79231961Y-61294225D01*
X79231961Y-61294224D01*
X79234284Y-61289243D01*
X79238960Y-61271794D01*
X79292119Y-61073402D01*
X79292119Y-61073400D01*
X79293543Y-61068087D01*
X79313498Y-60840000D01*
X79293543Y-60611913D01*
X79288939Y-60594729D01*
X79235707Y-60396067D01*
X79235706Y-60396065D01*
X79234284Y-60390757D01*
X79231961Y-60385775D01*
X79139849Y-60188238D01*
X79139846Y-60188233D01*
X79137523Y-60183251D01*
X79050292Y-60058672D01*
X79009357Y-60000211D01*
X79009355Y-60000208D01*
X79006198Y-59995700D01*
X78844300Y-59833802D01*
X78839792Y-59830645D01*
X78839789Y-59830643D01*
X78739807Y-59760635D01*
X78656749Y-59702477D01*
X78651767Y-59700154D01*
X78651762Y-59700151D01*
X78454225Y-59608039D01*
X78454224Y-59608039D01*
X78449243Y-59605716D01*
X78443935Y-59604294D01*
X78443933Y-59604293D01*
X78233402Y-59547881D01*
X78233400Y-59547881D01*
X78228087Y-59546457D01*
X78000000Y-59526502D01*
X77771913Y-59546457D01*
X77766600Y-59547881D01*
X77766598Y-59547881D01*
X77556067Y-59604293D01*
X77556065Y-59604294D01*
X77550757Y-59605716D01*
X77545776Y-59608039D01*
X77545775Y-59608039D01*
X77348238Y-59700151D01*
X77348233Y-59700154D01*
X77343251Y-59702477D01*
X77260193Y-59760635D01*
X77160211Y-59830643D01*
X77160208Y-59830645D01*
X77155700Y-59833802D01*
X76993802Y-59995700D01*
X76990645Y-60000208D01*
X76990643Y-60000211D01*
X76949708Y-60058672D01*
X76862477Y-60183251D01*
X76860154Y-60188233D01*
X76860151Y-60188238D01*
X76768039Y-60385775D01*
X76765716Y-60390757D01*
X76764294Y-60396065D01*
X76764293Y-60396067D01*
X76711061Y-60594729D01*
X76706457Y-60611913D01*
X76686502Y-60840000D01*
X69153498Y-60840000D01*
X69133543Y-60611913D01*
X69128939Y-60594729D01*
X69075707Y-60396067D01*
X69075706Y-60396065D01*
X69074284Y-60390757D01*
X69071961Y-60385775D01*
X68979849Y-60188238D01*
X68979846Y-60188233D01*
X68977523Y-60183251D01*
X68890292Y-60058672D01*
X68849357Y-60000211D01*
X68849355Y-60000208D01*
X68846198Y-59995700D01*
X68684300Y-59833802D01*
X68679792Y-59830645D01*
X68679789Y-59830643D01*
X68579807Y-59760635D01*
X68496749Y-59702477D01*
X68491767Y-59700154D01*
X68491762Y-59700151D01*
X68294225Y-59608039D01*
X68294224Y-59608039D01*
X68289243Y-59605716D01*
X68283935Y-59604294D01*
X68283933Y-59604293D01*
X68073402Y-59547881D01*
X68073400Y-59547881D01*
X68068087Y-59546457D01*
X67840000Y-59526502D01*
X67611913Y-59546457D01*
X67606600Y-59547881D01*
X67606598Y-59547881D01*
X67396067Y-59604293D01*
X67396065Y-59604294D01*
X67390757Y-59605716D01*
X67385776Y-59608039D01*
X67385775Y-59608039D01*
X67188238Y-59700151D01*
X67188233Y-59700154D01*
X67183251Y-59702477D01*
X66995700Y-59833802D01*
X66994789Y-59832500D01*
X66936458Y-59858032D01*
X66866352Y-59846819D01*
X66813438Y-59799483D01*
X66794500Y-59733047D01*
X66794500Y-58283925D01*
X66814502Y-58215804D01*
X66831405Y-58194830D01*
X67931116Y-57095118D01*
X67993428Y-57061093D01*
X68009227Y-57058692D01*
X68068087Y-57053543D01*
X68215859Y-57013947D01*
X68283933Y-56995707D01*
X68283935Y-56995706D01*
X68289243Y-56994284D01*
X68304083Y-56987364D01*
X68491762Y-56899849D01*
X68491767Y-56899846D01*
X68496749Y-56897523D01*
X68601611Y-56824098D01*
X68679789Y-56769357D01*
X68679792Y-56769355D01*
X68684300Y-56766198D01*
X68846198Y-56604300D01*
X68977523Y-56416749D01*
X68979846Y-56411767D01*
X68979849Y-56411762D01*
X69071961Y-56214225D01*
X69071961Y-56214224D01*
X69074284Y-56209243D01*
X69133543Y-55988087D01*
X69153498Y-55760000D01*
X76686502Y-55760000D01*
X76706457Y-55988087D01*
X76765716Y-56209243D01*
X76768039Y-56214224D01*
X76768039Y-56214225D01*
X76860151Y-56411762D01*
X76860154Y-56411767D01*
X76862477Y-56416749D01*
X76993802Y-56604300D01*
X77155700Y-56766198D01*
X77160208Y-56769355D01*
X77160211Y-56769357D01*
X77238389Y-56824098D01*
X77343251Y-56897523D01*
X77348233Y-56899846D01*
X77348238Y-56899849D01*
X77535917Y-56987364D01*
X77550757Y-56994284D01*
X77556065Y-56995706D01*
X77556067Y-56995707D01*
X77766598Y-57052119D01*
X77766600Y-57052119D01*
X77771913Y-57053543D01*
X78000000Y-57073498D01*
X78228087Y-57053543D01*
X78233400Y-57052119D01*
X78233402Y-57052119D01*
X78443933Y-56995707D01*
X78443935Y-56995706D01*
X78449243Y-56994284D01*
X78464083Y-56987364D01*
X78651762Y-56899849D01*
X78651767Y-56899846D01*
X78656749Y-56897523D01*
X78761611Y-56824098D01*
X78839789Y-56769357D01*
X78839792Y-56769355D01*
X78844300Y-56766198D01*
X79006198Y-56604300D01*
X79137523Y-56416749D01*
X79139846Y-56411767D01*
X79139849Y-56411762D01*
X79231961Y-56214225D01*
X79231961Y-56214224D01*
X79234284Y-56209243D01*
X79293543Y-55988087D01*
X79313498Y-55760000D01*
X79293543Y-55531913D01*
X79234284Y-55310757D01*
X79205947Y-55249987D01*
X79139849Y-55108238D01*
X79139846Y-55108233D01*
X79137523Y-55103251D01*
X79006198Y-54915700D01*
X78844300Y-54753802D01*
X78839792Y-54750645D01*
X78839789Y-54750643D01*
X78686770Y-54643498D01*
X78656749Y-54622477D01*
X78651767Y-54620154D01*
X78651762Y-54620151D01*
X78454225Y-54528039D01*
X78454224Y-54528039D01*
X78449243Y-54525716D01*
X78443935Y-54524294D01*
X78443933Y-54524293D01*
X78233402Y-54467881D01*
X78233400Y-54467881D01*
X78228087Y-54466457D01*
X78000000Y-54446502D01*
X77771913Y-54466457D01*
X77766600Y-54467881D01*
X77766598Y-54467881D01*
X77556067Y-54524293D01*
X77556065Y-54524294D01*
X77550757Y-54525716D01*
X77545776Y-54528039D01*
X77545775Y-54528039D01*
X77348238Y-54620151D01*
X77348233Y-54620154D01*
X77343251Y-54622477D01*
X77313230Y-54643498D01*
X77160211Y-54750643D01*
X77160208Y-54750645D01*
X77155700Y-54753802D01*
X76993802Y-54915700D01*
X76862477Y-55103251D01*
X76860154Y-55108233D01*
X76860151Y-55108238D01*
X76794053Y-55249987D01*
X76765716Y-55310757D01*
X76706457Y-55531913D01*
X76686502Y-55760000D01*
X69153498Y-55760000D01*
X69133543Y-55531913D01*
X69074284Y-55310757D01*
X69045947Y-55249987D01*
X68979849Y-55108238D01*
X68979846Y-55108233D01*
X68977523Y-55103251D01*
X68871287Y-54951531D01*
X68848500Y-54879260D01*
X68848500Y-51560740D01*
X68871287Y-51488469D01*
X68974366Y-51341257D01*
X68977523Y-51336749D01*
X68979846Y-51331767D01*
X68979849Y-51331762D01*
X69071961Y-51134225D01*
X69071961Y-51134224D01*
X69074284Y-51129243D01*
X69118403Y-50964592D01*
X69132119Y-50913402D01*
X69132119Y-50913400D01*
X69133543Y-50908087D01*
X69153498Y-50680000D01*
X76686502Y-50680000D01*
X76706457Y-50908087D01*
X76707881Y-50913400D01*
X76707881Y-50913402D01*
X76721598Y-50964592D01*
X76765716Y-51129243D01*
X76768039Y-51134224D01*
X76768039Y-51134225D01*
X76860151Y-51331762D01*
X76860154Y-51331767D01*
X76862477Y-51336749D01*
X76865634Y-51341257D01*
X76941090Y-51449019D01*
X76993802Y-51524300D01*
X77155700Y-51686198D01*
X77160208Y-51689355D01*
X77160211Y-51689357D01*
X77238389Y-51744098D01*
X77343251Y-51817523D01*
X77348233Y-51819846D01*
X77348238Y-51819849D01*
X77545775Y-51911961D01*
X77550757Y-51914284D01*
X77556065Y-51915706D01*
X77556067Y-51915707D01*
X77766598Y-51972119D01*
X77766600Y-51972119D01*
X77771913Y-51973543D01*
X78000000Y-51993498D01*
X78228087Y-51973543D01*
X78233400Y-51972119D01*
X78233402Y-51972119D01*
X78443933Y-51915707D01*
X78443935Y-51915706D01*
X78449243Y-51914284D01*
X78454225Y-51911961D01*
X78651762Y-51819849D01*
X78651767Y-51819846D01*
X78656749Y-51817523D01*
X78761611Y-51744098D01*
X78839789Y-51689357D01*
X78839792Y-51689355D01*
X78844300Y-51686198D01*
X79006198Y-51524300D01*
X79058911Y-51449019D01*
X79134366Y-51341257D01*
X79137523Y-51336749D01*
X79139846Y-51331767D01*
X79139849Y-51331762D01*
X79231961Y-51134225D01*
X79231961Y-51134224D01*
X79234284Y-51129243D01*
X79278403Y-50964592D01*
X79292119Y-50913402D01*
X79292119Y-50913400D01*
X79293543Y-50908087D01*
X79313498Y-50680000D01*
X79293543Y-50451913D01*
X79291203Y-50443179D01*
X79235707Y-50236067D01*
X79235706Y-50236065D01*
X79234284Y-50230757D01*
X79208216Y-50174854D01*
X79139849Y-50028238D01*
X79139846Y-50028233D01*
X79137523Y-50023251D01*
X79006198Y-49835700D01*
X78844300Y-49673802D01*
X78839792Y-49670645D01*
X78839789Y-49670643D01*
X78761611Y-49615902D01*
X78656749Y-49542477D01*
X78651767Y-49540154D01*
X78651762Y-49540151D01*
X78454225Y-49448039D01*
X78454224Y-49448039D01*
X78449243Y-49445716D01*
X78443935Y-49444294D01*
X78443933Y-49444293D01*
X78233402Y-49387881D01*
X78233400Y-49387881D01*
X78228087Y-49386457D01*
X78000000Y-49366502D01*
X77771913Y-49386457D01*
X77766600Y-49387881D01*
X77766598Y-49387881D01*
X77556067Y-49444293D01*
X77556065Y-49444294D01*
X77550757Y-49445716D01*
X77545776Y-49448039D01*
X77545775Y-49448039D01*
X77348238Y-49540151D01*
X77348233Y-49540154D01*
X77343251Y-49542477D01*
X77238389Y-49615902D01*
X77160211Y-49670643D01*
X77160208Y-49670645D01*
X77155700Y-49673802D01*
X76993802Y-49835700D01*
X76862477Y-50023251D01*
X76860154Y-50028233D01*
X76860151Y-50028238D01*
X76791784Y-50174854D01*
X76765716Y-50230757D01*
X76764294Y-50236065D01*
X76764293Y-50236067D01*
X76708797Y-50443179D01*
X76706457Y-50451913D01*
X76686502Y-50680000D01*
X69153498Y-50680000D01*
X69133543Y-50451913D01*
X69131203Y-50443179D01*
X69075707Y-50236067D01*
X69075706Y-50236065D01*
X69074284Y-50230757D01*
X69048216Y-50174854D01*
X68979849Y-50028238D01*
X68979846Y-50028233D01*
X68977523Y-50023251D01*
X68849287Y-49840111D01*
X68826500Y-49767841D01*
X68826500Y-47625000D01*
X84578502Y-47625000D01*
X84598457Y-47853087D01*
X84599881Y-47858400D01*
X84599881Y-47858402D01*
X84646270Y-48031525D01*
X84657716Y-48074243D01*
X84660039Y-48079224D01*
X84660039Y-48079225D01*
X84752151Y-48276762D01*
X84752154Y-48276767D01*
X84754477Y-48281749D01*
X84885802Y-48469300D01*
X85047700Y-48631198D01*
X85052208Y-48634355D01*
X85052211Y-48634357D01*
X85130389Y-48689098D01*
X85235251Y-48762523D01*
X85240233Y-48764846D01*
X85240238Y-48764849D01*
X85436765Y-48856490D01*
X85442757Y-48859284D01*
X85448065Y-48860706D01*
X85448067Y-48860707D01*
X85658598Y-48917119D01*
X85658600Y-48917119D01*
X85663913Y-48918543D01*
X85892000Y-48938498D01*
X86120087Y-48918543D01*
X86125400Y-48917119D01*
X86125402Y-48917119D01*
X86335933Y-48860707D01*
X86335935Y-48860706D01*
X86341243Y-48859284D01*
X86347235Y-48856490D01*
X86543762Y-48764849D01*
X86543767Y-48764846D01*
X86548749Y-48762523D01*
X86622243Y-48711062D01*
X90170493Y-48711062D01*
X90179789Y-48723077D01*
X90230994Y-48758931D01*
X90240489Y-48764414D01*
X90437947Y-48856490D01*
X90448239Y-48860236D01*
X90658688Y-48916625D01*
X90669481Y-48918528D01*
X90886525Y-48937517D01*
X90897475Y-48937517D01*
X91114519Y-48918528D01*
X91125312Y-48916625D01*
X91335761Y-48860236D01*
X91346053Y-48856490D01*
X91543511Y-48764414D01*
X91553006Y-48758931D01*
X91605048Y-48722491D01*
X91613424Y-48712012D01*
X91606356Y-48698566D01*
X90904812Y-47997022D01*
X90890868Y-47989408D01*
X90889035Y-47989539D01*
X90882420Y-47993790D01*
X90176923Y-48699287D01*
X90170493Y-48711062D01*
X86622243Y-48711062D01*
X86653611Y-48689098D01*
X86731789Y-48634357D01*
X86731792Y-48634355D01*
X86736300Y-48631198D01*
X86898198Y-48469300D01*
X87029523Y-48281749D01*
X87031846Y-48276767D01*
X87031849Y-48276762D01*
X87123961Y-48079225D01*
X87123961Y-48079224D01*
X87126284Y-48074243D01*
X87137731Y-48031525D01*
X87184119Y-47858402D01*
X87184119Y-47858400D01*
X87185543Y-47853087D01*
X87205019Y-47630475D01*
X89579483Y-47630475D01*
X89598472Y-47847519D01*
X89600375Y-47858312D01*
X89656764Y-48068761D01*
X89660510Y-48079053D01*
X89752586Y-48276511D01*
X89758069Y-48286006D01*
X89794509Y-48338048D01*
X89804988Y-48346424D01*
X89818434Y-48339356D01*
X90519978Y-47637812D01*
X90526356Y-47626132D01*
X91256408Y-47626132D01*
X91256539Y-47627965D01*
X91260790Y-47634580D01*
X91966287Y-48340077D01*
X91978062Y-48346507D01*
X91990077Y-48337211D01*
X92025931Y-48286006D01*
X92031414Y-48276511D01*
X92123490Y-48079053D01*
X92127236Y-48068761D01*
X92183625Y-47858312D01*
X92185528Y-47847519D01*
X92204517Y-47630475D01*
X92204517Y-47619525D01*
X92185528Y-47402481D01*
X92183625Y-47391688D01*
X92127236Y-47181239D01*
X92123490Y-47170947D01*
X92031414Y-46973489D01*
X92025931Y-46963994D01*
X91989491Y-46911952D01*
X91979012Y-46903576D01*
X91965566Y-46910644D01*
X91264022Y-47612188D01*
X91256408Y-47626132D01*
X90526356Y-47626132D01*
X90527592Y-47623868D01*
X90527461Y-47622035D01*
X90523210Y-47615420D01*
X89817713Y-46909923D01*
X89805938Y-46903493D01*
X89793923Y-46912789D01*
X89758069Y-46963994D01*
X89752586Y-46973489D01*
X89660510Y-47170947D01*
X89656764Y-47181239D01*
X89600375Y-47391688D01*
X89598472Y-47402481D01*
X89579483Y-47619525D01*
X89579483Y-47630475D01*
X87205019Y-47630475D01*
X87205498Y-47625000D01*
X87185543Y-47396913D01*
X87148981Y-47260461D01*
X87127707Y-47181067D01*
X87127706Y-47181065D01*
X87126284Y-47175757D01*
X87074546Y-47064803D01*
X87031849Y-46973238D01*
X87031846Y-46973233D01*
X87029523Y-46968251D01*
X86898198Y-46780700D01*
X86736300Y-46618802D01*
X86731792Y-46615645D01*
X86731789Y-46615643D01*
X86620886Y-46537988D01*
X90170576Y-46537988D01*
X90177644Y-46551434D01*
X90879188Y-47252978D01*
X90893132Y-47260592D01*
X90894965Y-47260461D01*
X90901580Y-47256210D01*
X91607077Y-46550713D01*
X91613507Y-46538938D01*
X91604211Y-46526923D01*
X91553006Y-46491069D01*
X91543511Y-46485586D01*
X91346053Y-46393510D01*
X91335761Y-46389764D01*
X91125312Y-46333375D01*
X91114519Y-46331472D01*
X90897475Y-46312483D01*
X90886525Y-46312483D01*
X90669481Y-46331472D01*
X90658688Y-46333375D01*
X90448239Y-46389764D01*
X90437947Y-46393510D01*
X90240489Y-46485586D01*
X90230994Y-46491069D01*
X90178952Y-46527509D01*
X90170576Y-46537988D01*
X86620886Y-46537988D01*
X86605920Y-46527509D01*
X86548749Y-46487477D01*
X86543767Y-46485154D01*
X86543762Y-46485151D01*
X86346225Y-46393039D01*
X86346224Y-46393039D01*
X86341243Y-46390716D01*
X86335935Y-46389294D01*
X86335933Y-46389293D01*
X86125402Y-46332881D01*
X86125400Y-46332881D01*
X86120087Y-46331457D01*
X85892000Y-46311502D01*
X85663913Y-46331457D01*
X85658600Y-46332881D01*
X85658598Y-46332881D01*
X85448067Y-46389293D01*
X85448065Y-46389294D01*
X85442757Y-46390716D01*
X85437776Y-46393039D01*
X85437775Y-46393039D01*
X85240238Y-46485151D01*
X85240233Y-46485154D01*
X85235251Y-46487477D01*
X85178080Y-46527509D01*
X85052211Y-46615643D01*
X85052208Y-46615645D01*
X85047700Y-46618802D01*
X84885802Y-46780700D01*
X84754477Y-46968251D01*
X84752154Y-46973233D01*
X84752151Y-46973238D01*
X84709454Y-47064803D01*
X84657716Y-47175757D01*
X84656294Y-47181065D01*
X84656293Y-47181067D01*
X84635019Y-47260461D01*
X84598457Y-47396913D01*
X84578502Y-47625000D01*
X68826500Y-47625000D01*
X68826500Y-47152170D01*
X68846502Y-47084049D01*
X68900158Y-47037556D01*
X68921763Y-47030134D01*
X68928316Y-47029422D01*
X68935711Y-47026650D01*
X68935714Y-47026649D01*
X69056297Y-46981444D01*
X69064705Y-46978292D01*
X69181261Y-46890938D01*
X69268615Y-46774382D01*
X69319745Y-46637993D01*
X69326500Y-46575811D01*
X69326500Y-44479543D01*
X69319745Y-44417361D01*
X69268615Y-44280972D01*
X69181261Y-44164416D01*
X69064705Y-44077062D01*
X68928316Y-44025932D01*
X68866134Y-44019177D01*
X66769866Y-44019177D01*
X66707684Y-44025932D01*
X66571295Y-44077062D01*
X66454739Y-44164416D01*
X66367385Y-44280972D01*
X66316255Y-44417361D01*
X66309500Y-44479543D01*
X66309500Y-46575811D01*
X66316255Y-46637993D01*
X66367385Y-46774382D01*
X66454739Y-46890938D01*
X66571295Y-46978292D01*
X66579703Y-46981444D01*
X66700286Y-47026649D01*
X66700289Y-47026650D01*
X66707684Y-47029422D01*
X66713453Y-47030049D01*
X66774291Y-47064803D01*
X66807113Y-47127758D01*
X66809500Y-47152170D01*
X66809500Y-49830679D01*
X66786713Y-49902950D01*
X66702477Y-50023251D01*
X66700154Y-50028233D01*
X66700151Y-50028238D01*
X66631784Y-50174854D01*
X66605716Y-50230757D01*
X66604294Y-50236065D01*
X66604293Y-50236067D01*
X66548797Y-50443179D01*
X66546457Y-50451913D01*
X66526502Y-50680000D01*
X66546457Y-50908087D01*
X66547881Y-50913400D01*
X66547881Y-50913402D01*
X66561598Y-50964592D01*
X66605716Y-51129243D01*
X66608039Y-51134224D01*
X66608039Y-51134225D01*
X66700151Y-51331762D01*
X66700154Y-51331767D01*
X66702477Y-51336749D01*
X66705634Y-51341257D01*
X66808713Y-51488469D01*
X66831500Y-51560740D01*
X66831500Y-54879260D01*
X66808713Y-54951531D01*
X66702477Y-55103251D01*
X66700154Y-55108233D01*
X66700151Y-55108238D01*
X66634053Y-55249987D01*
X66605716Y-55310757D01*
X66546457Y-55531913D01*
X66545978Y-55537392D01*
X66541308Y-55590770D01*
X66515445Y-55656888D01*
X66504882Y-55668884D01*
X65116621Y-57057145D01*
X65106478Y-57066247D01*
X65076975Y-57089968D01*
X65073008Y-57094696D01*
X65044709Y-57128421D01*
X65041528Y-57132069D01*
X65039885Y-57133881D01*
X65037691Y-57136075D01*
X65010358Y-57169349D01*
X65009696Y-57170147D01*
X64949846Y-57241474D01*
X64947278Y-57246144D01*
X64943897Y-57250261D01*
X64940016Y-57257500D01*
X64900023Y-57332086D01*
X64899394Y-57333245D01*
X64857538Y-57409381D01*
X64857535Y-57409389D01*
X64854567Y-57414787D01*
X64852955Y-57419869D01*
X64850438Y-57424563D01*
X64823238Y-57513531D01*
X64822918Y-57514559D01*
X64794765Y-57603306D01*
X64794171Y-57608602D01*
X64792613Y-57613698D01*
X64791552Y-57624148D01*
X64783218Y-57706187D01*
X64783089Y-57707393D01*
X64777500Y-57757227D01*
X64777500Y-57760754D01*
X64777445Y-57761739D01*
X64776998Y-57767419D01*
X64772626Y-57810462D01*
X50067999Y-57810462D01*
X50067999Y-57369331D01*
X50067629Y-57362510D01*
X50062105Y-57311648D01*
X50058479Y-57296396D01*
X50013324Y-57175946D01*
X50004786Y-57160351D01*
X49928285Y-57058276D01*
X49915724Y-57045715D01*
X49813649Y-56969214D01*
X49798054Y-56960676D01*
X49677606Y-56915522D01*
X49662351Y-56911895D01*
X49611486Y-56906369D01*
X49604672Y-56906000D01*
X48532115Y-56906000D01*
X48516876Y-56910475D01*
X48515671Y-56911865D01*
X48514000Y-56919548D01*
X48514000Y-58441885D01*
X48006000Y-58441885D01*
X48006000Y-56924116D01*
X48001525Y-56908877D01*
X48000135Y-56907672D01*
X47992452Y-56906001D01*
X46915331Y-56906001D01*
X46908510Y-56906371D01*
X46857648Y-56911895D01*
X46842396Y-56915521D01*
X46721946Y-56960676D01*
X46706351Y-56969214D01*
X46604276Y-57045715D01*
X46591715Y-57058276D01*
X46515214Y-57160351D01*
X46506676Y-57175946D01*
X46461522Y-57296394D01*
X46457895Y-57311649D01*
X46452369Y-57362514D01*
X46452000Y-57369328D01*
X46452000Y-58441885D01*
X43688500Y-58441885D01*
X43688500Y-51180526D01*
X46447050Y-51180526D01*
X46459947Y-51449019D01*
X46512388Y-51712656D01*
X46603220Y-51965646D01*
X46605432Y-51969762D01*
X46605433Y-51969765D01*
X46647080Y-52047273D01*
X46730450Y-52202431D01*
X46733241Y-52206168D01*
X46733245Y-52206175D01*
X46820443Y-52322947D01*
X46891281Y-52417810D01*
X46894590Y-52421090D01*
X46894595Y-52421096D01*
X47078863Y-52603762D01*
X47082180Y-52607050D01*
X47085942Y-52609808D01*
X47085945Y-52609811D01*
X47295183Y-52763230D01*
X47298954Y-52765995D01*
X47303089Y-52768171D01*
X47303093Y-52768173D01*
X47527171Y-52886067D01*
X47536840Y-52891154D01*
X47790613Y-52979775D01*
X47795206Y-52980647D01*
X48050109Y-53029042D01*
X48050112Y-53029042D01*
X48054698Y-53029913D01*
X48182370Y-53034929D01*
X48318625Y-53040283D01*
X48318630Y-53040283D01*
X48323293Y-53040466D01*
X48427607Y-53029042D01*
X48585844Y-53011713D01*
X48585850Y-53011712D01*
X48590497Y-53011203D01*
X48595021Y-53010012D01*
X48845918Y-52943956D01*
X48845920Y-52943955D01*
X48850441Y-52942765D01*
X48854738Y-52940919D01*
X49093120Y-52838502D01*
X49093122Y-52838501D01*
X49097414Y-52836657D01*
X49211603Y-52765995D01*
X49322017Y-52697669D01*
X49322021Y-52697666D01*
X49325990Y-52695210D01*
X49531149Y-52521530D01*
X49708382Y-52319434D01*
X49790044Y-52192477D01*
X49851269Y-52097291D01*
X49853797Y-52093361D01*
X49964199Y-51848278D01*
X50001209Y-51717051D01*
X50035893Y-51594072D01*
X50035894Y-51594069D01*
X50037163Y-51589568D01*
X50055043Y-51449019D01*
X50070688Y-51326045D01*
X50070688Y-51326041D01*
X50071086Y-51322915D01*
X50073571Y-51228000D01*
X50053650Y-50959937D01*
X50044101Y-50917735D01*
X49995361Y-50702331D01*
X49995360Y-50702326D01*
X49994327Y-50697763D01*
X49896902Y-50447238D01*
X49763518Y-50213864D01*
X49597105Y-50002769D01*
X49401317Y-49818591D01*
X49244751Y-49709976D01*
X49184299Y-49668039D01*
X49184296Y-49668037D01*
X49180457Y-49665374D01*
X49176264Y-49663306D01*
X48943564Y-49548551D01*
X48943561Y-49548550D01*
X48939376Y-49546486D01*
X48919586Y-49540151D01*
X48837621Y-49513914D01*
X48683370Y-49464538D01*
X48678763Y-49463788D01*
X48678760Y-49463787D01*
X48422674Y-49422081D01*
X48422675Y-49422081D01*
X48418063Y-49421330D01*
X48287719Y-49419624D01*
X48153961Y-49417873D01*
X48153958Y-49417873D01*
X48149284Y-49417812D01*
X47882937Y-49454060D01*
X47624874Y-49529278D01*
X47380763Y-49641815D01*
X47376854Y-49644378D01*
X47159881Y-49786631D01*
X47159876Y-49786635D01*
X47155968Y-49789197D01*
X46955426Y-49968188D01*
X46783544Y-50174854D01*
X46644096Y-50404656D01*
X46642287Y-50408970D01*
X46642285Y-50408974D01*
X46541957Y-50648231D01*
X46540148Y-50652545D01*
X46473981Y-50913077D01*
X46447050Y-51180526D01*
X43688500Y-51180526D01*
X43688500Y-47572669D01*
X46452001Y-47572669D01*
X46452371Y-47579490D01*
X46457895Y-47630352D01*
X46461521Y-47645604D01*
X46506676Y-47766054D01*
X46515214Y-47781649D01*
X46591715Y-47883724D01*
X46604276Y-47896285D01*
X46706351Y-47972786D01*
X46721946Y-47981324D01*
X46842394Y-48026478D01*
X46857649Y-48030105D01*
X46908514Y-48035631D01*
X46915328Y-48036000D01*
X47987885Y-48036000D01*
X48003124Y-48031525D01*
X48004329Y-48030135D01*
X48006000Y-48022452D01*
X48006000Y-48017884D01*
X48514000Y-48017884D01*
X48518475Y-48033123D01*
X48519865Y-48034328D01*
X48527548Y-48035999D01*
X49604669Y-48035999D01*
X49611490Y-48035629D01*
X49662352Y-48030105D01*
X49677604Y-48026479D01*
X49798054Y-47981324D01*
X49813649Y-47972786D01*
X49915724Y-47896285D01*
X49928285Y-47883724D01*
X50004786Y-47781649D01*
X50013324Y-47766054D01*
X50058478Y-47645606D01*
X50062105Y-47630351D01*
X50067631Y-47579486D01*
X50068000Y-47572672D01*
X50068000Y-46500115D01*
X50063525Y-46484876D01*
X50062135Y-46483671D01*
X50054452Y-46482000D01*
X48532115Y-46482000D01*
X48516876Y-46486475D01*
X48515671Y-46487865D01*
X48514000Y-46495548D01*
X48514000Y-48017884D01*
X48006000Y-48017884D01*
X48006000Y-46500115D01*
X48001525Y-46484876D01*
X48000135Y-46483671D01*
X47992452Y-46482000D01*
X46470116Y-46482000D01*
X46454877Y-46486475D01*
X46453672Y-46487865D01*
X46452001Y-46495548D01*
X46452001Y-47572669D01*
X43688500Y-47572669D01*
X43688500Y-45955885D01*
X46452000Y-45955885D01*
X46456475Y-45971124D01*
X46457865Y-45972329D01*
X46465548Y-45974000D01*
X47987885Y-45974000D01*
X48003124Y-45969525D01*
X48004329Y-45968135D01*
X48006000Y-45960452D01*
X48006000Y-45955885D01*
X48514000Y-45955885D01*
X48518475Y-45971124D01*
X48519865Y-45972329D01*
X48527548Y-45974000D01*
X50049884Y-45974000D01*
X50065123Y-45969525D01*
X50066328Y-45968135D01*
X50067999Y-45960452D01*
X50067999Y-44883331D01*
X50067629Y-44876510D01*
X50062105Y-44825648D01*
X50058479Y-44810396D01*
X50013324Y-44689946D01*
X50004786Y-44674351D01*
X49928285Y-44572276D01*
X49915724Y-44559715D01*
X49813649Y-44483214D01*
X49798054Y-44474676D01*
X49677606Y-44429522D01*
X49662351Y-44425895D01*
X49611486Y-44420369D01*
X49604672Y-44420000D01*
X48532115Y-44420000D01*
X48516876Y-44424475D01*
X48515671Y-44425865D01*
X48514000Y-44433548D01*
X48514000Y-45955885D01*
X48006000Y-45955885D01*
X48006000Y-44438116D01*
X48001525Y-44422877D01*
X48000135Y-44421672D01*
X47992452Y-44420001D01*
X46915331Y-44420001D01*
X46908510Y-44420371D01*
X46857648Y-44425895D01*
X46842396Y-44429521D01*
X46721946Y-44474676D01*
X46706351Y-44483214D01*
X46604276Y-44559715D01*
X46591715Y-44572276D01*
X46515214Y-44674351D01*
X46506676Y-44689946D01*
X46461522Y-44810394D01*
X46457895Y-44825649D01*
X46452369Y-44876514D01*
X46452000Y-44883328D01*
X46452000Y-45955885D01*
X43688500Y-45955885D01*
X43688500Y-40309600D01*
X43708502Y-40241479D01*
X43762158Y-40194986D01*
X43832432Y-40184882D01*
X43897012Y-40214376D01*
X43931733Y-40263420D01*
X43977374Y-40379288D01*
X44143957Y-40696582D01*
X44145858Y-40699411D01*
X44145864Y-40699421D01*
X44329569Y-40972800D01*
X44343834Y-40994029D01*
X44574665Y-41268150D01*
X44833751Y-41515738D01*
X45118061Y-41733897D01*
X45150056Y-41753350D01*
X45421355Y-41918303D01*
X45421360Y-41918306D01*
X45424270Y-41920075D01*
X45427358Y-41921521D01*
X45427357Y-41921521D01*
X45745710Y-42070649D01*
X45745720Y-42070653D01*
X45748794Y-42072093D01*
X45752012Y-42073195D01*
X45752015Y-42073196D01*
X46084615Y-42187071D01*
X46084623Y-42187073D01*
X46087838Y-42188174D01*
X46437435Y-42266959D01*
X46489728Y-42272917D01*
X46790114Y-42307142D01*
X46790122Y-42307142D01*
X46793497Y-42307527D01*
X46796901Y-42307545D01*
X46796904Y-42307545D01*
X46991227Y-42308562D01*
X47151857Y-42309403D01*
X47155243Y-42309053D01*
X47155245Y-42309053D01*
X47504932Y-42272917D01*
X47504941Y-42272916D01*
X47508324Y-42272566D01*
X47511657Y-42271852D01*
X47511660Y-42271851D01*
X47684186Y-42234864D01*
X47858727Y-42197446D01*
X48198968Y-42084922D01*
X48525066Y-41936311D01*
X48619052Y-41880506D01*
X48830262Y-41755099D01*
X48830267Y-41755096D01*
X48833207Y-41753350D01*
X49119786Y-41538180D01*
X49381451Y-41293319D01*
X49615140Y-41021630D01*
X49721750Y-40866512D01*
X49816190Y-40729101D01*
X49816195Y-40729094D01*
X49818120Y-40726292D01*
X49819732Y-40723298D01*
X49819737Y-40723290D01*
X49943894Y-40492705D01*
X49988017Y-40410760D01*
X50122842Y-40078724D01*
X50133142Y-40042568D01*
X50153527Y-39971006D01*
X50221020Y-39734070D01*
X50281401Y-39380828D01*
X50283511Y-39346340D01*
X50288770Y-39260347D01*
X66950160Y-39260347D01*
X66955887Y-39267997D01*
X67127042Y-39372882D01*
X67135837Y-39377364D01*
X67345988Y-39464411D01*
X67355373Y-39467460D01*
X67576554Y-39520562D01*
X67586301Y-39522105D01*
X67813070Y-39539952D01*
X67822930Y-39539952D01*
X68049699Y-39522105D01*
X68059446Y-39520562D01*
X68280627Y-39467460D01*
X68290012Y-39464411D01*
X68500163Y-39377364D01*
X68508958Y-39372882D01*
X68676445Y-39270245D01*
X68685907Y-39259787D01*
X68682124Y-39251011D01*
X67830812Y-38399699D01*
X67816868Y-38392085D01*
X67815035Y-38392216D01*
X67808420Y-38396467D01*
X66956920Y-39247967D01*
X66950160Y-39260347D01*
X50288770Y-39260347D01*
X50303168Y-39024928D01*
X50303278Y-39023131D01*
X50303359Y-39000000D01*
X50283979Y-38642159D01*
X50226066Y-38288505D01*
X50155099Y-38032607D01*
X66305725Y-38032607D01*
X66323572Y-38259376D01*
X66325115Y-38269123D01*
X66378217Y-38490304D01*
X66381266Y-38499689D01*
X66468313Y-38709840D01*
X66472795Y-38718635D01*
X66575432Y-38886122D01*
X66585890Y-38895584D01*
X66594666Y-38891801D01*
X67445978Y-38040489D01*
X67452356Y-38028809D01*
X68182408Y-38028809D01*
X68182539Y-38030642D01*
X68186790Y-38037257D01*
X69038290Y-38888757D01*
X69050670Y-38895517D01*
X69058320Y-38889790D01*
X69163205Y-38718635D01*
X69167687Y-38709840D01*
X69254734Y-38499689D01*
X69257783Y-38490304D01*
X69310885Y-38269123D01*
X69312428Y-38259376D01*
X69330275Y-38032607D01*
X69330275Y-38022747D01*
X69312428Y-37795978D01*
X69310885Y-37786231D01*
X69257783Y-37565050D01*
X69254734Y-37555665D01*
X69167687Y-37345514D01*
X69163205Y-37336719D01*
X69060568Y-37169232D01*
X69050110Y-37159770D01*
X69041334Y-37163553D01*
X68190022Y-38014865D01*
X68182408Y-38028809D01*
X67452356Y-38028809D01*
X67453592Y-38026545D01*
X67453461Y-38024712D01*
X67449210Y-38018097D01*
X66597710Y-37166597D01*
X66585330Y-37159837D01*
X66577680Y-37165564D01*
X66472795Y-37336719D01*
X66468313Y-37345514D01*
X66381266Y-37555665D01*
X66378217Y-37565050D01*
X66325115Y-37786231D01*
X66323572Y-37795978D01*
X66305725Y-38022747D01*
X66305725Y-38032607D01*
X50155099Y-38032607D01*
X50130297Y-37943173D01*
X50127243Y-37935497D01*
X50015880Y-37655655D01*
X49997793Y-37610205D01*
X49962929Y-37544358D01*
X49831702Y-37296513D01*
X49831698Y-37296506D01*
X49830103Y-37293494D01*
X49629190Y-36996746D01*
X49458578Y-36795567D01*
X66950093Y-36795567D01*
X66953876Y-36804343D01*
X67805188Y-37655655D01*
X67819132Y-37663269D01*
X67820965Y-37663138D01*
X67827580Y-37658887D01*
X68679080Y-36807387D01*
X68685840Y-36795007D01*
X68680113Y-36787357D01*
X68508958Y-36682472D01*
X68500163Y-36677990D01*
X68290012Y-36590943D01*
X68280627Y-36587894D01*
X68059446Y-36534792D01*
X68049699Y-36533249D01*
X67822930Y-36515402D01*
X67813070Y-36515402D01*
X67586301Y-36533249D01*
X67576554Y-36534792D01*
X67355373Y-36587894D01*
X67345988Y-36590943D01*
X67135837Y-36677990D01*
X67127042Y-36682472D01*
X66959555Y-36785109D01*
X66950093Y-36795567D01*
X49458578Y-36795567D01*
X49397403Y-36723432D01*
X49137454Y-36476750D01*
X48852384Y-36259585D01*
X48849472Y-36257828D01*
X48849467Y-36257825D01*
X48548443Y-36076236D01*
X48548437Y-36076233D01*
X48545528Y-36074478D01*
X48220475Y-35923593D01*
X48050751Y-35866145D01*
X47884255Y-35809789D01*
X47884250Y-35809788D01*
X47881028Y-35808697D01*
X47655896Y-35758786D01*
X47650154Y-35757513D01*
X47587978Y-35723241D01*
X47554200Y-35660794D01*
X47559546Y-35589999D01*
X47602318Y-35533333D01*
X47668936Y-35508786D01*
X47677426Y-35508500D01*
X132563413Y-35508500D01*
X132631534Y-35528502D01*
G37*
%TD.AperFunction*%
%TD*%
M02*
